<?xml version="1.0" encoding="UTF-8" standalone="no"?>
<!DOCTYPE svg PUBLIC "-//W3C//DTD SVG 1.1//EN"
 "http://www.w3.org/Graphics/SVG/1.1/DTD/svg11.dtd">
<!-- Generated by graphviz version 2.38.0 (20140413.2041)
 -->
<!-- Title: g Pages: 1 -->
<svg width="228pt" height="251pt"
 viewBox="0.00 0.00 227.70 251.00" xmlns="http://www.w3.org/2000/svg" xmlns:xlink="http://www.w3.org/1999/xlink">
<g id="graph0" class="graph" transform="scale(1 1) rotate(0) translate(4 247)">
<title>g</title>
<polygon fill="white" stroke="none" points="-4,4 -4,-247 223.701,-247 223.701,4 -4,4"/>
<!-- N0 -->
<g id="node1" class="node"><title>N0</title>
<path fill="#ffffff" stroke="#2e3436" stroke-width="1.5" d="M63.334,-194.5C63.334,-194.5 106.193,-194.5 106.193,-194.5 112.193,-194.5 118.193,-200.5 118.193,-206.5 118.193,-206.5 118.193,-230.5 118.193,-230.5 118.193,-236.5 112.193,-242.5 106.193,-242.5 106.193,-242.5 63.334,-242.5 63.334,-242.5 57.334,-242.5 51.334,-236.5 51.334,-230.5 51.334,-230.5 51.334,-206.5 51.334,-206.5 51.334,-200.5 57.334,-194.5 63.334,-194.5"/>
<text text-anchor="middle" x="84.7637" y="-232.1" font-family="sans-serif" font-size="8.00" fill="#1c2021">A</text>
<polyline fill="none" stroke="#2e3436" stroke-width="1.5" points="51.334,-226.5 118.193,-226.5 "/>
<text text-anchor="start" x="59.334" y="-216.1" font-family="sans-serif" font-size="8.00" fill="#1c2021">name = &#39;Alice&#39;</text>
<text text-anchor="start" x="59.334" y="-208.1" font-family="sans-serif" font-size="8.00" fill="#1c2021">eyes = &#39;brown&#39;</text>
<text text-anchor="start" x="59.334" y="-200.1" font-family="sans-serif" font-size="8.00" fill="#1c2021">age = 38</text>
</g>
<!-- N2 -->
<g id="node2" class="node"><title>N2</title>
<path fill="#ffffff" stroke="#2e3436" stroke-width="1.5" d="M12,-101.5C12,-101.5 61.5273,-101.5 61.5273,-101.5 67.5273,-101.5 73.5273,-107.5 73.5273,-113.5 73.5273,-113.5 73.5273,-137.5 73.5273,-137.5 73.5273,-143.5 67.5273,-149.5 61.5273,-149.5 61.5273,-149.5 12,-149.5 12,-149.5 6,-149.5 0,-143.5 0,-137.5 0,-137.5 0,-113.5 0,-113.5 0,-107.5 6,-101.5 12,-101.5"/>
<text text-anchor="middle" x="36.7637" y="-139.1" font-family="sans-serif" font-size="8.00" fill="#1c2021">C</text>
<polyline fill="none" stroke="#2e3436" stroke-width="1.5" points="0,-133.5 73.5273,-133.5 "/>
<text text-anchor="start" x="8" y="-123.1" font-family="sans-serif" font-size="8.00" fill="#1c2021">name = &#39;Charlie&#39;</text>
<text text-anchor="start" x="8" y="-115.1" font-family="sans-serif" font-size="8.00" fill="#1c2021">eyes = &#39;green&#39;</text>
<text text-anchor="start" x="8" y="-107.1" font-family="sans-serif" font-size="8.00" fill="#1c2021">age = 53</text>
</g>
<!-- N0&#45;&gt;N2 -->
<g id="edge1" class="edge"><title>N0&#45;&gt;N2</title>
<path fill="none" stroke="#2e3436" stroke-width="2" d="M69.1643,-194.16C65.5056,-188.329 61.7437,-182.019 58.541,-176 55.2375,-169.791 52.0027,-162.978 49.0793,-156.446"/>
<polygon fill="#2e3436" stroke="#2e3436" stroke-width="2" points="46.0407,-149.509 52.1415,-155.025 48.0034,-152.743 49.5081,-156.178 49.0501,-156.379 48.5922,-156.58 47.0875,-153.145 45.9587,-157.733 46.0407,-149.509 46.0407,-149.509"/>
<text text-anchor="middle" x="73.875" y="-169.6" font-family="sans-serif" font-size="8.00" fill="#2e3436">KNOWS</text>
</g>
<!-- N1 -->
<g id="node3" class="node"><title>N1</title>
<path fill="#ffffff" stroke="#2e3436" stroke-width="1.5" d="M114.555,-101.5C114.555,-101.5 152.973,-101.5 152.973,-101.5 158.973,-101.5 164.973,-107.5 164.973,-113.5 164.973,-113.5 164.973,-137.5 164.973,-137.5 164.973,-143.5 158.973,-149.5 152.973,-149.5 152.973,-149.5 114.555,-149.5 114.555,-149.5 108.555,-149.5 102.555,-143.5 102.555,-137.5 102.555,-137.5 102.555,-113.5 102.555,-113.5 102.555,-107.5 108.555,-101.5 114.555,-101.5"/>
<text text-anchor="middle" x="133.764" y="-139.1" font-family="sans-serif" font-size="8.00" fill="#1c2021">B</text>
<polyline fill="none" stroke="#2e3436" stroke-width="1.5" points="102.555,-133.5 164.973,-133.5 "/>
<text text-anchor="start" x="110.555" y="-123.1" font-family="sans-serif" font-size="8.00" fill="#1c2021">name = &#39;Bob&#39;</text>
<text text-anchor="start" x="110.555" y="-115.1" font-family="sans-serif" font-size="8.00" fill="#1c2021">eyes = &#39;blue&#39;</text>
<text text-anchor="start" x="110.555" y="-107.1" font-family="sans-serif" font-size="8.00" fill="#1c2021">age = 25</text>
</g>
<!-- N0&#45;&gt;N1 -->
<g id="edge2" class="edge"><title>N0&#45;&gt;N1</title>
<path fill="none" stroke="#2e3436" stroke-width="2" d="M97.3824,-194.065C103.603,-182.513 111.172,-168.456 117.792,-156.162"/>
<polygon fill="#2e3436" stroke="#2e3436" stroke-width="2" points="121.357,-149.54 120.773,-157.744 120.02,-153.079 118.242,-156.381 117.802,-156.144 117.361,-155.907 119.139,-152.605 114.83,-154.544 121.357,-149.54 121.357,-149.54"/>
<text text-anchor="middle" x="125.875" y="-169.6" font-family="sans-serif" font-size="8.00" fill="#2e3436">KNOWS</text>
</g>
<!-- N3 -->
<g id="node5" class="node"><title>N3</title>
<path fill="#ffffff" stroke="#2e3436" stroke-width="1.5" d="M18.332,-8.5C18.332,-8.5 65.1953,-8.5 65.1953,-8.5 71.1953,-8.5 77.1953,-14.5 77.1953,-20.5 77.1953,-20.5 77.1953,-36.5 77.1953,-36.5 77.1953,-42.5 71.1953,-48.5 65.1953,-48.5 65.1953,-48.5 18.332,-48.5 18.332,-48.5 12.332,-48.5 6.33203,-42.5 6.33203,-36.5 6.33203,-36.5 6.33203,-20.5 6.33203,-20.5 6.33203,-14.5 12.332,-8.5 18.332,-8.5"/>
<text text-anchor="middle" x="41.7637" y="-38.1" font-family="sans-serif" font-size="8.00" fill="#1c2021">D</text>
<polyline fill="none" stroke="#2e3436" stroke-width="1.5" points="6.33203,-32.5 77.1953,-32.5 "/>
<text text-anchor="start" x="14.332" y="-22.1" font-family="sans-serif" font-size="8.00" fill="#1c2021">name = &#39;Daniel&#39;</text>
<text text-anchor="start" x="14.332" y="-14.1" font-family="sans-serif" font-size="8.00" fill="#1c2021">eyes = &#39;brown&#39;</text>
</g>
<!-- N2&#45;&gt;N3 -->
<g id="edge5" class="edge"><title>N2&#45;&gt;N3</title>
<path fill="none" stroke="#2e3436" stroke-width="2" d="M35.2984,-101.243C34.9842,-95.2977 34.6993,-88.9143 34.541,-83 34.4459,-79.4457 34.2614,-78.5445 34.541,-75 35.0186,-68.9452 35.8484,-62.4789 36.7794,-56.378"/>
<polygon fill="#2e3436" stroke="#2e3436" stroke-width="2" points="37.9939,-48.9042 40.1221,-56.8485 37.8859,-52.6858 37.2843,-56.3873 36.7908,-56.3071 36.2973,-56.2269 36.8988,-52.5254 33.4595,-55.7657 37.9939,-48.9042 37.9939,-48.9042"/>
<text text-anchor="middle" x="49.875" y="-76.6" font-family="sans-serif" font-size="8.00" fill="#2e3436">KNOWS</text>
</g>
<!-- N4 -->
<g id="node4" class="node"><title>N4</title>
<path fill="#ffffff" stroke="#2e3436" stroke-width="1.5" d="M121.826,-0.5C121.826,-0.5 207.701,-0.5 207.701,-0.5 213.701,-0.5 219.701,-6.5 219.701,-12.5 219.701,-12.5 219.701,-44.5 219.701,-44.5 219.701,-50.5 213.701,-56.5 207.701,-56.5 207.701,-56.5 121.826,-56.5 121.826,-56.5 115.826,-56.5 109.826,-50.5 109.826,-44.5 109.826,-44.5 109.826,-12.5 109.826,-12.5 109.826,-6.5 115.826,-0.5 121.826,-0.5"/>
<text text-anchor="middle" x="164.764" y="-46.1" font-family="sans-serif" font-size="8.00" fill="#1c2021">E</text>
<polyline fill="none" stroke="#2e3436" stroke-width="1.5" points="109.826,-40.5 219.701,-40.5 "/>
<text text-anchor="start" x="117.826" y="-30.1" font-family="sans-serif" font-size="8.00" fill="#1c2021">array = [&#39;one&#39;, &#39;two&#39;, &#39;three&#39;]</text>
<text text-anchor="start" x="117.826" y="-22.1" font-family="sans-serif" font-size="8.00" fill="#1c2021">name = &#39;Eskil&#39;</text>
<text text-anchor="start" x="117.826" y="-14.1" font-family="sans-serif" font-size="8.00" fill="#1c2021">eyes = &#39;blue&#39;</text>
<text text-anchor="start" x="117.826" y="-6.1" font-family="sans-serif" font-size="8.00" fill="#1c2021">age = 41</text>
</g>
<!-- N1&#45;&gt;N4 -->
<g id="edge3" class="edge"><title>N1&#45;&gt;N4</title>
<path fill="none" stroke="#4e9a06" stroke-width="2" d="M141.427,-101.017C145.05,-89.9144 149.448,-76.4363 153.445,-64.187"/>
<polygon fill="#4e9a06" stroke="#4e9a06" stroke-width="2" points="155.871,-56.751 156.753,-64.928 155.183,-60.4711 154.02,-64.0361 153.545,-63.881 153.069,-63.7259 154.233,-60.1609 150.336,-62.834 155.871,-56.751 155.871,-56.751"/>
<text text-anchor="middle" x="168.209" y="-76.6" font-family="sans-serif" font-size="8.00" fill="#4e9a06">MARRIED</text>
</g>
<!-- N1&#45;&gt;N3 -->
<g id="edge4" class="edge"><title>N1&#45;&gt;N3</title>
<path fill="none" stroke="#2e3436" stroke-width="2" d="M111.022,-101.017C97.2114,-86.7559 79.6051,-68.5754 65.6003,-54.1139"/>
<polygon fill="#2e3436" stroke="#2e3436" stroke-width="2" points="60.2309,-48.5694 67.8729,-51.6092 63.1988,-50.9154 65.8076,-53.6093 65.4484,-53.9571 65.0893,-54.3049 62.4805,-51.6111 63.024,-56.305 60.2309,-48.5694 60.2309,-48.5694"/>
<text text-anchor="middle" x="108.875" y="-76.6" font-family="sans-serif" font-size="8.00" fill="#2e3436">KNOWS</text>
</g>
</g>
</svg>
