<?xml version="1.0" encoding="UTF-8" standalone="no"?>
<!DOCTYPE svg PUBLIC "-//W3C//DTD SVG 1.1//EN"
 "http://www.w3.org/Graphics/SVG/1.1/DTD/svg11.dtd">
<!-- Generated by graphviz version 2.38.0 (20140413.2041)
 -->
<!-- Title: g Pages: 1 -->
<svg width="254pt" height="223pt"
 viewBox="0.00 0.00 253.53 223.00" xmlns="http://www.w3.org/2000/svg" xmlns:xlink="http://www.w3.org/1999/xlink">
<g id="graph0" class="graph" transform="scale(1 1) rotate(0) translate(4 219)">
<title>g</title>
<polygon fill="white" stroke="none" points="-4,4 -4,-219 249.527,-219 249.527,4 -4,4"/>
<!-- N0 -->
<g id="node1" class="node"><title>N0</title>
<path fill="#ffffff" stroke="#2e3436" stroke-width="1.5" d="M104.098,-174.5C104.098,-174.5 134.098,-174.5 134.098,-174.5 140.098,-174.5 146.098,-180.5 146.098,-186.5 146.098,-186.5 146.098,-202.5 146.098,-202.5 146.098,-208.5 140.098,-214.5 134.098,-214.5 134.098,-214.5 104.098,-214.5 104.098,-214.5 98.0977,-214.5 92.0977,-208.5 92.0977,-202.5 92.0977,-202.5 92.0977,-186.5 92.0977,-186.5 92.0977,-180.5 98.0977,-174.5 104.098,-174.5"/>
<text text-anchor="middle" x="118.857" y="-204.1" font-family="sans-serif" font-size="8.00" fill="#1c2021">Person</text>
<polyline fill="none" stroke="#2e3436" stroke-width="1.5" points="92.0977,-198.5 145.617,-198.5 "/>
<text text-anchor="start" x="100.098" y="-188.1" font-family="sans-serif" font-size="8.00" fill="#1c2021">name = &#39;A&#39;</text>
<text text-anchor="start" x="100.098" y="-180.1" font-family="sans-serif" font-size="8.00" fill="#1c2021">age = 13</text>
</g>
<!-- N1 -->
<g id="node2" class="node"><title>N1</title>
<path fill="#ffffff" stroke="#2e3436" stroke-width="1.5" d="M12,-81.5C12,-81.5 48.1953,-81.5 48.1953,-81.5 54.1953,-81.5 60.1953,-87.5 60.1953,-93.5 60.1953,-93.5 60.1953,-117.5 60.1953,-117.5 60.1953,-123.5 54.1953,-129.5 48.1953,-129.5 48.1953,-129.5 12,-129.5 12,-129.5 6,-129.5 0,-123.5 0,-117.5 0,-117.5 0,-93.5 0,-93.5 0,-87.5 6,-81.5 12,-81.5"/>
<text text-anchor="middle" x="30.0977" y="-119.1" font-family="sans-serif" font-size="8.00" fill="#1c2021">Person</text>
<polyline fill="none" stroke="#2e3436" stroke-width="1.5" points="0,-113.5 60.1953,-113.5 "/>
<text text-anchor="start" x="8" y="-103.1" font-family="sans-serif" font-size="8.00" fill="#1c2021">name = &#39;B&#39;</text>
<text text-anchor="start" x="8" y="-95.1" font-family="sans-serif" font-size="8.00" fill="#1c2021">age = 33</text>
<text text-anchor="start" x="8" y="-87.1" font-family="sans-serif" font-size="8.00" fill="#1c2021">eyes = &#39;blue&#39;</text>
</g>
<!-- N0&#45;&gt;N1 -->
<g id="edge1" class="edge"><title>N0&#45;&gt;N1</title>
<path fill="none" stroke="#2e3436" stroke-width="2" d="M99.3457,-174.192C87.6055,-162.716 72.4957,-147.945 59.3874,-135.132"/>
<polygon fill="#2e3436" stroke="#2e3436" stroke-width="2" points="53.9078,-129.775 61.6303,-132.604 56.939,-132.039 59.6206,-134.66 59.2711,-135.018 58.9215,-135.375 56.2399,-132.754 56.9118,-137.431 53.9078,-129.775 53.9078,-129.775"/>
<text text-anchor="middle" x="95.209" y="-149.6" font-family="sans-serif" font-size="8.00" fill="#2e3436">KNOWS</text>
</g>
<!-- N2 -->
<g id="node3" class="node"><title>N2</title>
<path fill="#ffffff" stroke="#2e3436" stroke-width="1.5" d="M101,-81.5C101,-81.5 137.195,-81.5 137.195,-81.5 143.195,-81.5 149.195,-87.5 149.195,-93.5 149.195,-93.5 149.195,-117.5 149.195,-117.5 149.195,-123.5 143.195,-129.5 137.195,-129.5 137.195,-129.5 101,-129.5 101,-129.5 95,-129.5 89,-123.5 89,-117.5 89,-117.5 89,-93.5 89,-93.5 89,-87.5 95,-81.5 101,-81.5"/>
<text text-anchor="middle" x="119.098" y="-119.1" font-family="sans-serif" font-size="8.00" fill="#1c2021">Person</text>
<polyline fill="none" stroke="#2e3436" stroke-width="1.5" points="89,-113.5 149.195,-113.5 "/>
<text text-anchor="start" x="97" y="-103.1" font-family="sans-serif" font-size="8.00" fill="#1c2021">name = &#39;C&#39;</text>
<text text-anchor="start" x="97" y="-95.1" font-family="sans-serif" font-size="8.00" fill="#1c2021">age = 44</text>
<text text-anchor="start" x="97" y="-87.1" font-family="sans-serif" font-size="8.00" fill="#1c2021">eyes = &#39;blue&#39;</text>
</g>
<!-- N0&#45;&gt;N2 -->
<g id="edge2" class="edge"><title>N0&#45;&gt;N2</title>
<path fill="none" stroke="#2e3436" stroke-width="2" d="M119.098,-174.192C119.098,-163.433 119.098,-149.779 119.098,-137.556"/>
<polygon fill="#2e3436" stroke="#2e3436" stroke-width="2" points="119.098,-129.775 122.473,-137.275 119.598,-133.525 119.598,-137.275 119.098,-137.275 118.598,-137.275 118.598,-133.525 115.723,-137.275 119.098,-129.775 119.098,-129.775"/>
<text text-anchor="middle" x="134.209" y="-149.6" font-family="sans-serif" font-size="8.00" fill="#2e3436">KNOWS</text>
</g>
<!-- N3 -->
<g id="node4" class="node"><title>N3</title>
<path fill="#ffffff" stroke="#2e3436" stroke-width="1.5" d="M190.668,-85.5C190.668,-85.5 233.527,-85.5 233.527,-85.5 239.527,-85.5 245.527,-91.5 245.527,-97.5 245.527,-97.5 245.527,-113.5 245.527,-113.5 245.527,-119.5 239.527,-125.5 233.527,-125.5 233.527,-125.5 190.668,-125.5 190.668,-125.5 184.668,-125.5 178.668,-119.5 178.668,-113.5 178.668,-113.5 178.668,-97.5 178.668,-97.5 178.668,-91.5 184.668,-85.5 190.668,-85.5"/>
<text text-anchor="middle" x="212.098" y="-115.1" font-family="sans-serif" font-size="8.00" fill="#1c2021">Person</text>
<polyline fill="none" stroke="#2e3436" stroke-width="1.5" points="178.668,-109.5 245.527,-109.5 "/>
<text text-anchor="start" x="186.668" y="-99.1" font-family="sans-serif" font-size="8.00" fill="#1c2021">name = &#39;D&#39;</text>
<text text-anchor="start" x="186.668" y="-91.1" font-family="sans-serif" font-size="8.00" fill="#1c2021">eyes = &#39;brown&#39;</text>
</g>
<!-- N0&#45;&gt;N3 -->
<g id="edge3" class="edge"><title>N0&#45;&gt;N3</title>
<path fill="none" stroke="#2e3436" stroke-width="2" d="M139.737,-174.192C153.343,-161.464 171.28,-144.685 185.891,-131.016"/>
<polygon fill="#2e3436" stroke="#2e3436" stroke-width="2" points="191.516,-125.754 188.344,-133.343 189.119,-128.681 186.38,-131.243 186.039,-130.878 185.697,-130.513 188.436,-127.951 183.733,-128.413 191.516,-125.754 191.516,-125.754"/>
<text text-anchor="middle" x="181.209" y="-149.6" font-family="sans-serif" font-size="8.00" fill="#2e3436">KNOWS</text>
</g>
<!-- N4 -->
<g id="node5" class="node"><title>N4</title>
<path fill="#ffffff" stroke="#2e3436" stroke-width="1.5" d="M62.0977,-0.5C62.0977,-0.5 92.0977,-0.5 92.0977,-0.5 98.0977,-0.5 104.098,-6.5 104.098,-12.5 104.098,-12.5 104.098,-24.5 104.098,-24.5 104.098,-30.5 98.0977,-36.5 92.0977,-36.5 92.0977,-36.5 62.0977,-36.5 62.0977,-36.5 56.0977,-36.5 50.0977,-30.5 50.0977,-24.5 50.0977,-24.5 50.0977,-12.5 50.0977,-12.5 50.0977,-6.5 56.0977,-0.5 62.0977,-0.5"/>
<text text-anchor="middle" x="77.0781" y="-25.1" font-family="sans-serif" font-size="8.00" fill="#1c2021">Person</text>
<polyline fill="none" stroke="#2e3436" stroke-width="1.5" points="50.0977,-18.5 104.059,-18.5 "/>
<text text-anchor="start" x="58.0977" y="-7.1" font-family="sans-serif" font-size="8.00" fill="#1c2021">name = &#39;D&#39;</text>
</g>
<!-- N1&#45;&gt;N4 -->
<g id="edge4" class="edge"><title>N1&#45;&gt;N4</title>
<path fill="none" stroke="#2e3436" stroke-width="2" d="M42.9406,-81.2734C49.4386,-69.5217 57.3158,-55.2757 63.8673,-43.4272"/>
<polygon fill="#2e3436" stroke="#2e3436" stroke-width="2" points="67.5511,-36.765 66.8754,-44.9617 66.174,-40.2887 64.3594,-43.5704 63.9219,-43.3285 63.4843,-43.0865 65.2989,-39.8048 60.9683,-41.6953 67.5511,-36.765 67.5511,-36.765"/>
<text text-anchor="middle" x="72.209" y="-56.6" font-family="sans-serif" font-size="8.00" fill="#2e3436">KNOWS</text>
</g>
<!-- N2&#45;&gt;N4 -->
<g id="edge5" class="edge"><title>N2&#45;&gt;N4</title>
<path fill="none" stroke="#2e3436" stroke-width="2" d="M107.621,-81.2734C101.869,-69.6315 94.9065,-55.5418 89.085,-43.76"/>
<polygon fill="#2e3436" stroke="#2e3436" stroke-width="2" points="85.6286,-36.765 91.9769,-41.9939 87.7381,-39.9055 89.3994,-43.2675 88.9511,-43.489 88.5028,-43.7105 86.8416,-40.3485 85.9253,-44.9841 85.6286,-36.765 85.6286,-36.765"/>
<text text-anchor="middle" x="113.209" y="-56.6" font-family="sans-serif" font-size="8.00" fill="#2e3436">KNOWS</text>
</g>
</g>
</svg>
