<?xml version="1.0" encoding="UTF-8" standalone="no"?>
<!DOCTYPE svg PUBLIC "-//W3C//DTD SVG 1.1//EN"
 "http://www.w3.org/Graphics/SVG/1.1/DTD/svg11.dtd">
<!-- Generated by graphviz version 2.38.0 (20140413.2041)
 -->
<!-- Title: g Pages: 1 -->
<svg width="83pt" height="207pt"
 viewBox="0.00 0.00 82.86 207.00" xmlns="http://www.w3.org/2000/svg" xmlns:xlink="http://www.w3.org/1999/xlink">
<g id="graph0" class="graph" transform="scale(1 1) rotate(0) translate(4 203)">
<title>g</title>
<polygon fill="white" stroke="none" points="-4,4 -4,-203 78.8633,-203 78.8633,4 -4,4"/>
<!-- N0 -->
<g id="node1" class="node"><title>N0</title>
<path fill="#ffffff" stroke="#2e3436" stroke-width="1.5" d="M14.8906,-162.5C14.8906,-162.5 59.9727,-162.5 59.9727,-162.5 65.9727,-162.5 71.9727,-168.5 71.9727,-174.5 71.9727,-174.5 71.9727,-186.5 71.9727,-186.5 71.9727,-192.5 65.9727,-198.5 59.9727,-198.5 59.9727,-198.5 14.8906,-198.5 14.8906,-198.5 8.89062,-198.5 2.89062,-192.5 2.89062,-186.5 2.89062,-186.5 2.89062,-174.5 2.89062,-174.5 2.89062,-168.5 8.89062,-162.5 14.8906,-162.5"/>
<text text-anchor="middle" x="37.4316" y="-187.1" font-family="sans-serif" font-size="8.00" fill="#1c2021">User</text>
<polyline fill="none" stroke="#2e3436" stroke-width="1.5" points="2.89062,-180.5 71.9727,-180.5 "/>
<text text-anchor="start" x="10.8906" y="-169.1" font-family="sans-serif" font-size="8.00" fill="#1c2021">name = &#39;Adam&#39;</text>
</g>
<!-- N1 -->
<g id="node2" class="node"><title>N1</title>
<path fill="#ffffff" stroke="#2e3436" stroke-width="1.5" d="M12,-81.5C12,-81.5 62.8633,-81.5 62.8633,-81.5 68.8633,-81.5 74.8633,-87.5 74.8633,-93.5 74.8633,-93.5 74.8633,-105.5 74.8633,-105.5 74.8633,-111.5 68.8633,-117.5 62.8633,-117.5 62.8633,-117.5 12,-117.5 12,-117.5 6,-117.5 0,-111.5 0,-105.5 0,-105.5 0,-93.5 0,-93.5 0,-87.5 6,-81.5 12,-81.5"/>
<text text-anchor="middle" x="37.4316" y="-106.1" font-family="sans-serif" font-size="8.00" fill="#1c2021">User</text>
<polyline fill="none" stroke="#2e3436" stroke-width="1.5" points="0,-99.5 74.8633,-99.5 "/>
<text text-anchor="start" x="8" y="-88.1" font-family="sans-serif" font-size="8.00" fill="#1c2021">name = &#39;Pernilla&#39;</text>
</g>
<!-- N0&#45;&gt;N1 -->
<g id="edge1" class="edge"><title>N0&#45;&gt;N1</title>
<path fill="none" stroke="#2e3436" stroke-width="2" d="M37.4316,-162.358C37.4316,-151.488 37.4316,-137.25 37.4316,-125.174"/>
<polygon fill="#2e3436" stroke="#2e3436" stroke-width="2" points="37.4316,-117.608 40.8067,-125.108 37.9317,-121.358 37.9317,-125.108 37.4317,-125.108 36.9317,-125.108 36.9317,-121.358 34.0567,-125.108 37.4316,-117.608 37.4316,-117.608"/>
<text text-anchor="middle" x="52.3203" y="-137.6" font-family="sans-serif" font-size="8.00" fill="#2e3436">FRIEND</text>
</g>
<!-- N2 -->
<g id="node3" class="node"><title>N2</title>
<path fill="#ffffff" stroke="#2e3436" stroke-width="1.5" d="M15.1133,-0.5C15.1133,-0.5 59.75,-0.5 59.75,-0.5 65.75,-0.5 71.75,-6.5 71.75,-12.5 71.75,-12.5 71.75,-24.5 71.75,-24.5 71.75,-30.5 65.75,-36.5 59.75,-36.5 59.75,-36.5 15.1133,-36.5 15.1133,-36.5 9.11328,-36.5 3.11328,-30.5 3.11328,-24.5 3.11328,-24.5 3.11328,-12.5 3.11328,-12.5 3.11328,-6.5 9.11328,-0.5 15.1133,-0.5"/>
<text text-anchor="middle" x="37.4316" y="-25.1" font-family="sans-serif" font-size="8.00" fill="#1c2021">User</text>
<polyline fill="none" stroke="#2e3436" stroke-width="1.5" points="3.11328,-18.5 71.75,-18.5 "/>
<text text-anchor="start" x="11.1133" y="-7.1" font-family="sans-serif" font-size="8.00" fill="#1c2021">name = &#39;David&#39;</text>
</g>
<!-- N1&#45;&gt;N2 -->
<g id="edge2" class="edge"><title>N1&#45;&gt;N2</title>
<path fill="none" stroke="#2e3436" stroke-width="2" d="M37.4316,-81.3582C37.4316,-70.4883 37.4316,-56.2501 37.4316,-44.1744"/>
<polygon fill="#2e3436" stroke="#2e3436" stroke-width="2" points="37.4316,-36.6084 40.8067,-44.1083 37.9317,-40.3584 37.9317,-44.1084 37.4317,-44.1084 36.9317,-44.1084 36.9317,-40.3584 34.0567,-44.1084 37.4316,-36.6084 37.4316,-36.6084"/>
<text text-anchor="middle" x="52.3203" y="-56.6" font-family="sans-serif" font-size="8.00" fill="#2e3436">FRIEND</text>
</g>
</g>
</svg>
