<?xml version="1.0" encoding="UTF-8" standalone="no"?>
<!DOCTYPE svg PUBLIC "-//W3C//DTD SVG 1.1//EN"
 "http://www.w3.org/Graphics/SVG/1.1/DTD/svg11.dtd">
<!-- Generated by graphviz version 2.38.0 (20140413.2041)
 -->
<!-- Title: g Pages: 1 -->
<svg width="208pt" height="207pt"
 viewBox="0.00 0.00 208.00 207.00" xmlns="http://www.w3.org/2000/svg" xmlns:xlink="http://www.w3.org/1999/xlink">
<g id="graph0" class="graph" transform="scale(1 1) rotate(0) translate(4 203)">
<title>g</title>
<polygon fill="white" stroke="none" points="-4,4 -4,-203 204,-203 204,4 -4,4"/>
<!-- N0 -->
<g id="node1" class="node"><title>N0</title>
<path fill="#ffffff" stroke="#2e3436" stroke-width="1.5" d="M12,-81.5C12,-81.5 42,-81.5 42,-81.5 48,-81.5 54,-87.5 54,-93.5 54,-93.5 54,-105.5 54,-105.5 54,-111.5 48,-117.5 42,-117.5 42,-117.5 12,-117.5 12,-117.5 6,-117.5 0,-111.5 0,-105.5 0,-105.5 0,-93.5 0,-93.5 0,-87.5 6,-81.5 12,-81.5"/>
<text text-anchor="start" x="8" y="-97.1" font-family="sans-serif" font-size="8.00" fill="#1c2021">name = &#39;A&#39;</text>
</g>
<!-- N2 -->
<g id="node2" class="node"><title>N2</title>
<path fill="#ffffff" stroke="#2e3436" stroke-width="1.5" d="M63,-0.5C63,-0.5 93,-0.5 93,-0.5 99,-0.5 105,-6.5 105,-12.5 105,-12.5 105,-24.5 105,-24.5 105,-30.5 99,-36.5 93,-36.5 93,-36.5 63,-36.5 63,-36.5 57,-36.5 51,-30.5 51,-24.5 51,-24.5 51,-12.5 51,-12.5 51,-6.5 57,-0.5 63,-0.5"/>
<text text-anchor="start" x="59" y="-16.1" font-family="sans-serif" font-size="8.00" fill="#1c2021">name = &#39;C&#39;</text>
</g>
<!-- N0&#45;&gt;N2 -->
<g id="edge1" class="edge"><title>N0&#45;&gt;N2</title>
<path fill="none" stroke="#2e3436" stroke-width="2" d="M38.0662,-81.3582C45.284,-70.1777 54.8022,-55.4338 62.7356,-43.1448"/>
<polygon fill="#2e3436" stroke="#2e3436" stroke-width="2" points="66.9554,-36.6084 65.723,-44.74 65.3415,-40.0301 63.3076,-43.1806 62.8875,-42.9094 62.4675,-42.6382 64.5014,-39.4877 60.0521,-41.0789 66.9554,-36.6084 66.9554,-36.6084"/>
<text text-anchor="middle" x="70.1113" y="-56.6" font-family="sans-serif" font-size="8.00" fill="#2e3436">KNOWS</text>
</g>
<!-- N1 -->
<g id="node3" class="node"><title>N1</title>
<path fill="#ffffff" stroke="#2e3436" stroke-width="1.5" d="M158,-81.5C158,-81.5 188,-81.5 188,-81.5 194,-81.5 200,-87.5 200,-93.5 200,-93.5 200,-105.5 200,-105.5 200,-111.5 194,-117.5 188,-117.5 188,-117.5 158,-117.5 158,-117.5 152,-117.5 146,-111.5 146,-105.5 146,-105.5 146,-93.5 146,-93.5 146,-87.5 152,-81.5 158,-81.5"/>
<text text-anchor="start" x="154" y="-97.1" font-family="sans-serif" font-size="8.00" fill="#1c2021">name = &#39;B&#39;</text>
</g>
<!-- N3 -->
<g id="node4" class="node"><title>N3</title>
<path fill="#ffffff" stroke="#2e3436" stroke-width="1.5" d="M93.0156,-162.5C93.0156,-162.5 130.984,-162.5 130.984,-162.5 136.984,-162.5 142.984,-168.5 142.984,-174.5 142.984,-174.5 142.984,-186.5 142.984,-186.5 142.984,-192.5 136.984,-198.5 130.984,-198.5 130.984,-198.5 93.0156,-198.5 93.0156,-198.5 87.0156,-198.5 81.0156,-192.5 81.0156,-186.5 81.0156,-186.5 81.0156,-174.5 81.0156,-174.5 81.0156,-168.5 87.0156,-162.5 93.0156,-162.5"/>
<text text-anchor="start" x="89.0156" y="-178.1" font-family="sans-serif" font-size="8.00" fill="#1c2021">name = &#39;root&#39;</text>
</g>
<!-- N3&#45;&gt;N0 -->
<g id="edge4" class="edge"><title>N3&#45;&gt;N0</title>
<path fill="none" stroke="#4e9a06" stroke-width="2" d="M93.5563,-162.358C81.0811,-150.764 64.4826,-135.337 50.9827,-122.79"/>
<polygon fill="#4e9a06" stroke="#4e9a06" stroke-width="2" points="45.4077,-117.608 53.1991,-120.242 48.495,-119.795 51.2418,-122.348 50.9014,-122.714 50.561,-123.081 47.8142,-120.528 48.6038,-125.186 45.4077,-117.608 45.4077,-117.608"/>
<text text-anchor="middle" x="75.668" y="-137.6" font-family="sans-serif" font-size="8.00" fill="#4e9a06">X</text>
</g>
<!-- N3&#45;&gt;N2 -->
<g id="edge2" class="edge"><title>N3&#45;&gt;N2</title>
<path fill="none" stroke="#4e9a06" stroke-width="2" d="M110.429,-162.336C107.945,-138.092 102.298,-92.5817 92,-55 90.9757,-51.2621 89.6885,-47.3787 88.312,-43.6116"/>
<polygon fill="#4e9a06" stroke="#4e9a06" stroke-width="2" points="85.6005,-36.5793 91.4478,-42.3629 87.4162,-39.8983 88.7653,-43.3973 88.2988,-43.5771 87.8322,-43.757 86.4831,-40.2581 85.1497,-44.7913 85.6005,-36.5793 85.6005,-36.5793"/>
<text text-anchor="middle" x="106.668" y="-97.1" font-family="sans-serif" font-size="8.00" fill="#4e9a06">X</text>
</g>
<!-- N3&#45;&gt;N1 -->
<g id="edge3" class="edge"><title>N3&#45;&gt;N1</title>
<path fill="none" stroke="#4e9a06" stroke-width="2" d="M125.236,-162.358C133.949,-151.074 145.465,-136.16 155.006,-123.804"/>
<polygon fill="#4e9a06" stroke="#4e9a06" stroke-width="2" points="159.79,-117.608 157.877,-125.607 157.894,-120.882 155.602,-123.85 155.206,-123.545 154.81,-123.239 157.102,-120.271 152.535,-121.482 159.79,-117.608 159.79,-117.608"/>
<text text-anchor="middle" x="146.668" y="-137.6" font-family="sans-serif" font-size="8.00" fill="#4e9a06">X</text>
</g>
</g>
</svg>
