<?xml version="1.0" encoding="UTF-8" standalone="no"?>
<!DOCTYPE svg PUBLIC "-//W3C//DTD SVG 1.1//EN"
 "http://www.w3.org/Graphics/SVG/1.1/DTD/svg11.dtd">
<!-- Generated by graphviz version 2.38.0 (20140413.2041)
 -->
<!-- Title: g Pages: 1 -->
<svg width="248pt" height="134pt"
 viewBox="0.00 0.00 248.37 134.00" xmlns="http://www.w3.org/2000/svg" xmlns:xlink="http://www.w3.org/1999/xlink">
<g id="graph0" class="graph" transform="scale(1 1) rotate(0) translate(4 130)">
<title>g</title>
<polygon fill="white" stroke="none" points="-4,4 -4,-130 244.371,-130 244.371,4 -4,4"/>
<!-- N0 -->
<g id="node1" class="node"><title>N0</title>
<path fill="#ffffff" stroke="#2e3436" stroke-width="1.5" d="M66.9609,-85.5C66.9609,-85.5 109.379,-85.5 109.379,-85.5 115.379,-85.5 121.379,-91.5 121.379,-97.5 121.379,-97.5 121.379,-113.5 121.379,-113.5 121.379,-119.5 115.379,-125.5 109.379,-125.5 109.379,-125.5 66.9609,-125.5 66.9609,-125.5 60.9609,-125.5 54.9609,-119.5 54.9609,-113.5 54.9609,-113.5 54.9609,-97.5 54.9609,-97.5 54.9609,-91.5 60.9609,-85.5 66.9609,-85.5"/>
<text text-anchor="middle" x="88.1699" y="-115.1" font-family="sans-serif" font-size="8.00" fill="#1c2021">Person</text>
<polyline fill="none" stroke="#2e3436" stroke-width="1.5" points="54.9609,-109.5 121.379,-109.5 "/>
<text text-anchor="start" x="62.9609" y="-99.1" font-family="sans-serif" font-size="8.00" fill="#1c2021">name = &#39;Andy&#39;</text>
<text text-anchor="start" x="62.9609" y="-91.1" font-family="sans-serif" font-size="8.00" fill="#1c2021">age = 36</text>
</g>
<!-- N1 -->
<g id="node2" class="node"><title>N1</title>
<path fill="#ffffff" stroke="#2e3436" stroke-width="1.5" d="M12,-0.5C12,-0.5 64.3398,-0.5 64.3398,-0.5 70.3398,-0.5 76.3398,-6.5 76.3398,-12.5 76.3398,-12.5 76.3398,-28.5 76.3398,-28.5 76.3398,-34.5 70.3398,-40.5 64.3398,-40.5 64.3398,-40.5 12,-40.5 12,-40.5 6,-40.5 0,-34.5 0,-28.5 0,-28.5 0,-12.5 0,-12.5 0,-6.5 6,-0.5 12,-0.5"/>
<text text-anchor="middle" x="38.1699" y="-30.1" font-family="sans-serif" font-size="8.00" fill="#1c2021">Person</text>
<polyline fill="none" stroke="#2e3436" stroke-width="1.5" points="0,-24.5 76.3398,-24.5 "/>
<text text-anchor="start" x="8" y="-14.1" font-family="sans-serif" font-size="8.00" fill="#1c2021">name = &#39;Timothy&#39;</text>
<text text-anchor="start" x="8" y="-6.1" font-family="sans-serif" font-size="8.00" fill="#1c2021">age = 25</text>
</g>
<!-- N0&#45;&gt;N1 -->
<g id="edge1" class="edge"><title>N0&#45;&gt;N1</title>
<path fill="none" stroke="#2e3436" stroke-width="2" d="M76.5732,-85.2495C69.7577,-73.9358 61.0553,-59.4898 53.6585,-47.211"/>
<polygon fill="#2e3436" stroke="#2e3436" stroke-width="2" points="49.7037,-40.6461 56.4648,-45.3289 52.0671,-43.6003 54.0021,-46.8125 53.5739,-47.0705 53.1456,-47.3285 51.2105,-44.1163 50.6829,-48.812 49.7037,-40.6461 49.7037,-40.6461"/>
<text text-anchor="middle" x="80.2812" y="-60.6" font-family="sans-serif" font-size="8.00" fill="#2e3436">KNOWS</text>
</g>
<!-- N2 -->
<g id="node3" class="node"><title>N2</title>
<path fill="#ffffff" stroke="#2e3436" stroke-width="1.5" d="M117.518,-0.5C117.518,-0.5 160.822,-0.5 160.822,-0.5 166.822,-0.5 172.822,-6.5 172.822,-12.5 172.822,-12.5 172.822,-28.5 172.822,-28.5 172.822,-34.5 166.822,-40.5 160.822,-40.5 160.822,-40.5 117.518,-40.5 117.518,-40.5 111.518,-40.5 105.518,-34.5 105.518,-28.5 105.518,-28.5 105.518,-12.5 105.518,-12.5 105.518,-6.5 111.518,-0.5 117.518,-0.5"/>
<text text-anchor="middle" x="139.17" y="-30.1" font-family="sans-serif" font-size="8.00" fill="#1c2021">Person</text>
<polyline fill="none" stroke="#2e3436" stroke-width="1.5" points="105.518,-24.5 172.822,-24.5 "/>
<text text-anchor="start" x="113.518" y="-14.1" font-family="sans-serif" font-size="8.00" fill="#1c2021">name = &#39;Peter&#39;</text>
<text text-anchor="start" x="113.518" y="-6.1" font-family="sans-serif" font-size="8.00" fill="#1c2021">age = 34</text>
</g>
<!-- N0&#45;&gt;N2 -->
<g id="edge2" class="edge"><title>N0&#45;&gt;N2</title>
<path fill="none" stroke="#2e3436" stroke-width="2" d="M99.9985,-85.2495C106.95,-73.9358 115.827,-59.4898 123.372,-47.211"/>
<polygon fill="#2e3436" stroke="#2e3436" stroke-width="2" points="127.405,-40.6461 126.355,-48.8031 125.868,-44.1029 123.905,-47.298 123.479,-47.0362 123.053,-46.7744 125.016,-43.5794 120.603,-45.2693 127.405,-40.6461 127.405,-40.6461"/>
<text text-anchor="middle" x="131.281" y="-60.6" font-family="sans-serif" font-size="8.00" fill="#2e3436">KNOWS</text>
</g>
<!-- N3 -->
<g id="node4" class="node"><title>N3</title>
<path fill="#ffffff" stroke="#2e3436" stroke-width="1.5" d="M161.969,-87.5C161.969,-87.5 228.371,-87.5 228.371,-87.5 234.371,-87.5 240.371,-93.5 240.371,-99.5 240.371,-99.5 240.371,-111.5 240.371,-111.5 240.371,-117.5 234.371,-123.5 228.371,-123.5 228.371,-123.5 161.969,-123.5 161.969,-123.5 155.969,-123.5 149.969,-117.5 149.969,-111.5 149.969,-111.5 149.969,-99.5 149.969,-99.5 149.969,-93.5 155.969,-87.5 161.969,-87.5"/>
<text text-anchor="middle" x="195.17" y="-112.1" font-family="sans-serif" font-size="8.00" fill="#1c2021">Person</text>
<polyline fill="none" stroke="#2e3436" stroke-width="1.5" points="149.969,-105.5 240.371,-105.5 "/>
<text text-anchor="start" x="157.969" y="-94.1" font-family="sans-serif" font-size="8.00" fill="#1c2021">name = &#39;UNKNOWN&#39;</text>
</g>
</g>
</svg>
