<?xml version="1.0" encoding="UTF-8" standalone="no"?>
<!DOCTYPE svg PUBLIC "-//W3C//DTD SVG 1.1//EN"
 "http://www.w3.org/Graphics/SVG/1.1/DTD/svg11.dtd">
<!-- Generated by graphviz version 2.38.0 (20140413.2041)
 -->
<!-- Title: g Pages: 1 -->
<svg width="173pt" height="207pt"
 viewBox="0.00 0.00 173.41 207.00" xmlns="http://www.w3.org/2000/svg" xmlns:xlink="http://www.w3.org/1999/xlink">
<g id="graph0" class="graph" transform="scale(1 1) rotate(0) translate(4 203)">
<title>g</title>
<polygon fill="white" stroke="none" points="-4,4 -4,-203 169.414,-203 169.414,4 -4,4"/>
<!-- N0 -->
<g id="node1" class="node"><title>N0</title>
<path fill="#ffffff" stroke="#2e3436" stroke-width="1.5" d="M17.7793,-81.5C17.7793,-81.5 54.8613,-81.5 54.8613,-81.5 60.8613,-81.5 66.8613,-87.5 66.8613,-93.5 66.8613,-93.5 66.8613,-105.5 66.8613,-105.5 66.8613,-111.5 60.8613,-117.5 54.8613,-117.5 54.8613,-117.5 17.7793,-117.5 17.7793,-117.5 11.7793,-117.5 5.7793,-111.5 5.7793,-105.5 5.7793,-105.5 5.7793,-93.5 5.7793,-93.5 5.7793,-87.5 11.7793,-81.5 17.7793,-81.5"/>
<text text-anchor="start" x="13.7793" y="-97.1" font-family="sans-serif" font-size="8.00" fill="#1c2021">name = &#39;Joe&#39;</text>
</g>
<!-- N1 -->
<g id="node2" class="node"><title>N1</title>
<path fill="#ffffff" stroke="#2e3436" stroke-width="1.5" d="M12,-0.5C12,-0.5 56.6406,-0.5 56.6406,-0.5 62.6406,-0.5 68.6406,-6.5 68.6406,-12.5 68.6406,-12.5 68.6406,-24.5 68.6406,-24.5 68.6406,-30.5 62.6406,-36.5 56.6406,-36.5 56.6406,-36.5 12,-36.5 12,-36.5 6,-36.5 0,-30.5 0,-24.5 0,-24.5 0,-12.5 0,-12.5 0,-6.5 6,-0.5 12,-0.5"/>
<text text-anchor="start" x="8" y="-16.1" font-family="sans-serif" font-size="8.00" fill="#1c2021">name = &#39;Steve&#39;</text>
</g>
<!-- N0&#45;&gt;N1 -->
<g id="edge1" class="edge"><title>N0&#45;&gt;N1</title>
<path fill="none" stroke="#2e3436" stroke-width="2" d="M35.8863,-81.3582C35.6112,-70.4883 35.2507,-56.2501 34.945,-44.1744"/>
<polygon fill="#2e3436" stroke="#2e3436" stroke-width="2" points="34.7534,-36.6084 38.3173,-44.0205 35.3482,-40.3445 35.4432,-44.0933 34.9433,-44.106 34.4435,-44.1186 34.3486,-40.3698 31.5694,-44.1914 34.7534,-36.6084 34.7534,-36.6084"/>
<text text-anchor="middle" x="46.3262" y="-56.6" font-family="sans-serif" font-size="8.00" fill="#2e3436">friend</text>
</g>
<!-- N2 -->
<g id="node3" class="node"><title>N2</title>
<path fill="#ffffff" stroke="#2e3436" stroke-width="1.5" d="M67.5547,-162.5C67.5547,-162.5 109.086,-162.5 109.086,-162.5 115.086,-162.5 121.086,-168.5 121.086,-174.5 121.086,-174.5 121.086,-186.5 121.086,-186.5 121.086,-192.5 115.086,-198.5 109.086,-198.5 109.086,-198.5 67.5547,-198.5 67.5547,-198.5 61.5547,-198.5 55.5547,-192.5 55.5547,-186.5 55.5547,-186.5 55.5547,-174.5 55.5547,-174.5 55.5547,-168.5 61.5547,-162.5 67.5547,-162.5"/>
<text text-anchor="start" x="63.5547" y="-178.1" font-family="sans-serif" font-size="8.00" fill="#1c2021">name = &#39;John&#39;</text>
</g>
<!-- N2&#45;&gt;N0 -->
<g id="edge3" class="edge"><title>N2&#45;&gt;N0</title>
<path fill="none" stroke="#2e3436" stroke-width="2" d="M77.0371,-162.358C69.6778,-151.178 59.9729,-136.434 51.884,-124.145"/>
<polygon fill="#2e3436" stroke="#2e3436" stroke-width="2" points="47.5815,-117.608 54.5242,-122.017 50.061,-120.466 52.1228,-123.598 51.7051,-123.873 51.2875,-124.148 49.2257,-121.016 48.886,-125.729 47.5815,-117.608 47.5815,-117.608"/>
<text text-anchor="middle" x="74.3262" y="-137.6" font-family="sans-serif" font-size="8.00" fill="#2e3436">friend</text>
</g>
<!-- N3 -->
<g id="node4" class="node"><title>N3</title>
<path fill="#ffffff" stroke="#2e3436" stroke-width="1.5" d="M109.779,-81.5C109.779,-81.5 150.861,-81.5 150.861,-81.5 156.861,-81.5 162.861,-87.5 162.861,-93.5 162.861,-93.5 162.861,-105.5 162.861,-105.5 162.861,-111.5 156.861,-117.5 150.861,-117.5 150.861,-117.5 109.779,-117.5 109.779,-117.5 103.779,-117.5 97.7793,-111.5 97.7793,-105.5 97.7793,-105.5 97.7793,-93.5 97.7793,-93.5 97.7793,-87.5 103.779,-81.5 109.779,-81.5"/>
<text text-anchor="start" x="105.779" y="-97.1" font-family="sans-serif" font-size="8.00" fill="#1c2021">name = &#39;Sara&#39;</text>
</g>
<!-- N2&#45;&gt;N3 -->
<g id="edge2" class="edge"><title>N2&#45;&gt;N3</title>
<path fill="none" stroke="#2e3436" stroke-width="2" d="M97.4337,-162.358C103.323,-151.281 111.071,-136.707 117.568,-124.487"/>
<polygon fill="#2e3436" stroke="#2e3436" stroke-width="2" points="121.225,-117.608 120.684,-125.815 119.906,-121.154 118.145,-124.465 117.704,-124.231 117.262,-123.996 119.023,-120.685 114.724,-122.646 121.225,-117.608 121.225,-117.608"/>
<text text-anchor="middle" x="120.326" y="-137.6" font-family="sans-serif" font-size="8.00" fill="#2e3436">friend</text>
</g>
<!-- N4 -->
<g id="node5" class="node"><title>N4</title>
<path fill="#ffffff" stroke="#2e3436" stroke-width="1.5" d="M109.227,-0.5C109.227,-0.5 153.414,-0.5 153.414,-0.5 159.414,-0.5 165.414,-6.5 165.414,-12.5 165.414,-12.5 165.414,-24.5 165.414,-24.5 165.414,-30.5 159.414,-36.5 153.414,-36.5 153.414,-36.5 109.227,-36.5 109.227,-36.5 103.227,-36.5 97.2266,-30.5 97.2266,-24.5 97.2266,-24.5 97.2266,-12.5 97.2266,-12.5 97.2266,-6.5 103.227,-0.5 109.227,-0.5"/>
<text text-anchor="start" x="105.227" y="-16.1" font-family="sans-serif" font-size="8.00" fill="#1c2021">name = &#39;Maria&#39;</text>
</g>
<!-- N3&#45;&gt;N4 -->
<g id="edge4" class="edge"><title>N3&#45;&gt;N4</title>
<path fill="none" stroke="#2e3436" stroke-width="2" d="M130.537,-81.3582C130.675,-70.4883 130.855,-56.2501 131.008,-44.1744"/>
<polygon fill="#2e3436" stroke="#2e3436" stroke-width="2" points="131.104,-36.6084 134.383,-44.1505 131.556,-40.3644 131.509,-44.1141 131.009,-44.1078 130.509,-44.1014 130.556,-40.3517 127.634,-44.065 131.104,-36.6084 131.104,-36.6084"/>
<text text-anchor="middle" x="140.326" y="-56.6" font-family="sans-serif" font-size="8.00" fill="#2e3436">friend</text>
</g>
</g>
</svg>
