<?xml version="1.0" encoding="UTF-8" standalone="no"?>
<!DOCTYPE svg PUBLIC "-//W3C//DTD SVG 1.1//EN"
 "http://www.w3.org/Graphics/SVG/1.1/DTD/svg11.dtd">
<!-- Generated by graphviz version 2.38.0 (20140413.2041)
 -->
<!-- Title: g Pages: 1 -->
<svg width="65pt" height="288pt"
 viewBox="0.00 0.00 65.22 288.00" xmlns="http://www.w3.org/2000/svg" xmlns:xlink="http://www.w3.org/1999/xlink">
<g id="graph0" class="graph" transform="scale(1 1) rotate(0) translate(4 284)">
<title>g</title>
<polygon fill="white" stroke="none" points="-4,4 -4,-284 61.2227,-284 61.2227,4 -4,4"/>
<!-- N0 -->
<g id="node1" class="node"><title>N0</title>
<path fill="#ffffff" stroke="#2e3436" stroke-width="1.5" d="M12,-243.5C12,-243.5 42,-243.5 42,-243.5 48,-243.5 54,-249.5 54,-255.5 54,-255.5 54,-267.5 54,-267.5 54,-273.5 48,-279.5 42,-279.5 42,-279.5 12,-279.5 12,-279.5 6,-279.5 0,-273.5 0,-267.5 0,-267.5 0,-255.5 0,-255.5 0,-249.5 6,-243.5 12,-243.5"/>
<text text-anchor="middle" x="26.7598" y="-268.1" font-family="sans-serif" font-size="8.00" fill="#1c2021">Person</text>
<polyline fill="none" stroke="#2e3436" stroke-width="1.5" points="0,-261.5 53.5195,-261.5 "/>
<text text-anchor="start" x="8" y="-250.1" font-family="sans-serif" font-size="8.00" fill="#1c2021">name = &#39;A&#39;</text>
</g>
<!-- N1 -->
<g id="node2" class="node"><title>N1</title>
<path fill="#ffffff" stroke="#2e3436" stroke-width="1.5" d="M12,-162.5C12,-162.5 42,-162.5 42,-162.5 48,-162.5 54,-168.5 54,-174.5 54,-174.5 54,-186.5 54,-186.5 54,-192.5 48,-198.5 42,-198.5 42,-198.5 12,-198.5 12,-198.5 6,-198.5 0,-192.5 0,-186.5 0,-186.5 0,-174.5 0,-174.5 0,-168.5 6,-162.5 12,-162.5"/>
<text text-anchor="middle" x="26.7598" y="-187.1" font-family="sans-serif" font-size="8.00" fill="#1c2021">Person</text>
<polyline fill="none" stroke="#2e3436" stroke-width="1.5" points="0,-180.5 53.5195,-180.5 "/>
<text text-anchor="start" x="8" y="-169.1" font-family="sans-serif" font-size="8.00" fill="#1c2021">name = &#39;B&#39;</text>
</g>
<!-- N0&#45;&gt;N1 -->
<g id="edge1" class="edge"><title>N0&#45;&gt;N1</title>
<path fill="none" stroke="#2e3436" stroke-width="2" d="M27,-243.358C27,-232.488 27,-218.25 27,-206.174"/>
<polygon fill="#2e3436" stroke="#2e3436" stroke-width="2" points="27,-198.608 30.3751,-206.108 27.5,-202.358 27.5001,-206.108 27.0001,-206.108 26.5001,-206.108 26.5,-202.358 23.6251,-206.108 27,-198.608 27,-198.608"/>
<text text-anchor="middle" x="42.1113" y="-218.6" font-family="sans-serif" font-size="8.00" fill="#2e3436">KNOWS</text>
</g>
<!-- N2 -->
<g id="node3" class="node"><title>N2</title>
<path fill="#ffffff" stroke="#2e3436" stroke-width="1.5" d="M12,-81.5C12,-81.5 42,-81.5 42,-81.5 48,-81.5 54,-87.5 54,-93.5 54,-93.5 54,-105.5 54,-105.5 54,-111.5 48,-117.5 42,-117.5 42,-117.5 12,-117.5 12,-117.5 6,-117.5 0,-111.5 0,-105.5 0,-105.5 0,-93.5 0,-93.5 0,-87.5 6,-81.5 12,-81.5"/>
<text text-anchor="middle" x="26.9805" y="-106.1" font-family="sans-serif" font-size="8.00" fill="#1c2021">Person</text>
<polyline fill="none" stroke="#2e3436" stroke-width="1.5" points="0,-99.5 53.9609,-99.5 "/>
<text text-anchor="start" x="8" y="-88.1" font-family="sans-serif" font-size="8.00" fill="#1c2021">name = &#39;C&#39;</text>
</g>
<!-- N1&#45;&gt;N2 -->
<g id="edge2" class="edge"><title>N1&#45;&gt;N2</title>
<path fill="none" stroke="#2e3436" stroke-width="2" d="M27,-162.358C27,-151.488 27,-137.25 27,-125.174"/>
<polygon fill="#2e3436" stroke="#2e3436" stroke-width="2" points="27,-117.608 30.3751,-125.108 27.5,-121.358 27.5001,-125.108 27.0001,-125.108 26.5001,-125.108 26.5,-121.358 23.6251,-125.108 27,-117.608 27,-117.608"/>
<text text-anchor="middle" x="42.1113" y="-137.6" font-family="sans-serif" font-size="8.00" fill="#2e3436">KNOWS</text>
</g>
<!-- N3 -->
<g id="node4" class="node"><title>N3</title>
<path fill="#ffffff" stroke="#2e3436" stroke-width="1.5" d="M12,-0.5C12,-0.5 42,-0.5 42,-0.5 48,-0.5 54,-6.5 54,-12.5 54,-12.5 54,-24.5 54,-24.5 54,-30.5 48,-36.5 42,-36.5 42,-36.5 12,-36.5 12,-36.5 6,-36.5 0,-30.5 0,-24.5 0,-24.5 0,-12.5 0,-12.5 0,-6.5 6,-0.5 12,-0.5"/>
<text text-anchor="middle" x="26.9805" y="-25.1" font-family="sans-serif" font-size="8.00" fill="#1c2021">Person</text>
<polyline fill="none" stroke="#2e3436" stroke-width="1.5" points="0,-18.5 53.9609,-18.5 "/>
<text text-anchor="start" x="8" y="-7.1" font-family="sans-serif" font-size="8.00" fill="#1c2021">name = &#39;D&#39;</text>
</g>
<!-- N2&#45;&gt;N3 -->
<g id="edge3" class="edge"><title>N2&#45;&gt;N3</title>
<path fill="none" stroke="#2e3436" stroke-width="2" d="M27,-81.3582C27,-70.4883 27,-56.2501 27,-44.1744"/>
<polygon fill="#2e3436" stroke="#2e3436" stroke-width="2" points="27,-36.6084 30.3751,-44.1083 27.5,-40.3584 27.5001,-44.1084 27.0001,-44.1084 26.5001,-44.1084 26.5,-40.3584 23.6251,-44.1084 27,-36.6084 27,-36.6084"/>
<text text-anchor="middle" x="42.1113" y="-56.6" font-family="sans-serif" font-size="8.00" fill="#2e3436">KNOWS</text>
</g>
</g>
</svg>
