<?xml version="1.0" encoding="UTF-8" standalone="no"?>
<!DOCTYPE svg PUBLIC "-//W3C//DTD SVG 1.1//EN"
 "http://www.w3.org/Graphics/SVG/1.1/DTD/svg11.dtd">
<!-- Generated by graphviz version 2.38.0 (20140413.2041)
 -->
<!-- Title: g Pages: 1 -->
<svg width="368pt" height="134pt"
 viewBox="0.00 0.00 367.71 134.00" xmlns="http://www.w3.org/2000/svg" xmlns:xlink="http://www.w3.org/1999/xlink">
<g id="graph0" class="graph" transform="scale(1 1) rotate(0) translate(4 130)">
<title>g</title>
<polygon fill="white" stroke="none" points="-4,4 -4,-130 363.711,-130 363.711,4 -4,4"/>
<!-- N0 -->
<g id="node1" class="node"><title>N0</title>
<path fill="#ffffff" stroke="#2e3436" stroke-width="1.5" d="M190.844,-85.5C190.844,-85.5 302.605,-85.5 302.605,-85.5 308.605,-85.5 314.605,-91.5 314.605,-97.5 314.605,-97.5 314.605,-113.5 314.605,-113.5 314.605,-119.5 308.605,-125.5 302.605,-125.5 302.605,-125.5 190.844,-125.5 190.844,-125.5 184.844,-125.5 178.844,-119.5 178.844,-113.5 178.844,-113.5 178.844,-97.5 178.844,-97.5 178.844,-91.5 184.844,-85.5 190.844,-85.5"/>
<text text-anchor="middle" x="246.725" y="-115.1" font-family="sans-serif" font-size="8.00" fill="#1c2021">Person</text>
<polyline fill="none" stroke="#2e3436" stroke-width="1.5" points="178.844,-109.5 314.605,-109.5 "/>
<text text-anchor="start" x="186.844" y="-99.1" font-family="sans-serif" font-size="8.00" fill="#1c2021">name = &#39;Charlie Sheen&#39;</text>
<text text-anchor="start" x="186.844" y="-91.1" font-family="sans-serif" font-size="8.00" fill="#1c2021">realName = &#39;Carlos Irwin Estévez&#39;</text>
</g>
<!-- N4 -->
<g id="node2" class="node"><title>N4</title>
<path fill="#ffffff" stroke="#2e3436" stroke-width="1.5" d="M149.621,-0.5C149.621,-0.5 225.828,-0.5 225.828,-0.5 231.828,-0.5 237.828,-6.5 237.828,-12.5 237.828,-12.5 237.828,-28.5 237.828,-28.5 237.828,-34.5 231.828,-40.5 225.828,-40.5 225.828,-40.5 149.621,-40.5 149.621,-40.5 143.621,-40.5 137.621,-34.5 137.621,-28.5 137.621,-28.5 137.621,-12.5 137.621,-12.5 137.621,-6.5 143.621,-0.5 149.621,-0.5"/>
<text text-anchor="middle" x="187.725" y="-30.1" font-family="sans-serif" font-size="8.00" fill="#1c2021">Movie</text>
<polyline fill="none" stroke="#2e3436" stroke-width="1.5" points="137.621,-24.5 237.828,-24.5 "/>
<text text-anchor="start" x="145.621" y="-14.1" font-family="sans-serif" font-size="8.00" fill="#1c2021">year = 1979</text>
<text text-anchor="start" x="145.621" y="-6.1" font-family="sans-serif" font-size="8.00" fill="#1c2021">title = &#39;Apocalypse Now&#39;</text>
</g>
<!-- N0&#45;&gt;N4 -->
<g id="edge1" class="edge"><title>N0&#45;&gt;N4</title>
<path fill="none" stroke="#2e3436" stroke-width="2" d="M233.041,-85.2495C224.924,-73.831 214.539,-59.222 205.759,-46.8705"/>
<polygon fill="#2e3436" stroke="#2e3436" stroke-width="2" points="201.334,-40.6461 208.431,-44.8036 203.915,-43.4129 206.087,-46.4694 205.68,-46.759 205.272,-47.0487 203.1,-43.9923 202.929,-48.7145 201.334,-40.6461 201.334,-40.6461"/>
<text text-anchor="middle" x="239.506" y="-60.6" font-family="sans-serif" font-size="8.00" fill="#2e3436">ACTED_IN</text>
</g>
<!-- N3 -->
<g id="node3" class="node"><title>N3</title>
<path fill="#ffffff" stroke="#2e3436" stroke-width="1.5" d="M293.738,-0.5C293.738,-0.5 347.711,-0.5 347.711,-0.5 353.711,-0.5 359.711,-6.5 359.711,-12.5 359.711,-12.5 359.711,-28.5 359.711,-28.5 359.711,-34.5 353.711,-40.5 347.711,-40.5 347.711,-40.5 293.738,-40.5 293.738,-40.5 287.738,-40.5 281.738,-34.5 281.738,-28.5 281.738,-28.5 281.738,-12.5 281.738,-12.5 281.738,-6.5 287.738,-0.5 293.738,-0.5"/>
<text text-anchor="middle" x="320.725" y="-30.1" font-family="sans-serif" font-size="8.00" fill="#1c2021">Movie</text>
<polyline fill="none" stroke="#2e3436" stroke-width="1.5" points="281.738,-24.5 359.711,-24.5 "/>
<text text-anchor="start" x="289.738" y="-14.1" font-family="sans-serif" font-size="8.00" fill="#1c2021">year = 1984</text>
<text text-anchor="start" x="289.738" y="-6.1" font-family="sans-serif" font-size="8.00" fill="#1c2021">title = &#39;Red Dawn&#39;</text>
</g>
<!-- N0&#45;&gt;N3 -->
<g id="edge2" class="edge"><title>N0&#45;&gt;N3</title>
<path fill="none" stroke="#2e3436" stroke-width="2" d="M263.888,-85.2495C274.161,-73.7263 287.332,-58.9537 298.408,-46.5311"/>
<polygon fill="#2e3436" stroke="#2e3436" stroke-width="2" points="303.655,-40.6461 301.183,-48.4902 301.532,-43.7779 299.037,-46.577 298.663,-46.2442 298.29,-45.9115 300.786,-43.1124 296.144,-43.9982 303.655,-40.6461 303.655,-40.6461"/>
<text text-anchor="middle" x="306.506" y="-60.6" font-family="sans-serif" font-size="8.00" fill="#2e3436">ACTED_IN</text>
</g>
<!-- N2 -->
<g id="node4" class="node"><title>N2</title>
<path fill="#ffffff" stroke="#2e3436" stroke-width="1.5" d="M12,-0.5C12,-0.5 67.4492,-0.5 67.4492,-0.5 73.4492,-0.5 79.4492,-6.5 79.4492,-12.5 79.4492,-12.5 79.4492,-28.5 79.4492,-28.5 79.4492,-34.5 73.4492,-40.5 67.4492,-40.5 67.4492,-40.5 12,-40.5 12,-40.5 6,-40.5 0,-34.5 0,-28.5 0,-28.5 0,-12.5 0,-12.5 0,-6.5 6,-0.5 12,-0.5"/>
<text text-anchor="middle" x="39.7246" y="-30.1" font-family="sans-serif" font-size="8.00" fill="#1c2021">Movie</text>
<polyline fill="none" stroke="#2e3436" stroke-width="1.5" points="0,-24.5 79.4492,-24.5 "/>
<text text-anchor="start" x="8" y="-14.1" font-family="sans-serif" font-size="8.00" fill="#1c2021">year = 1987</text>
<text text-anchor="start" x="8" y="-6.1" font-family="sans-serif" font-size="8.00" fill="#1c2021">title = &#39;Wall Street&#39;</text>
</g>
<!-- N0&#45;&gt;N2 -->
<g id="edge3" class="edge"><title>N0&#45;&gt;N2</title>
<path fill="none" stroke="#2e3436" stroke-width="2" d="M203.172,-85.4751C183.821,-77.1531 160.717,-67.3948 139.725,-59 122.552,-52.1325 103.579,-44.9234 86.8162,-38.6815"/>
<polygon fill="#2e3436" stroke="#2e3436" stroke-width="2" points="79.7792,-36.0694 87.9849,-35.5153 83.4688,-36.9056 86.9844,-38.2106 86.8104,-38.6794 86.6364,-39.1481 83.1208,-37.8431 85.636,-41.8435 79.7792,-36.0694 79.7792,-36.0694"/>
<text text-anchor="middle" x="177.506" y="-60.6" font-family="sans-serif" font-size="8.00" fill="#2e3436">ACTED_IN</text>
</g>
<!-- N1 -->
<g id="node5" class="node"><title>N1</title>
<path fill="#ffffff" stroke="#2e3436" stroke-width="1.5" d="M25.8418,-87.5C25.8418,-87.5 97.6074,-87.5 97.6074,-87.5 103.607,-87.5 109.607,-93.5 109.607,-99.5 109.607,-99.5 109.607,-111.5 109.607,-111.5 109.607,-117.5 103.607,-123.5 97.6074,-123.5 97.6074,-123.5 25.8418,-123.5 25.8418,-123.5 19.8418,-123.5 13.8418,-117.5 13.8418,-111.5 13.8418,-111.5 13.8418,-99.5 13.8418,-99.5 13.8418,-93.5 19.8418,-87.5 25.8418,-87.5"/>
<text text-anchor="middle" x="61.7246" y="-112.1" font-family="sans-serif" font-size="8.00" fill="#1c2021">Person</text>
<polyline fill="none" stroke="#2e3436" stroke-width="1.5" points="13.8418,-105.5 109.607,-105.5 "/>
<text text-anchor="start" x="21.8418" y="-94.1" font-family="sans-serif" font-size="8.00" fill="#1c2021">name = &#39;Martin Sheen&#39;</text>
</g>
<!-- N1&#45;&gt;N4 -->
<g id="edge4" class="edge"><title>N1&#45;&gt;N4</title>
<path fill="none" stroke="#2e3436" stroke-width="2" d="M72.0939,-87.1298C78.3838,-77.785 87.1253,-66.6433 97.1621,-59 107.028,-51.4866 118.616,-45.212 130.146,-40.0798"/>
<polygon fill="#2e3436" stroke="#2e3436" stroke-width="2" points="137.301,-37.031 131.725,-43.0759 134.048,-38.961 130.598,-40.4309 130.402,-39.9709 130.206,-39.511 133.656,-38.041 129.079,-36.866 137.301,-37.031 137.301,-37.031"/>
<text text-anchor="middle" x="117.506" y="-60.6" font-family="sans-serif" font-size="8.00" fill="#2e3436">ACTED_IN</text>
</g>
<!-- N1&#45;&gt;N2 -->
<g id="edge5" class="edge"><title>N1&#45;&gt;N2</title>
<path fill="none" stroke="#2e3436" stroke-width="2" d="M38.2348,-87.4118C32.1697,-81.6755 26.4326,-74.7422 23.1621,-67 20.5759,-60.8775 21.1668,-54.1969 23.2192,-47.8869"/>
<polygon fill="#2e3436" stroke="#2e3436" stroke-width="2" points="26.197,-40.7054 26.4419,-48.9262 25.2225,-44.3609 23.7861,-47.825 23.3242,-47.6334 22.8624,-47.4419 24.2987,-43.9779 20.2066,-46.3407 26.197,-40.7054 26.197,-40.7054"/>
<text text-anchor="middle" x="43.5059" y="-60.6" font-family="sans-serif" font-size="8.00" fill="#2e3436">ACTED_IN</text>
</g>
</g>
</svg>
