<?xml version="1.0" encoding="UTF-8" standalone="no"?>
<!DOCTYPE svg PUBLIC "-//W3C//DTD SVG 1.1//EN"
 "http://www.w3.org/Graphics/SVG/1.1/DTD/svg11.dtd">
<!-- Generated by graphviz version 2.38.0 (20140413.2041)
 -->
<!-- Title: g Pages: 1 -->
<svg width="504pt" height="64pt"
 viewBox="0.00 0.00 504.00 64.38" xmlns="http://www.w3.org/2000/svg" xmlns:xlink="http://www.w3.org/1999/xlink">
<g id="graph0" class="graph" transform="scale(0.480455 0.480455) rotate(0) translate(4 130)">
<title>g</title>
<polygon fill="white" stroke="none" points="-4,4 -4,-130 1045.01,-130 1045.01,4 -4,4"/>
<!-- N0 -->
<g id="node1" class="node"><title>N0</title>
<path fill="#ffffff" stroke="#2e3436" stroke-width="1.5" d="M53.2404,-89.5C53.2404,-89.5 128.123,-89.5 128.123,-89.5 134.123,-89.5 140.123,-95.5 140.123,-101.5 140.123,-101.5 140.123,-113.5 140.123,-113.5 140.123,-119.5 134.123,-125.5 128.123,-125.5 128.123,-125.5 53.2404,-125.5 53.2404,-125.5 47.2404,-125.5 41.2404,-119.5 41.2404,-113.5 41.2404,-113.5 41.2404,-101.5 41.2404,-101.5 41.2404,-95.5 47.2404,-89.5 53.2404,-89.5"/>
<text text-anchor="middle" x="90.6818" y="-114.1" font-family="sans-serif" font-size="8.00" fill="#1c2021">Person</text>
<polyline fill="none" stroke="#2e3436" stroke-width="1.5" points="41.2404,-107.5 140.123,-107.5 "/>
<text text-anchor="start" x="49.2404" y="-96.1" font-family="sans-serif" font-size="8.00" fill="#1c2021">name = &#39;Charlie Sheen&#39;</text>
</g>
<!-- N21 -->
<g id="node2" class="node"><title>N21</title>
<path fill="#ffffff" stroke="#2e3436" stroke-width="1.5" d="M77.5646,-0.5C77.5646,-0.5 107.799,-0.5 107.799,-0.5 113.799,-0.5 119.799,-6.5 119.799,-12.5 119.799,-12.5 119.799,-24.5 119.799,-24.5 119.799,-30.5 113.799,-36.5 107.799,-36.5 107.799,-36.5 77.5646,-36.5 77.5646,-36.5 71.5646,-36.5 65.5646,-30.5 65.5646,-24.5 65.5646,-24.5 65.5646,-12.5 65.5646,-12.5 65.5646,-6.5 71.5646,-0.5 77.5646,-0.5"/>
<text text-anchor="middle" x="92.6818" y="-25.1" font-family="sans-serif" font-size="8.00" fill="#1c2021">BLOCKED</text>
<polyline fill="none" stroke="#2e3436" stroke-width="1.5" points="65.5646,-18.5 119.799,-18.5 "/>
<text text-anchor="middle" x="92.6818" y="-7.1" font-family="sans-serif" font-size="8.00" fill="#1c2021"> </text>
</g>
<!-- N0&#45;&gt;N21 -->
<g id="edge1" class="edge"><title>N0&#45;&gt;N21</title>
<path fill="none" stroke="#2e3436" stroke-width="2" d="M40.9594,-95.5907C15.0359,-87.4 -8.81378,-74.2515 4.2052,-55 16.1554,-37.3289 38.5003,-28.4529 57.7435,-23.9952"/>
<polygon fill="#2e3436" stroke="#2e3436" stroke-width="2" points="65.2113,-22.4433 58.5549,-27.2738 61.6414,-23.6959 57.9699,-24.4589 57.8681,-23.9694 57.7664,-23.4799 61.438,-22.7168 57.1814,-20.665 65.2113,-22.4433 65.2113,-22.4433"/>
<text text-anchor="middle" x="29.92" y="-64.6" font-family="sans-serif" font-size="8.00" fill="#2e3436">X</text>
<text text-anchor="start" x="4.68176" y="-56.6" font-family="sans-serif" font-size="8.00" fill="#2e3436">blocked = true</text>
</g>
<!-- N20 -->
<g id="node3" class="node"><title>N20</title>
<path fill="#ffffff" stroke="#2e3436" stroke-width="1.5" d="M308.787,-0.5C308.787,-0.5 350.576,-0.5 350.576,-0.5 356.576,-0.5 362.576,-6.5 362.576,-12.5 362.576,-12.5 362.576,-24.5 362.576,-24.5 362.576,-30.5 356.576,-36.5 350.576,-36.5 350.576,-36.5 308.787,-36.5 308.787,-36.5 302.787,-36.5 296.787,-30.5 296.787,-24.5 296.787,-24.5 296.787,-12.5 296.787,-12.5 296.787,-6.5 302.787,-0.5 308.787,-0.5"/>
<text text-anchor="middle" x="329.682" y="-25.1" font-family="sans-serif" font-size="8.00" fill="#1c2021">UNBLOCKED</text>
<polyline fill="none" stroke="#2e3436" stroke-width="1.5" points="296.787,-18.5 362.576,-18.5 "/>
<text text-anchor="middle" x="329.682" y="-7.1" font-family="sans-serif" font-size="8.00" fill="#1c2021"> </text>
</g>
<!-- N0&#45;&gt;N20 -->
<g id="edge2" class="edge"><title>N0&#45;&gt;N20</title>
<path fill="none" stroke="#2e3436" stroke-width="2" d="M84.721,-89.2312C82.0878,-78.1679 81.1422,-64.2088 89.0919,-55 101.95,-40.105 223.664,-28.0781 288.875,-22.6408"/>
<polygon fill="#2e3436" stroke="#2e3436" stroke-width="2" points="296.537,-22.0106 289.338,-25.9892 292.84,-22.8164 289.103,-23.1238 289.062,-22.6255 289.021,-22.1272 292.758,-21.8197 288.785,-19.2619 296.537,-22.0106 296.537,-22.0106"/>
<text text-anchor="middle" x="116.477" y="-64.6" font-family="sans-serif" font-size="8.00" fill="#2e3436">X</text>
<text text-anchor="start" x="89.6818" y="-56.6" font-family="sans-serif" font-size="8.00" fill="#2e3436">blocked = false</text>
</g>
<!-- N5 -->
<g id="node4" class="node"><title>N5</title>
<path fill="#ffffff" stroke="#2e3436" stroke-width="1.5" d="M440.957,-0.5C440.957,-0.5 496.406,-0.5 496.406,-0.5 502.406,-0.5 508.406,-6.5 508.406,-12.5 508.406,-12.5 508.406,-24.5 508.406,-24.5 508.406,-30.5 502.406,-36.5 496.406,-36.5 496.406,-36.5 440.957,-36.5 440.957,-36.5 434.957,-36.5 428.957,-30.5 428.957,-24.5 428.957,-24.5 428.957,-12.5 428.957,-12.5 428.957,-6.5 434.957,-0.5 440.957,-0.5"/>
<text text-anchor="middle" x="468.682" y="-25.1" font-family="sans-serif" font-size="8.00" fill="#1c2021">Movie</text>
<polyline fill="none" stroke="#2e3436" stroke-width="1.5" points="428.957,-18.5 508.406,-18.5 "/>
<text text-anchor="start" x="436.957" y="-7.1" font-family="sans-serif" font-size="8.00" fill="#1c2021">title = &#39;Wall Street&#39;</text>
</g>
<!-- N0&#45;&gt;N5 -->
<g id="edge3" class="edge"><title>N0&#45;&gt;N5</title>
<path fill="none" stroke="#4e9a06" stroke-width="2" d="M140.206,-95.084C167.836,-88.4952 202.806,-79.7918 233.682,-71 255.998,-64.6455 260.897,-60.7492 283.377,-55 286.749,-54.1376 367.362,-38.7652 421.14,-28.5345"/>
<polygon fill="#4e9a06" stroke="#4e9a06" stroke-width="2" points="428.54,-27.1271 421.803,-31.8442 424.949,-28.3191 421.265,-29.0198 421.172,-28.5286 421.079,-28.0374 424.763,-27.3367 420.541,-25.2131 428.54,-27.1271 428.54,-27.1271"/>
<text text-anchor="middle" x="311.334" y="-64.6" font-family="sans-serif" font-size="8.00" fill="#4e9a06">ACTED_IN</text>
<text text-anchor="start" x="283.682" y="-56.6" font-family="sans-serif" font-size="8.00" fill="#4e9a06">role = &#39;Bud Fox&#39;</text>
</g>
<!-- N1 -->
<g id="node5" class="node"><title>N1</title>
<path fill="#ffffff" stroke="#2e3436" stroke-width="1.5" d="M346.799,-89.5C346.799,-89.5 418.565,-89.5 418.565,-89.5 424.565,-89.5 430.565,-95.5 430.565,-101.5 430.565,-101.5 430.565,-113.5 430.565,-113.5 430.565,-119.5 424.565,-125.5 418.565,-125.5 418.565,-125.5 346.799,-125.5 346.799,-125.5 340.799,-125.5 334.799,-119.5 334.799,-113.5 334.799,-113.5 334.799,-101.5 334.799,-101.5 334.799,-95.5 340.799,-89.5 346.799,-89.5"/>
<text text-anchor="middle" x="382.682" y="-114.1" font-family="sans-serif" font-size="8.00" fill="#1c2021">Person</text>
<polyline fill="none" stroke="#2e3436" stroke-width="1.5" points="334.799,-107.5 430.565,-107.5 "/>
<text text-anchor="start" x="342.799" y="-96.1" font-family="sans-serif" font-size="8.00" fill="#1c2021">name = &#39;Martin Sheen&#39;</text>
</g>
<!-- N1&#45;&gt;N21 -->
<g id="edge4" class="edge"><title>N1&#45;&gt;N21</title>
<path fill="none" stroke="#2e3436" stroke-width="2" d="M334.396,-103.311C291.858,-99.3068 228.799,-90.4278 177.092,-71 166.336,-66.9586 143.747,-53.0615 124.643,-40.7213"/>
<polygon fill="#2e3436" stroke="#2e3436" stroke-width="2" points="118.319,-36.6125 126.447,-37.8689 121.736,-38.2364 124.881,-40.2797 124.608,-40.6989 124.336,-41.1182 121.191,-39.075 122.769,-43.529 118.319,-36.6125 118.319,-36.6125"/>
<text text-anchor="middle" x="204.477" y="-64.6" font-family="sans-serif" font-size="8.00" fill="#2e3436">X</text>
<text text-anchor="start" x="177.682" y="-56.6" font-family="sans-serif" font-size="8.00" fill="#2e3436">blocked = false</text>
</g>
<!-- N1&#45;&gt;N20 -->
<g id="edge5" class="edge"><title>N1&#45;&gt;N20</title>
<path fill="none" stroke="#2e3436" stroke-width="2" d="M367.574,-89.414C362.95,-83.7612 358.045,-77.3012 354.092,-71 348.751,-62.4875 343.806,-52.6235 339.784,-43.8203"/>
<polygon fill="#2e3436" stroke="#2e3436" stroke-width="2" points="336.633,-36.7279 342.762,-42.2118 338.612,-39.952 340.135,-43.379 339.678,-43.582 339.221,-43.785 337.698,-40.358 336.593,-44.9523 336.633,-36.7279 336.633,-36.7279"/>
<text text-anchor="middle" x="381.477" y="-64.6" font-family="sans-serif" font-size="8.00" fill="#2e3436">X</text>
<text text-anchor="start" x="354.682" y="-56.6" font-family="sans-serif" font-size="8.00" fill="#2e3436">blocked = false</text>
</g>
<!-- N1&#45;&gt;N5 -->
<g id="edge7" class="edge"><title>N1&#45;&gt;N5</title>
<path fill="none" stroke="#4e9a06" stroke-width="2" d="M399.673,-89.3116C412.983,-75.8467 431.619,-56.9942 446.17,-42.274"/>
<polygon fill="#4e9a06" stroke="#4e9a06" stroke-width="2" points="451.726,-36.6527 448.854,-44.3593 449.446,-39.6711 446.809,-42.3381 446.454,-41.9866 446.098,-41.6351 448.734,-38.9681 444.053,-39.6139 451.726,-36.6527 451.726,-36.6527"/>
<text text-anchor="middle" x="461.551" y="-64.6" font-family="sans-serif" font-size="8.00" fill="#4e9a06">ACTED_IN</text>
<text text-anchor="start" x="433.682" y="-56.6" font-family="sans-serif" font-size="8.00" fill="#4e9a06">role = &#39;Carl Fox&#39;</text>
</g>
<!-- N6 -->
<g id="node6" class="node"><title>N6</title>
<path fill="#ffffff" stroke="#2e3436" stroke-width="1.5" d="M786.682,-0.5C786.682,-0.5 888.682,-0.5 888.682,-0.5 894.682,-0.5 900.682,-6.5 900.682,-12.5 900.682,-12.5 900.682,-24.5 900.682,-24.5 900.682,-30.5 894.682,-36.5 888.682,-36.5 888.682,-36.5 786.682,-36.5 786.682,-36.5 780.682,-36.5 774.682,-30.5 774.682,-24.5 774.682,-24.5 774.682,-12.5 774.682,-12.5 774.682,-6.5 780.682,-0.5 786.682,-0.5"/>
<text text-anchor="middle" x="837.682" y="-25.1" font-family="sans-serif" font-size="8.00" fill="#1c2021">Movie</text>
<polyline fill="none" stroke="#2e3436" stroke-width="1.5" points="774.682,-18.5 900.682,-18.5 "/>
<text text-anchor="start" x="782.682" y="-7.1" font-family="sans-serif" font-size="8.00" fill="#1c2021">title = &#39;The American President&#39;</text>
</g>
<!-- N1&#45;&gt;N6 -->
<g id="edge6" class="edge"><title>N1&#45;&gt;N6</title>
<path fill="none" stroke="#4e9a06" stroke-width="2" d="M430.611,-97.0845C480.862,-87.1828 553.429,-72.7864 559.682,-71 579.163,-65.4343 582.759,-60.0945 602.369,-55 656.726,-40.8787 719.703,-31.7447 766.82,-26.2831"/>
<polygon fill="#4e9a06" stroke="#4e9a06" stroke-width="2" points="774.537,-25.4049 767.467,-29.6064 770.868,-26.3258 767.142,-26.7498 767.085,-26.253 767.029,-25.7562 770.755,-25.3322 766.704,-22.8997 774.537,-25.4049 774.537,-25.4049"/>
<text text-anchor="middle" x="644.338" y="-64.6" font-family="sans-serif" font-size="8.00" fill="#4e9a06">ACTED_IN</text>
<text text-anchor="start" x="602.682" y="-56.6" font-family="sans-serif" font-size="8.00" fill="#4e9a06">role = &#39;A.J. MacInerney&#39;</text>
</g>
<!-- N2 -->
<g id="node7" class="node"><title>N2</title>
<path fill="#ffffff" stroke="#2e3436" stroke-width="1.5" d="M740.02,-89.5C740.02,-89.5 823.344,-89.5 823.344,-89.5 829.344,-89.5 835.344,-95.5 835.344,-101.5 835.344,-101.5 835.344,-113.5 835.344,-113.5 835.344,-119.5 829.344,-125.5 823.344,-125.5 823.344,-125.5 740.02,-125.5 740.02,-125.5 734.02,-125.5 728.02,-119.5 728.02,-113.5 728.02,-113.5 728.02,-101.5 728.02,-101.5 728.02,-95.5 734.02,-89.5 740.02,-89.5"/>
<text text-anchor="middle" x="781.682" y="-114.1" font-family="sans-serif" font-size="8.00" fill="#1c2021">Person</text>
<polyline fill="none" stroke="#2e3436" stroke-width="1.5" points="728.02,-107.5 835.344,-107.5 "/>
<text text-anchor="start" x="736.02" y="-96.1" font-family="sans-serif" font-size="8.00" fill="#1c2021">name = &#39;Michael Douglas&#39;</text>
</g>
<!-- N2&#45;&gt;N5 -->
<g id="edge9" class="edge"><title>N2&#45;&gt;N5</title>
<path fill="none" stroke="#4e9a06" stroke-width="2" d="M751.931,-89.3723C741.835,-83.5507 730.493,-77.0007 720.143,-71 707.922,-63.9153 705.987,-59.7422 692.682,-55 634.13,-34.1321 562.61,-25.5014 516.381,-21.951"/>
<polygon fill="#4e9a06" stroke="#4e9a06" stroke-width="2" points="508.62,-21.3844 516.345,-18.5644 512.396,-21.1588 516.136,-21.4318 516.1,-21.9305 516.063,-22.4292 512.323,-22.1561 515.854,-25.2965 508.62,-21.3844 508.62,-21.3844"/>
<text text-anchor="middle" x="759.451" y="-64.6" font-family="sans-serif" font-size="8.00" fill="#4e9a06">ACTED_IN</text>
<text text-anchor="start" x="720.682" y="-56.6" font-family="sans-serif" font-size="8.00" fill="#4e9a06">role = &#39;Gordon Gekko&#39;</text>
</g>
<!-- N2&#45;&gt;N6 -->
<g id="edge8" class="edge"><title>N2&#45;&gt;N6</title>
<path fill="none" stroke="#4e9a06" stroke-width="2" d="M792.93,-89.1773C796.674,-83.4 800.863,-76.9263 804.682,-71 810.548,-61.8949 816.979,-51.8697 822.593,-43.103"/>
<polygon fill="#4e9a06" stroke="#4e9a06" stroke-width="2" points="826.703,-36.6805 825.503,-44.8168 825.103,-40.1085 823.081,-43.267 822.66,-42.9974 822.239,-42.7279 824.261,-39.5694 819.818,-41.178 826.703,-36.6805 826.703,-36.6805"/>
<text text-anchor="middle" x="877.25" y="-64.6" font-family="sans-serif" font-size="8.00" fill="#4e9a06">ACTED_IN</text>
<text text-anchor="start" x="814.682" y="-56.6" font-family="sans-serif" font-size="8.00" fill="#4e9a06">role = &#39;President Andrew Shepherd&#39;</text>
</g>
<!-- N3 -->
<g id="node8" class="node"><title>N3</title>
<path fill="#ffffff" stroke="#2e3436" stroke-width="1.5" d="M499.58,-89.5C499.58,-89.5 567.783,-89.5 567.783,-89.5 573.783,-89.5 579.783,-95.5 579.783,-101.5 579.783,-101.5 579.783,-113.5 579.783,-113.5 579.783,-119.5 573.783,-125.5 567.783,-125.5 567.783,-125.5 499.58,-125.5 499.58,-125.5 493.58,-125.5 487.58,-119.5 487.58,-113.5 487.58,-113.5 487.58,-101.5 487.58,-101.5 487.58,-95.5 493.58,-89.5 499.58,-89.5"/>
<text text-anchor="middle" x="533.682" y="-114.1" font-family="sans-serif" font-size="8.00" fill="#1c2021">Person</text>
<polyline fill="none" stroke="#2e3436" stroke-width="1.5" points="487.58,-107.5 579.783,-107.5 "/>
<text text-anchor="start" x="495.58" y="-96.1" font-family="sans-serif" font-size="8.00" fill="#1c2021">name = &#39;Oliver Stone&#39;</text>
</g>
<!-- N3&#45;&gt;N5 -->
<g id="edge10" class="edge"><title>N3&#45;&gt;N5</title>
<path fill="none" stroke="#a40000" stroke-width="2" d="M523.654,-89.3297C517.434,-79.0843 509.055,-65.9753 500.682,-55 497.503,-50.8337 493.945,-46.5624 490.389,-42.4916"/>
<polygon fill="#a40000" stroke="#a40000" stroke-width="2" points="485.223,-36.7063 492.736,-40.053 488.094,-39.1705 490.591,-41.9678 490.218,-42.3008 489.845,-42.6338 487.348,-39.8366 487.701,-44.5487 485.223,-36.7063 485.223,-36.7063"/>
<text text-anchor="middle" x="532.127" y="-60.6" font-family="sans-serif" font-size="8.00" fill="#a40000">DIRECTED</text>
</g>
<!-- N4 -->
<g id="node9" class="node"><title>N4</title>
<path fill="#ffffff" stroke="#2e3436" stroke-width="1.5" d="M964.358,-89.5C964.358,-89.5 1029.01,-89.5 1029.01,-89.5 1035.01,-89.5 1041.01,-95.5 1041.01,-101.5 1041.01,-101.5 1041.01,-113.5 1041.01,-113.5 1041.01,-119.5 1035.01,-125.5 1029.01,-125.5 1029.01,-125.5 964.358,-125.5 964.358,-125.5 958.358,-125.5 952.358,-119.5 952.358,-113.5 952.358,-113.5 952.358,-101.5 952.358,-101.5 952.358,-95.5 958.358,-89.5 964.358,-89.5"/>
<text text-anchor="middle" x="996.682" y="-114.1" font-family="sans-serif" font-size="8.00" fill="#1c2021">Person</text>
<polyline fill="none" stroke="#2e3436" stroke-width="1.5" points="952.358,-107.5 1041.01,-107.5 "/>
<text text-anchor="start" x="960.358" y="-96.1" font-family="sans-serif" font-size="8.00" fill="#1c2021">name = &#39;Rob Reiner&#39;</text>
</g>
<!-- N4&#45;&gt;N6 -->
<g id="edge11" class="edge"><title>N4&#45;&gt;N6</title>
<path fill="none" stroke="#a40000" stroke-width="2" d="M983.502,-89.0716C974.276,-77.941 961.063,-63.9668 946.682,-55 934.926,-47.6703 921.504,-41.702 908.192,-36.8966"/>
<polygon fill="#a40000" stroke="#a40000" stroke-width="2" points="900.818,-34.3453 909.01,-33.6083 904.526,-35.099 908.07,-36.3253 907.906,-36.7978 907.743,-37.2703 904.199,-36.044 906.802,-39.9873 900.818,-34.3453 900.818,-34.3453"/>
<text text-anchor="middle" x="986.127" y="-60.6" font-family="sans-serif" font-size="8.00" fill="#a40000">DIRECTED</text>
</g>
</g>
</svg>
