<?xml version="1.0" encoding="UTF-8" standalone="no"?>
<!DOCTYPE svg PUBLIC "-//W3C//DTD SVG 1.1//EN"
 "http://www.w3.org/Graphics/SVG/1.1/DTD/svg11.dtd">
<!-- Generated by graphviz version 2.38.0 (20140413.2041)
 -->
<!-- Title: g Pages: 1 -->
<svg width="504pt" height="158pt"
 viewBox="0.00 0.00 504.00 158.20" xmlns="http://www.w3.org/2000/svg" xmlns:xlink="http://www.w3.org/1999/xlink">
<g id="graph0" class="graph" transform="scale(0.709418 0.709418) rotate(0) translate(4 219)">
<title>g</title>
<polygon fill="white" stroke="none" points="-4,4 -4,-219 706.441,-219 706.441,4 -4,4"/>
<!-- N0 -->
<g id="node1" class="node"><title>N0</title>
<path fill="#ffffff" stroke="#2e3436" stroke-width="1.5" d="M615.559,-89.5C615.559,-89.5 690.441,-89.5 690.441,-89.5 696.441,-89.5 702.441,-95.5 702.441,-101.5 702.441,-101.5 702.441,-113.5 702.441,-113.5 702.441,-119.5 696.441,-125.5 690.441,-125.5 690.441,-125.5 615.559,-125.5 615.559,-125.5 609.559,-125.5 603.559,-119.5 603.559,-113.5 603.559,-113.5 603.559,-101.5 603.559,-101.5 603.559,-95.5 609.559,-89.5 615.559,-89.5"/>
<text text-anchor="middle" x="653" y="-114.1" font-family="sans-serif" font-size="8.00" fill="#1c2021">Person</text>
<polyline fill="none" stroke="#2e3436" stroke-width="1.5" points="603.559,-107.5 702.441,-107.5 "/>
<text text-anchor="start" x="611.559" y="-96.1" font-family="sans-serif" font-size="8.00" fill="#1c2021">name = &#39;Charlie Sheen&#39;</text>
</g>
<!-- N5 -->
<g id="node2" class="node"><title>N5</title>
<path fill="#ffffff" stroke="#2e3436" stroke-width="1.5" d="M468.275,-0.5C468.275,-0.5 523.725,-0.5 523.725,-0.5 529.725,-0.5 535.725,-6.5 535.725,-12.5 535.725,-12.5 535.725,-24.5 535.725,-24.5 535.725,-30.5 529.725,-36.5 523.725,-36.5 523.725,-36.5 468.275,-36.5 468.275,-36.5 462.275,-36.5 456.275,-30.5 456.275,-24.5 456.275,-24.5 456.275,-12.5 456.275,-12.5 456.275,-6.5 462.275,-0.5 468.275,-0.5"/>
<text text-anchor="middle" x="496" y="-25.1" font-family="sans-serif" font-size="8.00" fill="#1c2021">Movie</text>
<polyline fill="none" stroke="#2e3436" stroke-width="1.5" points="456.275,-18.5 535.725,-18.5 "/>
<text text-anchor="start" x="464.275" y="-7.1" font-family="sans-serif" font-size="8.00" fill="#1c2021">title = &#39;Wall Street&#39;</text>
</g>
<!-- N0&#45;&gt;N5 -->
<g id="edge1" class="edge"><title>N0&#45;&gt;N5</title>
<path fill="none" stroke="#2e3436" stroke-width="2" d="M623.546,-89.3245C606.035,-79.1942 583.341,-66.2048 563,-55 554.179,-50.1412 544.647,-45.0162 535.617,-40.218"/>
<polygon fill="#2e3436" stroke="#2e3436" stroke-width="2" points="528.829,-36.6222 537.037,-37.1507 532.377,-37.9358 535.691,-39.6913 535.457,-40.1331 535.223,-40.575 531.909,-38.8195 533.877,-43.1155 528.829,-36.6222 528.829,-36.6222"/>
<text text-anchor="middle" x="618.652" y="-64.6" font-family="sans-serif" font-size="8.00" fill="#2e3436">ACTED_IN</text>
<text text-anchor="start" x="591" y="-56.6" font-family="sans-serif" font-size="8.00" fill="#2e3436">role = &#39;Bud Fox&#39;</text>
</g>
<!-- N1 -->
<g id="node3" class="node"><title>N1</title>
<path fill="#ffffff" stroke="#2e3436" stroke-width="1.5" d="M333.117,-89.5C333.117,-89.5 404.883,-89.5 404.883,-89.5 410.883,-89.5 416.883,-95.5 416.883,-101.5 416.883,-101.5 416.883,-113.5 416.883,-113.5 416.883,-119.5 410.883,-125.5 404.883,-125.5 404.883,-125.5 333.117,-125.5 333.117,-125.5 327.117,-125.5 321.117,-119.5 321.117,-113.5 321.117,-113.5 321.117,-101.5 321.117,-101.5 321.117,-95.5 327.117,-89.5 333.117,-89.5"/>
<text text-anchor="middle" x="369" y="-114.1" font-family="sans-serif" font-size="8.00" fill="#1c2021">Person</text>
<polyline fill="none" stroke="#2e3436" stroke-width="1.5" points="321.117,-107.5 416.883,-107.5 "/>
<text text-anchor="start" x="329.117" y="-96.1" font-family="sans-serif" font-size="8.00" fill="#1c2021">name = &#39;Martin Sheen&#39;</text>
</g>
<!-- N1&#45;&gt;N5 -->
<g id="edge3" class="edge"><title>N1&#45;&gt;N5</title>
<path fill="none" stroke="#2e3436" stroke-width="2" d="M394.091,-89.3116C414.356,-75.4296 442.979,-55.8212 464.734,-40.9184"/>
<polygon fill="#2e3436" stroke="#2e3436" stroke-width="2" points="470.961,-36.6527 466.681,-43.6757 468.15,-39.1845 465.056,-41.3039 464.774,-40.8914 464.491,-40.4789 467.585,-38.3595 462.866,-38.107 470.961,-36.6527 470.961,-36.6527"/>
<text text-anchor="middle" x="471.869" y="-64.6" font-family="sans-serif" font-size="8.00" fill="#2e3436">ACTED_IN</text>
<text text-anchor="start" x="444" y="-56.6" font-family="sans-serif" font-size="8.00" fill="#2e3436">role = &#39;Carl Fox&#39;</text>
</g>
<!-- N6 -->
<g id="node4" class="node"><title>N6</title>
<path fill="#ffffff" stroke="#2e3436" stroke-width="1.5" d="M12,-0.5C12,-0.5 114,-0.5 114,-0.5 120,-0.5 126,-6.5 126,-12.5 126,-12.5 126,-24.5 126,-24.5 126,-30.5 120,-36.5 114,-36.5 114,-36.5 12,-36.5 12,-36.5 6,-36.5 0,-30.5 0,-24.5 0,-24.5 0,-12.5 0,-12.5 0,-6.5 6,-0.5 12,-0.5"/>
<text text-anchor="middle" x="63" y="-25.1" font-family="sans-serif" font-size="8.00" fill="#1c2021">Movie</text>
<polyline fill="none" stroke="#2e3436" stroke-width="1.5" points="0,-18.5 126,-18.5 "/>
<text text-anchor="start" x="8" y="-7.1" font-family="sans-serif" font-size="8.00" fill="#1c2021">title = &#39;The American President&#39;</text>
</g>
<!-- N1&#45;&gt;N6 -->
<g id="edge2" class="edge"><title>N1&#45;&gt;N6</title>
<path fill="none" stroke="#2e3436" stroke-width="2" d="M351.539,-89.3116C338.657,-77.6867 320.111,-63.038 301,-55 247.723,-32.5923 182.521,-24.0359 133.842,-20.9039"/>
<polygon fill="#2e3436" stroke="#2e3436" stroke-width="2" points="126.176,-20.4465 133.864,-17.5243 129.949,-20.1708 133.692,-20.3942 133.663,-20.8933 133.633,-21.3924 129.889,-21.169 133.461,-24.2623 126.176,-20.4465 126.176,-20.4465"/>
<text text-anchor="middle" x="369.656" y="-64.6" font-family="sans-serif" font-size="8.00" fill="#2e3436">ACTED_IN</text>
<text text-anchor="start" x="328" y="-56.6" font-family="sans-serif" font-size="8.00" fill="#2e3436">role = &#39;A.J. MacInerney&#39;</text>
</g>
<!-- N2 -->
<g id="node5" class="node"><title>N2</title>
<path fill="#ffffff" stroke="#2e3436" stroke-width="1.5" d="M128.338,-89.5C128.338,-89.5 211.662,-89.5 211.662,-89.5 217.662,-89.5 223.662,-95.5 223.662,-101.5 223.662,-101.5 223.662,-113.5 223.662,-113.5 223.662,-119.5 217.662,-125.5 211.662,-125.5 211.662,-125.5 128.338,-125.5 128.338,-125.5 122.338,-125.5 116.338,-119.5 116.338,-113.5 116.338,-113.5 116.338,-101.5 116.338,-101.5 116.338,-95.5 122.338,-89.5 128.338,-89.5"/>
<text text-anchor="middle" x="170" y="-114.1" font-family="sans-serif" font-size="8.00" fill="#1c2021">Person</text>
<polyline fill="none" stroke="#2e3436" stroke-width="1.5" points="116.338,-107.5 223.662,-107.5 "/>
<text text-anchor="start" x="124.338" y="-96.1" font-family="sans-serif" font-size="8.00" fill="#1c2021">name = &#39;Michael Douglas&#39;</text>
</g>
<!-- N2&#45;&gt;N5 -->
<g id="edge5" class="edge"><title>N2&#45;&gt;N5</title>
<path fill="none" stroke="#2e3436" stroke-width="2" d="M180.77,-89.17C189.025,-77.4783 201.52,-62.8081 216.461,-55 255.757,-34.4645 379.553,-25.2118 448.485,-21.5596"/>
<polygon fill="#2e3436" stroke="#2e3436" stroke-width="2" points="456.202,-21.162 448.886,-24.9185 452.483,-21.8543 448.738,-22.0473 448.712,-21.548 448.686,-21.0486 452.431,-20.8556 448.538,-18.1774 456.202,-21.162 456.202,-21.162"/>
<text text-anchor="middle" x="255.77" y="-64.6" font-family="sans-serif" font-size="8.00" fill="#2e3436">ACTED_IN</text>
<text text-anchor="start" x="217" y="-56.6" font-family="sans-serif" font-size="8.00" fill="#2e3436">role = &#39;Gordon Gekko&#39;</text>
</g>
<!-- N2&#45;&gt;N6 -->
<g id="edge4" class="edge"><title>N2&#45;&gt;N6</title>
<path fill="none" stroke="#2e3436" stroke-width="2" d="M116.28,-102.272C95.5047,-97.699 73.6843,-88.6527 60.8633,-71 55.3581,-63.4201 54.7127,-53.4274 55.8731,-44.2627"/>
<polygon fill="#2e3436" stroke="#2e3436" stroke-width="2" points="57.2056,-36.8303 59.2041,-44.8082 57.0359,-40.6097 56.3742,-44.3008 55.882,-44.2126 55.3899,-44.1244 56.0516,-40.4332 52.56,-43.617 57.2056,-36.8303 57.2056,-36.8303"/>
<text text-anchor="middle" x="123.568" y="-64.6" font-family="sans-serif" font-size="8.00" fill="#2e3436">ACTED_IN</text>
<text text-anchor="start" x="61" y="-56.6" font-family="sans-serif" font-size="8.00" fill="#2e3436">role = &#39;President Andrew Shepherd&#39;</text>
</g>
<!-- N3 -->
<g id="node6" class="node"><title>N3</title>
<path fill="#ffffff" stroke="#2e3436" stroke-width="1.5" d="M493.898,-89.5C493.898,-89.5 562.102,-89.5 562.102,-89.5 568.102,-89.5 574.102,-95.5 574.102,-101.5 574.102,-101.5 574.102,-113.5 574.102,-113.5 574.102,-119.5 568.102,-125.5 562.102,-125.5 562.102,-125.5 493.898,-125.5 493.898,-125.5 487.898,-125.5 481.898,-119.5 481.898,-113.5 481.898,-113.5 481.898,-101.5 481.898,-101.5 481.898,-95.5 487.898,-89.5 493.898,-89.5"/>
<text text-anchor="middle" x="528" y="-114.1" font-family="sans-serif" font-size="8.00" fill="#1c2021">Person</text>
<polyline fill="none" stroke="#2e3436" stroke-width="1.5" points="481.898,-107.5 574.102,-107.5 "/>
<text text-anchor="start" x="489.898" y="-96.1" font-family="sans-serif" font-size="8.00" fill="#1c2021">name = &#39;Oliver Stone&#39;</text>
</g>
<!-- N3&#45;&gt;N5 -->
<g id="edge6" class="edge"><title>N3&#45;&gt;N5</title>
<path fill="none" stroke="#4e9a06" stroke-width="2" d="M521.678,-89.3116C516.901,-76.3233 510.279,-58.3221 504.957,-43.8523"/>
<polygon fill="#4e9a06" stroke="#4e9a06" stroke-width="2" points="502.309,-36.6527 508.066,-42.5266 504.073,-39.9996 505.367,-43.519 504.898,-43.6917 504.429,-43.8643 503.134,-40.3448 501.731,-44.8568 502.309,-36.6527 502.309,-36.6527"/>
<text text-anchor="middle" x="535.445" y="-60.6" font-family="sans-serif" font-size="8.00" fill="#4e9a06">DIRECTED</text>
</g>
<!-- N4 -->
<g id="node7" class="node"><title>N4</title>
<path fill="#ffffff" stroke="#2e3436" stroke-width="1.5" d="M153.676,-178.5C153.676,-178.5 218.324,-178.5 218.324,-178.5 224.324,-178.5 230.324,-184.5 230.324,-190.5 230.324,-190.5 230.324,-202.5 230.324,-202.5 230.324,-208.5 224.324,-214.5 218.324,-214.5 218.324,-214.5 153.676,-214.5 153.676,-214.5 147.676,-214.5 141.676,-208.5 141.676,-202.5 141.676,-202.5 141.676,-190.5 141.676,-190.5 141.676,-184.5 147.676,-178.5 153.676,-178.5"/>
<text text-anchor="middle" x="186" y="-203.1" font-family="sans-serif" font-size="8.00" fill="#1c2021">Person</text>
<polyline fill="none" stroke="#2e3436" stroke-width="1.5" points="141.676,-196.5 230.324,-196.5 "/>
<text text-anchor="start" x="149.676" y="-185.1" font-family="sans-serif" font-size="8.00" fill="#1c2021">name = &#39;Rob Reiner&#39;</text>
</g>
<!-- N4&#45;&gt;N0 -->
<g id="edge7" class="edge"><title>N4&#45;&gt;N0</title>
<path fill="none" stroke="#a40000" stroke-width="2" d="M230.401,-189.27C304.933,-178.495 459.747,-154.747 589,-126 591.361,-125.475 593.766,-124.918 596.191,-124.338"/>
<polygon fill="#a40000" stroke="#a40000" stroke-width="2" points="603.503,-122.54 597.026,-127.609 599.981,-123.921 596.34,-124.817 596.22,-124.331 596.101,-123.846 599.742,-122.95 595.414,-121.054 603.503,-122.54 603.503,-122.54"/>
<text text-anchor="middle" x="526.596" y="-153.6" font-family="sans-serif" font-size="8.00" fill="#a40000">TYPE</text>
<text text-anchor="middle" x="526.596" y="-145.6" font-family="sans-serif" font-size="8.00" fill="#a40000">WITH SPACE</text>
</g>
<!-- N4&#45;&gt;N6 -->
<g id="edge8" class="edge"><title>N4&#45;&gt;N6</title>
<path fill="none" stroke="#4e9a06" stroke-width="2" d="M141.469,-181.365C114.25,-170.465 80.9622,-152.673 61.1094,-126 41.9963,-100.321 43.0229,-86.4483 49,-55 49.6904,-51.3674 50.7452,-47.6313 51.9727,-44.0096"/>
<polygon fill="#4e9a06" stroke="#4e9a06" stroke-width="2" points="54.6735,-36.8059 55.2008,-45.0134 53.8252,-40.4928 52.5087,-44.0041 52.0405,-43.8286 51.5724,-43.6531 52.8888,-40.1417 48.8803,-42.6438 54.6735,-36.8059 54.6735,-36.8059"/>
<text text-anchor="middle" x="82.4453" y="-105.1" font-family="sans-serif" font-size="8.00" fill="#4e9a06">DIRECTED</text>
</g>
</g>
</svg>
