<?xml version="1.0" encoding="UTF-8" standalone="no"?>
<!DOCTYPE svg PUBLIC "-//W3C//DTD SVG 1.1//EN"
 "http://www.w3.org/Graphics/SVG/1.1/DTD/svg11.dtd">
<!-- Generated by graphviz version 2.38.0 (20140413.2041)
 -->
<!-- Title: g Pages: 1 -->
<svg width="504pt" height="85pt"
 viewBox="0.00 0.00 504.00 85.01" xmlns="http://www.w3.org/2000/svg" xmlns:xlink="http://www.w3.org/1999/xlink">
<g id="graph0" class="graph" transform="scale(0.63442 0.63442) rotate(0) translate(4 130)">
<title>g</title>
<polygon fill="white" stroke="none" points="-4,4 -4,-130 790.426,-130 790.426,4 -4,4"/>
<!-- N0 -->
<g id="node1" class="node"><title>N0</title>
<path fill="#ffffff" stroke="#2e3436" stroke-width="1.5" d="M269.66,-89.5C269.66,-89.5 344.543,-89.5 344.543,-89.5 350.543,-89.5 356.543,-95.5 356.543,-101.5 356.543,-101.5 356.543,-113.5 356.543,-113.5 356.543,-119.5 350.543,-125.5 344.543,-125.5 344.543,-125.5 269.66,-125.5 269.66,-125.5 263.66,-125.5 257.66,-119.5 257.66,-113.5 257.66,-113.5 257.66,-101.5 257.66,-101.5 257.66,-95.5 263.66,-89.5 269.66,-89.5"/>
<text text-anchor="middle" x="307.102" y="-114.1" font-family="sans-serif" font-size="8.00" fill="#1c2021">Person</text>
<polyline fill="none" stroke="#2e3436" stroke-width="1.5" points="257.66,-107.5 356.543,-107.5 "/>
<text text-anchor="start" x="265.66" y="-96.1" font-family="sans-serif" font-size="8.00" fill="#1c2021">name = &#39;Charlie Sheen&#39;</text>
</g>
<!-- N5 -->
<g id="node2" class="node"><title>N5</title>
<path fill="#ffffff" stroke="#2e3436" stroke-width="1.5" d="M203.377,-0.5C203.377,-0.5 258.826,-0.5 258.826,-0.5 264.826,-0.5 270.826,-6.5 270.826,-12.5 270.826,-12.5 270.826,-24.5 270.826,-24.5 270.826,-30.5 264.826,-36.5 258.826,-36.5 258.826,-36.5 203.377,-36.5 203.377,-36.5 197.377,-36.5 191.377,-30.5 191.377,-24.5 191.377,-24.5 191.377,-12.5 191.377,-12.5 191.377,-6.5 197.377,-0.5 203.377,-0.5"/>
<text text-anchor="middle" x="231.102" y="-25.1" font-family="sans-serif" font-size="8.00" fill="#1c2021">Movie</text>
<polyline fill="none" stroke="#2e3436" stroke-width="1.5" points="191.377,-18.5 270.826,-18.5 "/>
<text text-anchor="start" x="199.377" y="-7.1" font-family="sans-serif" font-size="8.00" fill="#1c2021">title = &#39;Wall Street&#39;</text>
</g>
<!-- N0&#45;&gt;N5 -->
<g id="edge1" class="edge"><title>N0&#45;&gt;N5</title>
<path fill="none" stroke="#2e3436" stroke-width="2" d="M292.086,-89.3116C280.428,-75.9658 264.146,-57.3275 251.338,-42.6658"/>
<polygon fill="#2e3436" stroke="#2e3436" stroke-width="2" points="246.086,-36.6527 253.562,-40.0807 248.929,-39.1479 251.396,-41.9721 251.02,-42.3011 250.643,-42.63 248.176,-39.8058 248.478,-44.5215 246.086,-36.6527 246.086,-36.6527"/>
<text text-anchor="middle" x="303.754" y="-64.6" font-family="sans-serif" font-size="8.00" fill="#2e3436">ACTED_IN</text>
<text text-anchor="start" x="276.102" y="-56.6" font-family="sans-serif" font-size="8.00" fill="#2e3436">role = &#39;Bud Fox&#39;</text>
</g>
<!-- N1 -->
<g id="node3" class="node"><title>N1</title>
<path fill="#ffffff" stroke="#2e3436" stroke-width="1.5" d="M542.219,-89.5C542.219,-89.5 613.984,-89.5 613.984,-89.5 619.984,-89.5 625.984,-95.5 625.984,-101.5 625.984,-101.5 625.984,-113.5 625.984,-113.5 625.984,-119.5 619.984,-125.5 613.984,-125.5 613.984,-125.5 542.219,-125.5 542.219,-125.5 536.219,-125.5 530.219,-119.5 530.219,-113.5 530.219,-113.5 530.219,-101.5 530.219,-101.5 530.219,-95.5 536.219,-89.5 542.219,-89.5"/>
<text text-anchor="middle" x="578.102" y="-114.1" font-family="sans-serif" font-size="8.00" fill="#1c2021">Person</text>
<polyline fill="none" stroke="#2e3436" stroke-width="1.5" points="530.219,-107.5 625.984,-107.5 "/>
<text text-anchor="start" x="538.219" y="-96.1" font-family="sans-serif" font-size="8.00" fill="#1c2021">name = &#39;Martin Sheen&#39;</text>
</g>
<!-- N1&#45;&gt;N5 -->
<g id="edge3" class="edge"><title>N1&#45;&gt;N5</title>
<path fill="none" stroke="#2e3436" stroke-width="2" d="M558.59,-89.4891C544.033,-77.7906 523.111,-62.9778 502.102,-55 427.535,-26.6854 334.051,-20.2488 278.642,-19.167"/>
<polygon fill="#2e3436" stroke="#2e3436" stroke-width="2" points="271.082,-19.0482 278.635,-15.7916 274.84,-18.6072 278.589,-18.6662 278.581,-19.1661 278.574,-19.6661 274.824,-19.6071 278.528,-22.5407 271.082,-19.0482 271.082,-19.0482"/>
<text text-anchor="middle" x="559.971" y="-64.6" font-family="sans-serif" font-size="8.00" fill="#2e3436">ACTED_IN</text>
<text text-anchor="start" x="532.102" y="-56.6" font-family="sans-serif" font-size="8.00" fill="#2e3436">role = &#39;Carl Fox&#39;</text>
</g>
<!-- N6 -->
<g id="node4" class="node"><title>N6</title>
<path fill="#ffffff" stroke="#2e3436" stroke-width="1.5" d="M574.102,-0.5C574.102,-0.5 676.102,-0.5 676.102,-0.5 682.102,-0.5 688.102,-6.5 688.102,-12.5 688.102,-12.5 688.102,-24.5 688.102,-24.5 688.102,-30.5 682.102,-36.5 676.102,-36.5 676.102,-36.5 574.102,-36.5 574.102,-36.5 568.102,-36.5 562.102,-30.5 562.102,-24.5 562.102,-24.5 562.102,-12.5 562.102,-12.5 562.102,-6.5 568.102,-0.5 574.102,-0.5"/>
<text text-anchor="middle" x="625.102" y="-25.1" font-family="sans-serif" font-size="8.00" fill="#1c2021">Movie</text>
<polyline fill="none" stroke="#2e3436" stroke-width="1.5" points="562.102,-18.5 688.102,-18.5 "/>
<text text-anchor="start" x="570.102" y="-7.1" font-family="sans-serif" font-size="8.00" fill="#1c2021">title = &#39;The American President&#39;</text>
</g>
<!-- N1&#45;&gt;N6 -->
<g id="edge2" class="edge"><title>N1&#45;&gt;N6</title>
<path fill="none" stroke="#2e3436" stroke-width="2" d="M587.387,-89.3116C594.468,-76.2042 604.307,-57.9914 612.16,-43.455"/>
<polygon fill="#2e3436" stroke="#2e3436" stroke-width="2" points="615.835,-36.6527 615.24,-44.8555 614.493,-40.1897 612.71,-43.489 612.27,-43.2514 611.83,-43.0137 613.613,-39.7144 609.301,-41.6472 615.835,-36.6527 615.835,-36.6527"/>
<text text-anchor="middle" x="646.758" y="-64.6" font-family="sans-serif" font-size="8.00" fill="#2e3436">ACTED_IN</text>
<text text-anchor="start" x="605.102" y="-56.6" font-family="sans-serif" font-size="8.00" fill="#2e3436">role = &#39;A.J. MacInerney&#39;</text>
</g>
<!-- N2 -->
<g id="node5" class="node"><title>N2</title>
<path fill="#ffffff" stroke="#2e3436" stroke-width="1.5" d="M133.439,-89.5C133.439,-89.5 216.764,-89.5 216.764,-89.5 222.764,-89.5 228.764,-95.5 228.764,-101.5 228.764,-101.5 228.764,-113.5 228.764,-113.5 228.764,-119.5 222.764,-125.5 216.764,-125.5 216.764,-125.5 133.439,-125.5 133.439,-125.5 127.439,-125.5 121.439,-119.5 121.439,-113.5 121.439,-113.5 121.439,-101.5 121.439,-101.5 121.439,-95.5 127.439,-89.5 133.439,-89.5"/>
<text text-anchor="middle" x="175.102" y="-114.1" font-family="sans-serif" font-size="8.00" fill="#1c2021">Person</text>
<polyline fill="none" stroke="#2e3436" stroke-width="1.5" points="121.439,-107.5 228.764,-107.5 "/>
<text text-anchor="start" x="129.439" y="-96.1" font-family="sans-serif" font-size="8.00" fill="#1c2021">name = &#39;Michael Douglas&#39;</text>
</g>
<!-- N2&#45;&gt;N5 -->
<g id="edge5" class="edge"><title>N2&#45;&gt;N5</title>
<path fill="none" stroke="#2e3436" stroke-width="2" d="M170.318,-89.2138C168.398,-78.6806 167.809,-65.3106 173.562,-55 176.498,-49.739 180.57,-45.1605 185.204,-41.2024"/>
<polygon fill="#2e3436" stroke="#2e3436" stroke-width="2" points="191.331,-36.5159 187.424,-43.7532 188.656,-39.1913 185.678,-41.4695 185.374,-41.0724 185.07,-40.6752 188.049,-38.397 183.324,-38.3916 191.331,-36.5159 191.331,-36.5159"/>
<text text-anchor="middle" x="212.871" y="-64.6" font-family="sans-serif" font-size="8.00" fill="#2e3436">ACTED_IN</text>
<text text-anchor="start" x="174.102" y="-56.6" font-family="sans-serif" font-size="8.00" fill="#2e3436">role = &#39;Gordon Gekko&#39;</text>
</g>
<!-- N2&#45;&gt;N6 -->
<g id="edge4" class="edge"><title>N2&#45;&gt;N6</title>
<path fill="none" stroke="#2e3436" stroke-width="2" d="M228.846,-92.3268C233.657,-91.1617 238.462,-90.0355 243.102,-89 285.043,-79.6399 297.396,-84.7751 338.102,-71 353.112,-65.9204 354.834,-59.7104 369.965,-55 430.605,-36.1215 502.483,-27.2636 554.468,-23.1184"/>
<polygon fill="#2e3436" stroke="#2e3436" stroke-width="2" points="561.99,-22.5403 554.77,-26.4802 558.289,-23.3262 554.55,-23.6136 554.512,-23.1151 554.473,-22.6165 558.212,-22.3292 554.253,-19.75 561.99,-22.5403 561.99,-22.5403"/>
<text text-anchor="middle" x="432.67" y="-64.6" font-family="sans-serif" font-size="8.00" fill="#2e3436">ACTED_IN</text>
<text text-anchor="start" x="370.102" y="-56.6" font-family="sans-serif" font-size="8.00" fill="#2e3436">role = &#39;President Andrew Shepherd&#39;</text>
</g>
<!-- N3 -->
<g id="node6" class="node"><title>N3</title>
<path fill="#ffffff" stroke="#2e3436" stroke-width="1.5" d="M12,-89.5C12,-89.5 80.2031,-89.5 80.2031,-89.5 86.2031,-89.5 92.2031,-95.5 92.2031,-101.5 92.2031,-101.5 92.2031,-113.5 92.2031,-113.5 92.2031,-119.5 86.2031,-125.5 80.2031,-125.5 80.2031,-125.5 12,-125.5 12,-125.5 6,-125.5 0,-119.5 0,-113.5 0,-113.5 0,-101.5 0,-101.5 0,-95.5 6,-89.5 12,-89.5"/>
<text text-anchor="middle" x="46.1016" y="-114.1" font-family="sans-serif" font-size="8.00" fill="#1c2021">Person</text>
<polyline fill="none" stroke="#2e3436" stroke-width="1.5" points="0,-107.5 92.2031,-107.5 "/>
<text text-anchor="start" x="8" y="-96.1" font-family="sans-serif" font-size="8.00" fill="#1c2021">name = &#39;Oliver Stone&#39;</text>
</g>
<!-- N3&#45;&gt;N5 -->
<g id="edge6" class="edge"><title>N3&#45;&gt;N5</title>
<path fill="none" stroke="#4e9a06" stroke-width="2" d="M67.7459,-89.4466C82.459,-78.4744 102.721,-64.5357 122.211,-55 141.691,-45.4692 164.337,-37.6157 183.916,-31.7404"/>
<polygon fill="#4e9a06" stroke="#4e9a06" stroke-width="2" points="191.257,-29.5861 185.011,-34.9366 187.799,-31.1219 184.201,-32.178 184.06,-31.6982 183.919,-31.2184 187.518,-30.1624 183.11,-28.4598 191.257,-29.5861 191.257,-29.5861"/>
<text text-anchor="middle" x="143.547" y="-60.6" font-family="sans-serif" font-size="8.00" fill="#4e9a06">DIRECTED</text>
</g>
<!-- N4 -->
<g id="node7" class="node"><title>N4</title>
<path fill="#ffffff" stroke="#2e3436" stroke-width="1.5" d="M709.777,-89.5C709.777,-89.5 774.426,-89.5 774.426,-89.5 780.426,-89.5 786.426,-95.5 786.426,-101.5 786.426,-101.5 786.426,-113.5 786.426,-113.5 786.426,-119.5 780.426,-125.5 774.426,-125.5 774.426,-125.5 709.777,-125.5 709.777,-125.5 703.777,-125.5 697.777,-119.5 697.777,-113.5 697.777,-113.5 697.777,-101.5 697.777,-101.5 697.777,-95.5 703.777,-89.5 709.777,-89.5"/>
<text text-anchor="middle" x="742.102" y="-114.1" font-family="sans-serif" font-size="8.00" fill="#1c2021">Person</text>
<polyline fill="none" stroke="#2e3436" stroke-width="1.5" points="697.777,-107.5 786.426,-107.5 "/>
<text text-anchor="start" x="705.777" y="-96.1" font-family="sans-serif" font-size="8.00" fill="#1c2021">name = &#39;Rob Reiner&#39;</text>
</g>
<!-- N4&#45;&gt;N6 -->
<g id="edge7" class="edge"><title>N4&#45;&gt;N6</title>
<path fill="none" stroke="#4e9a06" stroke-width="2" d="M729.049,-89.2491C720.284,-78.4689 708.012,-64.8188 695.102,-55 687.984,-49.5869 679.915,-44.6162 671.851,-40.2168"/>
<polygon fill="#4e9a06" stroke="#4e9a06" stroke-width="2" points="665.1,-36.6585 673.308,-37.1695 668.65,-37.9646 671.968,-39.713 671.735,-40.1553 671.501,-40.5976 668.184,-38.8492 670.161,-43.141 665.1,-36.6585 665.1,-36.6585"/>
<text text-anchor="middle" x="732.547" y="-60.6" font-family="sans-serif" font-size="8.00" fill="#4e9a06">DIRECTED</text>
</g>
</g>
</svg>
