<?xml version="1.0" encoding="UTF-8" standalone="no"?>
<!DOCTYPE svg PUBLIC "-//W3C//DTD SVG 1.1//EN"
 "http://www.w3.org/Graphics/SVG/1.1/DTD/svg11.dtd">
<!-- Generated by graphviz version 2.38.0 (20140413.2041)
 -->
<!-- Title: g Pages: 1 -->
<svg width="228pt" height="251pt"
 viewBox="0.00 0.00 227.70 251.00" xmlns="http://www.w3.org/2000/svg" xmlns:xlink="http://www.w3.org/1999/xlink">
<g id="graph0" class="graph" transform="scale(1 1) rotate(0) translate(4 247)">
<title>g</title>
<polygon fill="white" stroke="none" points="-4,4 -4,-247 223.701,-247 223.701,4 -4,4"/>
<!-- N0 -->
<g id="node1" class="node"><title>N0</title>
<path fill="#ffffff" stroke="#2e3436" stroke-width="1.5" d="M63.334,-194.5C63.334,-194.5 106.193,-194.5 106.193,-194.5 112.193,-194.5 118.193,-200.5 118.193,-206.5 118.193,-206.5 118.193,-230.5 118.193,-230.5 118.193,-236.5 112.193,-242.5 106.193,-242.5 106.193,-242.5 63.334,-242.5 63.334,-242.5 57.334,-242.5 51.334,-236.5 51.334,-230.5 51.334,-230.5 51.334,-206.5 51.334,-206.5 51.334,-200.5 57.334,-194.5 63.334,-194.5"/>
<text text-anchor="middle" x="84.7637" y="-232.1" font-family="sans-serif" font-size="8.00" fill="#1c2021">A</text>
<polyline fill="none" stroke="#2e3436" stroke-width="1.5" points="51.334,-226.5 118.193,-226.5 "/>
<text text-anchor="start" x="59.334" y="-216.1" font-family="sans-serif" font-size="8.00" fill="#1c2021">name = &#39;Alice&#39;</text>
<text text-anchor="start" x="59.334" y="-208.1" font-family="sans-serif" font-size="8.00" fill="#1c2021">eyes = &#39;brown&#39;</text>
<text text-anchor="start" x="59.334" y="-200.1" font-family="sans-serif" font-size="8.00" fill="#1c2021">age = 38</text>
</g>
<!-- N2 -->
<g id="node2" class="node"><title>N2</title>
<path fill="#ffffff" stroke="#2e3436" stroke-width="1.5" d="M12,-101.5C12,-101.5 61.5273,-101.5 61.5273,-101.5 67.5273,-101.5 73.5273,-107.5 73.5273,-113.5 73.5273,-113.5 73.5273,-137.5 73.5273,-137.5 73.5273,-143.5 67.5273,-149.5 61.5273,-149.5 61.5273,-149.5 12,-149.5 12,-149.5 6,-149.5 0,-143.5 0,-137.5 0,-137.5 0,-113.5 0,-113.5 0,-107.5 6,-101.5 12,-101.5"/>
<text text-anchor="middle" x="36.7637" y="-139.1" font-family="sans-serif" font-size="8.00" fill="#1c2021">C</text>
<polyline fill="none" stroke="#2e3436" stroke-width="1.5" points="0,-133.5 73.5273,-133.5 "/>
<text text-anchor="start" x="8" y="-123.1" font-family="sans-serif" font-size="8.00" fill="#1c2021">name = &#39;Charlie&#39;</text>
<text text-anchor="start" x="8" y="-115.1" font-family="sans-serif" font-size="8.00" fill="#1c2021">eyes = &#39;green&#39;</text>
<text text-anchor="start" x="8" y="-107.1" font-family="sans-serif" font-size="8.00" fill="#1c2021">age = 53</text>
</g>
<!-- N0&#45;&gt;N2 -->
<g id="edge1" class="edge"><title>N0&#45;&gt;N2</title>
<path fill="none" stroke="#2e3436" stroke-width="2" d="M69.1643,-194.16C65.5056,-188.329 61.7437,-182.019 58.541,-176 55.2375,-169.791 52.0027,-162.978 49.0793,-156.446"/>
<polygon fill="#2e3436" stroke="#2e3436" stroke-width="2" points="46.0407,-149.509 52.1415,-155.025 48.0034,-152.743 49.5081,-156.178 49.0501,-156.379 48.5922,-156.58 47.0875,-153.145 45.9587,-157.733 46.0407,-149.509 46.0407,-149.509"/>
<text text-anchor="middle" x="73.875" y="-169.6" font-family="sans-serif" font-size="8.00" fill="#2e3436">KNOWS</text>
</g>
<!-- N1 -->
<g id="node3" class="node"><title>N1</title>
<path fill="#ffffff" stroke="#2e3436" stroke-width="1.5" d="M114.555,-101.5C114.555,-101.5 152.973,-101.5 152.973,-101.5 158.973,-101.5 164.973,-107.5 164.973,-113.5 164.973,-113.5 164.973,-137.5 164.973,-137.5 164.973,-143.5 158.973,-149.5 152.973,-149.5 152.973,-149.5 114.555,-149.5 114.555,-149.5 108.555,-149.5 102.555,-143.5 102.555,-137.5 102.555,-137.5 102.555,-113.5 102.555,-113.5 102.555,-107.5 108.555,-101.5 114.555,-101.5"/>
<text text-anchor="middle" x="133.764" y="-139.1" font-family="sans-serif" font-size="8.00" fill="#1c2021">B</text>
<polyline fill="none" stroke="#2e3436" stroke-width="1.5" points="102.555,-133.5 164.973,-133.5 "/>
<text text-anchor="start" x="110.555" y="-123.1" font-family="sans-serif" font-size="8.00" fill="#1c2021">name = &#39;Bob&#39;</text>
<text text-anchor="start" x="110.555" y="-115.1" font-family="sans-serif" font-size="8.00" fill="#1c2021">eyes = &#39;blue&#39;</text>
<text text-anchor="start" x="110.555" y="-107.1" font-family="sans-serif" font-size="8.00" fill="#1c2021">age = 25</text>
</g>
<!-- N0&#45;&gt;N1 -->
<g id="edge2" class="edge"><title>N0&#45;&gt;N1</title>
<path fill="none" stroke="#2e3436" stroke-width="2" d="M97.3824,-194.065C103.603,-182.513 111.172,-168.456 117.792,-156.162"/>
<polygon fill="#2e3436" stroke="#2e3436" stroke-width="2" points="121.357,-149.54 120.773,-157.744 120.02,-153.079 118.242,-156.381 117.802,-156.144 117.361,-155.907 119.139,-152.605 114.83,-154.544 121.357,-149.54 121.357,-149.54"/>
<text text-anchor="middle" x="125.875" y="-169.6" font-family="sans-serif" font-size="8.00" fill="#2e3436">KNOWS</text>
</g>
<!-- N3 -->
<g id="node5" class="node"><title>N3</title>
<path fill="#ffffff" stroke="#2e3436" stroke-width="1.5" d="M18.332,-4.5C18.332,-4.5 65.1953,-4.5 65.1953,-4.5 71.1953,-4.5 77.1953,-10.5 77.1953,-16.5 77.1953,-16.5 77.1953,-40.5 77.1953,-40.5 77.1953,-46.5 71.1953,-52.5 65.1953,-52.5 65.1953,-52.5 18.332,-52.5 18.332,-52.5 12.332,-52.5 6.33203,-46.5 6.33203,-40.5 6.33203,-40.5 6.33203,-16.5 6.33203,-16.5 6.33203,-10.5 12.332,-4.5 18.332,-4.5"/>
<text text-anchor="middle" x="41.7637" y="-42.1" font-family="sans-serif" font-size="8.00" fill="#1c2021">D</text>
<polyline fill="none" stroke="#2e3436" stroke-width="1.5" points="6.33203,-36.5 77.1953,-36.5 "/>
<text text-anchor="start" x="14.332" y="-26.1" font-family="sans-serif" font-size="8.00" fill="#1c2021">name = &#39;Daniel&#39;</text>
<text text-anchor="start" x="14.332" y="-18.1" font-family="sans-serif" font-size="8.00" fill="#1c2021">eyes = &#39;brown&#39;</text>
<text text-anchor="start" x="14.332" y="-10.1" font-family="sans-serif" font-size="8.00" fill="#1c2021">age = 54</text>
</g>
<!-- N2&#45;&gt;N3 -->
<g id="edge5" class="edge"><title>N2&#45;&gt;N3</title>
<path fill="none" stroke="#2e3436" stroke-width="2" d="M35.2984,-101.243C34.9842,-95.2977 34.6993,-88.9143 34.541,-83 34.4459,-79.4457 34.2614,-78.5445 34.541,-75 34.9207,-70.186 35.5231,-65.112 36.2219,-60.1683"/>
<polygon fill="#2e3436" stroke="#2e3436" stroke-width="2" points="37.3814,-52.563 39.5874,-60.4861 37.3104,-56.3456 36.7452,-60.0527 36.2509,-59.9774 35.7566,-59.902 36.3218,-56.1948 32.9145,-59.4687 37.3814,-52.563 37.3814,-52.563"/>
<text text-anchor="middle" x="49.875" y="-76.6" font-family="sans-serif" font-size="8.00" fill="#2e3436">KNOWS</text>
</g>
<!-- N4 -->
<g id="node4" class="node"><title>N4</title>
<path fill="#ffffff" stroke="#2e3436" stroke-width="1.5" d="M121.826,-0.5C121.826,-0.5 207.701,-0.5 207.701,-0.5 213.701,-0.5 219.701,-6.5 219.701,-12.5 219.701,-12.5 219.701,-44.5 219.701,-44.5 219.701,-50.5 213.701,-56.5 207.701,-56.5 207.701,-56.5 121.826,-56.5 121.826,-56.5 115.826,-56.5 109.826,-50.5 109.826,-44.5 109.826,-44.5 109.826,-12.5 109.826,-12.5 109.826,-6.5 115.826,-0.5 121.826,-0.5"/>
<text text-anchor="middle" x="164.764" y="-46.1" font-family="sans-serif" font-size="8.00" fill="#1c2021">E</text>
<polyline fill="none" stroke="#2e3436" stroke-width="1.5" points="109.826,-40.5 219.701,-40.5 "/>
<text text-anchor="start" x="117.826" y="-30.1" font-family="sans-serif" font-size="8.00" fill="#1c2021">array = [&#39;one&#39;, &#39;two&#39;, &#39;three&#39;]</text>
<text text-anchor="start" x="117.826" y="-22.1" font-family="sans-serif" font-size="8.00" fill="#1c2021">name = &#39;Eskil&#39;</text>
<text text-anchor="start" x="117.826" y="-14.1" font-family="sans-serif" font-size="8.00" fill="#1c2021">eyes = &#39;blue&#39;</text>
<text text-anchor="start" x="117.826" y="-6.1" font-family="sans-serif" font-size="8.00" fill="#1c2021">age = 41</text>
</g>
<!-- N1&#45;&gt;N4 -->
<g id="edge3" class="edge"><title>N1&#45;&gt;N4</title>
<path fill="none" stroke="#4e9a06" stroke-width="2" d="M141.427,-101.017C145.05,-89.9144 149.448,-76.4363 153.445,-64.187"/>
<polygon fill="#4e9a06" stroke="#4e9a06" stroke-width="2" points="155.871,-56.751 156.753,-64.928 155.183,-60.4711 154.02,-64.0361 153.545,-63.881 153.069,-63.7259 154.233,-60.1609 150.336,-62.834 155.871,-56.751 155.871,-56.751"/>
<text text-anchor="middle" x="168.209" y="-76.6" font-family="sans-serif" font-size="8.00" fill="#4e9a06">MARRIED</text>
</g>
<!-- N1&#45;&gt;N3 -->
<g id="edge4" class="edge"><title>N1&#45;&gt;N3</title>
<path fill="none" stroke="#2e3436" stroke-width="2" d="M111.022,-101.017C98.5442,-88.1321 82.9678,-72.0478 69.7487,-58.3976"/>
<polygon fill="#2e3436" stroke="#2e3436" stroke-width="2" points="64.2437,-52.713 71.8857,-55.7528 67.2116,-55.059 69.8204,-57.7529 69.4612,-58.1007 69.1021,-58.4486 66.4933,-55.7547 67.0368,-60.4486 64.2437,-52.713 64.2437,-52.713"/>
<text text-anchor="middle" x="108.875" y="-76.6" font-family="sans-serif" font-size="8.00" fill="#2e3436">KNOWS</text>
</g>
</g>
</svg>
