<?xml version="1.0" encoding="UTF-8" standalone="no"?>
<!DOCTYPE svg PUBLIC "-//W3C//DTD SVG 1.1//EN"
 "http://www.w3.org/Graphics/SVG/1.1/DTD/svg11.dtd">
<!-- Generated by graphviz version 2.38.0 (20140413.2041)
 -->
<!-- Title: g Pages: 1 -->
<svg width="504pt" height="172pt"
 viewBox="0.00 0.00 504.00 172.46" xmlns="http://www.w3.org/2000/svg" xmlns:xlink="http://www.w3.org/1999/xlink">
<g id="graph0" class="graph" transform="scale(0.746585 0.746585) rotate(0) translate(4 227)">
<title>g</title>
<polygon fill="white" stroke="none" points="-4,4 -4,-227 671.074,-227 671.074,4 -4,4"/>
<!-- N0 -->
<g id="node1" class="node"><title>N0</title>
<path fill="#ffffff" stroke="#2e3436" stroke-width="1.5" d="M321.547,-174.5C321.547,-174.5 422.52,-174.5 422.52,-174.5 428.52,-174.5 434.52,-180.5 434.52,-186.5 434.52,-186.5 434.52,-210.5 434.52,-210.5 434.52,-216.5 428.52,-222.5 422.52,-222.5 422.52,-222.5 321.547,-222.5 321.547,-222.5 315.547,-222.5 309.547,-216.5 309.547,-210.5 309.547,-210.5 309.547,-186.5 309.547,-186.5 309.547,-180.5 315.547,-174.5 321.547,-174.5"/>
<text text-anchor="middle" x="372.033" y="-212.1" font-family="sans-serif" font-size="8.00" fill="#1c2021">Person</text>
<polyline fill="none" stroke="#2e3436" stroke-width="1.5" points="309.547,-206.5 434.52,-206.5 "/>
<text text-anchor="start" x="317.547" y="-196.1" font-family="sans-serif" font-size="8.00" fill="#1c2021">chauffeurName = &#39;John Brown&#39;</text>
<text text-anchor="start" x="317.547" y="-188.1" font-family="sans-serif" font-size="8.00" fill="#1c2021">name = &#39;Charlie Sheen&#39;</text>
<text text-anchor="start" x="317.547" y="-180.1" font-family="sans-serif" font-size="8.00" fill="#1c2021">bornIn = &#39;New York&#39;</text>
</g>
<!-- N1 -->
<g id="node2" class="node"><title>N1</title>
<path fill="#ffffff" stroke="#2e3436" stroke-width="1.5" d="M408.104,-81.5C408.104,-81.5 505.963,-81.5 505.963,-81.5 511.963,-81.5 517.963,-87.5 517.963,-93.5 517.963,-93.5 517.963,-117.5 517.963,-117.5 517.963,-123.5 511.963,-129.5 505.963,-129.5 505.963,-129.5 408.104,-129.5 408.104,-129.5 402.104,-129.5 396.104,-123.5 396.104,-117.5 396.104,-117.5 396.104,-93.5 396.104,-93.5 396.104,-87.5 402.104,-81.5 408.104,-81.5"/>
<text text-anchor="middle" x="457.033" y="-119.1" font-family="sans-serif" font-size="8.00" fill="#1c2021">Person</text>
<polyline fill="none" stroke="#2e3436" stroke-width="1.5" points="396.104,-113.5 517.963,-113.5 "/>
<text text-anchor="start" x="404.104" y="-103.1" font-family="sans-serif" font-size="8.00" fill="#1c2021">chauffeurName = &#39;Bob Brown&#39;</text>
<text text-anchor="start" x="404.104" y="-95.1" font-family="sans-serif" font-size="8.00" fill="#1c2021">name = &#39;Martin Sheen&#39;</text>
<text text-anchor="start" x="404.104" y="-87.1" font-family="sans-serif" font-size="8.00" fill="#1c2021">bornIn = &#39;Ohio&#39;</text>
</g>
<!-- N0&#45;&gt;N1 -->
<g id="edge1" class="edge"><title>N0&#45;&gt;N1</title>
<path fill="none" stroke="#2e3436" stroke-width="2" d="M393.923,-174.065C405.013,-162.192 418.575,-147.673 430.28,-135.142"/>
<polygon fill="#2e3436" stroke="#2e3436" stroke-width="2" points="435.512,-129.54 432.859,-137.325 433.318,-132.622 430.758,-135.363 430.392,-135.021 430.027,-134.68 432.587,-131.939 427.926,-132.717 435.512,-129.54 435.512,-129.54"/>
<text text-anchor="middle" x="433.52" y="-149.6" font-family="sans-serif" font-size="8.00" fill="#2e3436">FATHER</text>
</g>
<!-- N5 -->
<g id="node3" class="node"><title>N5</title>
<path fill="#ffffff" stroke="#2e3436" stroke-width="1.5" d="M255.309,-0.5C255.309,-0.5 310.758,-0.5 310.758,-0.5 316.758,-0.5 322.758,-6.5 322.758,-12.5 322.758,-12.5 322.758,-24.5 322.758,-24.5 322.758,-30.5 316.758,-36.5 310.758,-36.5 310.758,-36.5 255.309,-36.5 255.309,-36.5 249.309,-36.5 243.309,-30.5 243.309,-24.5 243.309,-24.5 243.309,-12.5 243.309,-12.5 243.309,-6.5 249.309,-0.5 255.309,-0.5"/>
<text text-anchor="middle" x="283.033" y="-25.1" font-family="sans-serif" font-size="8.00" fill="#1c2021">Movie</text>
<polyline fill="none" stroke="#2e3436" stroke-width="1.5" points="243.309,-18.5 322.758,-18.5 "/>
<text text-anchor="start" x="251.309" y="-7.1" font-family="sans-serif" font-size="8.00" fill="#1c2021">title = &#39;Wall Street&#39;</text>
</g>
<!-- N0&#45;&gt;N5 -->
<g id="edge2" class="edge"><title>N0&#45;&gt;N5</title>
<path fill="none" stroke="#4e9a06" stroke-width="2" d="M360.398,-174.23C343.506,-140.446 312.34,-78.1127 295.17,-43.7738"/>
<polygon fill="#4e9a06" stroke="#4e9a06" stroke-width="2" points="291.729,-36.8915 298.102,-42.0903 293.853,-40.022 295.53,-43.3761 295.083,-43.5997 294.636,-43.8233 292.959,-40.4692 292.064,-45.1091 291.729,-36.8915 291.729,-36.8915"/>
<text text-anchor="middle" x="357.814" y="-103.1" font-family="sans-serif" font-size="8.00" fill="#4e9a06">ACTED_IN</text>
</g>
<!-- N1&#45;&gt;N5 -->
<g id="edge4" class="edge"><title>N1&#45;&gt;N5</title>
<path fill="none" stroke="#4e9a06" stroke-width="2" d="M443.446,-81.2567C436.87,-71.8489 428.189,-61.6584 418.033,-55 391.913,-37.8749 357.876,-28.9951 330.514,-24.3991"/>
<polygon fill="#4e9a06" stroke="#4e9a06" stroke-width="2" points="322.985,-23.213 330.919,-21.0464 326.768,-23.3028 330.472,-23.8864 330.394,-24.3803 330.316,-24.8742 326.612,-24.2906 329.869,-27.7142 322.985,-23.213 322.985,-23.213"/>
<text text-anchor="middle" x="447.814" y="-56.6" font-family="sans-serif" font-size="8.00" fill="#4e9a06">ACTED_IN</text>
</g>
<!-- N6 -->
<g id="node4" class="node"><title>N6</title>
<path fill="#ffffff" stroke="#2e3436" stroke-width="1.5" d="M474.033,-0.5C474.033,-0.5 576.033,-0.5 576.033,-0.5 582.033,-0.5 588.033,-6.5 588.033,-12.5 588.033,-12.5 588.033,-24.5 588.033,-24.5 588.033,-30.5 582.033,-36.5 576.033,-36.5 576.033,-36.5 474.033,-36.5 474.033,-36.5 468.033,-36.5 462.033,-30.5 462.033,-24.5 462.033,-24.5 462.033,-12.5 462.033,-12.5 462.033,-6.5 468.033,-0.5 474.033,-0.5"/>
<text text-anchor="middle" x="525.033" y="-25.1" font-family="sans-serif" font-size="8.00" fill="#1c2021">Movie</text>
<polyline fill="none" stroke="#2e3436" stroke-width="1.5" points="462.033,-18.5 588.033,-18.5 "/>
<text text-anchor="start" x="470.033" y="-7.1" font-family="sans-serif" font-size="8.00" fill="#1c2021">title = &#39;The American President&#39;</text>
</g>
<!-- N1&#45;&gt;N6 -->
<g id="edge3" class="edge"><title>N1&#45;&gt;N6</title>
<path fill="none" stroke="#4e9a06" stroke-width="2" d="M476.869,-81.4096C481.879,-75.4613 487.205,-69.0347 492.033,-63 497.186,-56.5606 502.647,-49.4739 507.613,-42.9237"/>
<polygon fill="#4e9a06" stroke="#4e9a06" stroke-width="2" points="512.383,-36.5962 510.563,-44.6167 510.525,-39.8916 508.268,-42.8859 507.868,-42.5849 507.469,-42.2839 509.727,-39.2895 505.173,-40.5531 512.383,-36.5962 512.383,-36.5962"/>
<text text-anchor="middle" x="516.814" y="-56.6" font-family="sans-serif" font-size="8.00" fill="#4e9a06">ACTED_IN</text>
</g>
<!-- N2 -->
<g id="node5" class="node"><title>N2</title>
<path fill="#ffffff" stroke="#2e3436" stroke-width="1.5" d="M157.547,-81.5C157.547,-81.5 258.52,-81.5 258.52,-81.5 264.52,-81.5 270.52,-87.5 270.52,-93.5 270.52,-93.5 270.52,-117.5 270.52,-117.5 270.52,-123.5 264.52,-129.5 258.52,-129.5 258.52,-129.5 157.547,-129.5 157.547,-129.5 151.547,-129.5 145.547,-123.5 145.547,-117.5 145.547,-117.5 145.547,-93.5 145.547,-93.5 145.547,-87.5 151.547,-81.5 157.547,-81.5"/>
<text text-anchor="middle" x="208.033" y="-119.1" font-family="sans-serif" font-size="8.00" fill="#1c2021">Person</text>
<polyline fill="none" stroke="#2e3436" stroke-width="1.5" points="145.547,-113.5 270.52,-113.5 "/>
<text text-anchor="start" x="153.547" y="-103.1" font-family="sans-serif" font-size="8.00" fill="#1c2021">bornIn = &#39;New Jersey&#39;</text>
<text text-anchor="start" x="153.547" y="-95.1" font-family="sans-serif" font-size="8.00" fill="#1c2021">chauffeurName = &#39;John Brown&#39;</text>
<text text-anchor="start" x="153.547" y="-87.1" font-family="sans-serif" font-size="8.00" fill="#1c2021">name = &#39;Michael Douglas&#39;</text>
</g>
<!-- N2&#45;&gt;N5 -->
<g id="edge6" class="edge"><title>N2&#45;&gt;N5</title>
<path fill="none" stroke="#4e9a06" stroke-width="2" d="M228.527,-81.2734C239.187,-69.1922 252.173,-54.4749 262.795,-42.4364"/>
<polygon fill="#4e9a06" stroke="#4e9a06" stroke-width="2" points="267.799,-36.765 265.368,-44.6218 265.693,-39.9077 263.212,-42.7196 262.837,-42.3888 262.462,-42.058 264.943,-39.2461 260.306,-40.1558 267.799,-36.765 267.799,-36.765"/>
<text text-anchor="middle" x="269.814" y="-56.6" font-family="sans-serif" font-size="8.00" fill="#4e9a06">ACTED_IN</text>
</g>
<!-- N2&#45;&gt;N6 -->
<g id="edge5" class="edge"><title>N2&#45;&gt;N6</title>
<path fill="none" stroke="#4e9a06" stroke-width="2" d="M270.617,-84.4733C300.936,-75.0464 337.955,-63.9388 371.471,-55 398.302,-47.8441 427.992,-40.783 454.058,-34.866"/>
<polygon fill="#4e9a06" stroke="#4e9a06" stroke-width="2" points="461.665,-33.1482 455.093,-38.0924 458.117,-34.462 454.459,-35.288 454.349,-34.8003 454.239,-34.3126 457.897,-33.4865 453.606,-31.5082 461.665,-33.1482 461.665,-33.1482"/>
<text text-anchor="middle" x="391.814" y="-56.6" font-family="sans-serif" font-size="8.00" fill="#4e9a06">ACTED_IN</text>
</g>
<!-- N3 -->
<g id="node6" class="node"><title>N3</title>
<path fill="#ffffff" stroke="#2e3436" stroke-width="1.5" d="M12,-81.5C12,-81.5 104.066,-81.5 104.066,-81.5 110.066,-81.5 116.066,-87.5 116.066,-93.5 116.066,-93.5 116.066,-117.5 116.066,-117.5 116.066,-123.5 110.066,-129.5 104.066,-129.5 104.066,-129.5 12,-129.5 12,-129.5 6,-129.5 0,-123.5 0,-117.5 0,-117.5 0,-93.5 0,-93.5 0,-87.5 6,-81.5 12,-81.5"/>
<text text-anchor="middle" x="58.0332" y="-119.1" font-family="sans-serif" font-size="8.00" fill="#1c2021">Person</text>
<polyline fill="none" stroke="#2e3436" stroke-width="1.5" points="0,-113.5 116.066,-113.5 "/>
<text text-anchor="start" x="8" y="-103.1" font-family="sans-serif" font-size="8.00" fill="#1c2021">chauffeurName = &#39;Bill White&#39;</text>
<text text-anchor="start" x="8" y="-95.1" font-family="sans-serif" font-size="8.00" fill="#1c2021">name = &#39;Oliver Stone&#39;</text>
<text text-anchor="start" x="8" y="-87.1" font-family="sans-serif" font-size="8.00" fill="#1c2021">bornIn = &#39;New York&#39;</text>
</g>
<!-- N3&#45;&gt;N5 -->
<g id="edge7" class="edge"><title>N3&#45;&gt;N5</title>
<path fill="none" stroke="#4e9a06" stroke-width="2" d="M116.269,-82.4998C153.467,-68.4473 201.073,-50.4629 235.891,-37.3092"/>
<polygon fill="#4e9a06" stroke="#4e9a06" stroke-width="2" points="243.119,-34.5789 237.295,-40.3867 239.787,-36.3719 236.279,-37.6972 236.103,-37.2294 235.926,-36.7617 239.434,-35.4364 234.91,-34.0722 243.119,-34.5789 243.119,-34.5789"/>
<text text-anchor="middle" x="203.814" y="-56.6" font-family="sans-serif" font-size="8.00" fill="#4e9a06">ACTED_IN</text>
</g>
<!-- N4 -->
<g id="node7" class="node"><title>N4</title>
<path fill="#ffffff" stroke="#2e3436" stroke-width="1.5" d="M558.992,-81.5C558.992,-81.5 655.074,-81.5 655.074,-81.5 661.074,-81.5 667.074,-87.5 667.074,-93.5 667.074,-93.5 667.074,-117.5 667.074,-117.5 667.074,-123.5 661.074,-129.5 655.074,-129.5 655.074,-129.5 558.992,-129.5 558.992,-129.5 552.992,-129.5 546.992,-123.5 546.992,-117.5 546.992,-117.5 546.992,-93.5 546.992,-93.5 546.992,-87.5 552.992,-81.5 558.992,-81.5"/>
<text text-anchor="middle" x="607.033" y="-119.1" font-family="sans-serif" font-size="8.00" fill="#1c2021">Person</text>
<polyline fill="none" stroke="#2e3436" stroke-width="1.5" points="546.992,-113.5 667.074,-113.5 "/>
<text text-anchor="start" x="554.992" y="-103.1" font-family="sans-serif" font-size="8.00" fill="#1c2021">chauffeurName = &#39;Ted Green&#39;</text>
<text text-anchor="start" x="554.992" y="-95.1" font-family="sans-serif" font-size="8.00" fill="#1c2021">name = &#39;Rob Reiner&#39;</text>
<text text-anchor="start" x="554.992" y="-87.1" font-family="sans-serif" font-size="8.00" fill="#1c2021">bornIn = &#39;New York&#39;</text>
</g>
<!-- N4&#45;&gt;N6 -->
<g id="edge8" class="edge"><title>N4&#45;&gt;N6</title>
<path fill="none" stroke="#4e9a06" stroke-width="2" d="M584.626,-81.2734C572.972,-69.1922 558.774,-54.4749 547.16,-42.4364"/>
<polygon fill="#4e9a06" stroke="#4e9a06" stroke-width="2" points="541.689,-36.765 549.325,-39.8195 544.652,-39.1167 547.256,-41.8156 546.896,-42.1628 546.536,-42.5099 543.933,-39.811 544.467,-44.506 541.689,-36.765 541.689,-36.765"/>
<text text-anchor="middle" x="585.814" y="-56.6" font-family="sans-serif" font-size="8.00" fill="#4e9a06">ACTED_IN</text>
</g>
</g>
</svg>
