<?xml version="1.0" encoding="UTF-8" standalone="no"?>
<!DOCTYPE svg PUBLIC "-//W3C//DTD SVG 1.1//EN"
 "http://www.w3.org/Graphics/SVG/1.1/DTD/svg11.dtd">
<!-- Generated by graphviz version 2.38.0 (20140413.2041)
 -->
<!-- Title: g Pages: 1 -->
<svg width="504pt" height="172pt"
 viewBox="0.00 0.00 504.00 172.04" xmlns="http://www.w3.org/2000/svg" xmlns:xlink="http://www.w3.org/1999/xlink">
<g id="graph0" class="graph" transform="scale(0.831099 0.831099) rotate(0) translate(4 203)">
<title>g</title>
<polygon fill="white" stroke="none" points="-4,4 -4,-203 602.426,-203 602.426,4 -4,4"/>
<!-- N0 -->
<g id="node1" class="node"><title>N0</title>
<path fill="#ffffff" stroke="#2e3436" stroke-width="1.5" d="M291.66,-162.5C291.66,-162.5 366.543,-162.5 366.543,-162.5 372.543,-162.5 378.543,-168.5 378.543,-174.5 378.543,-174.5 378.543,-186.5 378.543,-186.5 378.543,-192.5 372.543,-198.5 366.543,-198.5 366.543,-198.5 291.66,-198.5 291.66,-198.5 285.66,-198.5 279.66,-192.5 279.66,-186.5 279.66,-186.5 279.66,-174.5 279.66,-174.5 279.66,-168.5 285.66,-162.5 291.66,-162.5"/>
<text text-anchor="middle" x="329.102" y="-187.1" font-family="sans-serif" font-size="8.00" fill="#1c2021">Person</text>
<polyline fill="none" stroke="#2e3436" stroke-width="1.5" points="279.66,-180.5 378.543,-180.5 "/>
<text text-anchor="start" x="287.66" y="-169.1" font-family="sans-serif" font-size="8.00" fill="#1c2021">name = &#39;Charlie Sheen&#39;</text>
</g>
<!-- N1 -->
<g id="node2" class="node"><title>N1</title>
<path fill="#ffffff" stroke="#2e3436" stroke-width="1.5" d="M370.219,-81.5C370.219,-81.5 441.984,-81.5 441.984,-81.5 447.984,-81.5 453.984,-87.5 453.984,-93.5 453.984,-93.5 453.984,-105.5 453.984,-105.5 453.984,-111.5 447.984,-117.5 441.984,-117.5 441.984,-117.5 370.219,-117.5 370.219,-117.5 364.219,-117.5 358.219,-111.5 358.219,-105.5 358.219,-105.5 358.219,-93.5 358.219,-93.5 358.219,-87.5 364.219,-81.5 370.219,-81.5"/>
<text text-anchor="middle" x="406.102" y="-106.1" font-family="sans-serif" font-size="8.00" fill="#1c2021">Person</text>
<polyline fill="none" stroke="#2e3436" stroke-width="1.5" points="358.219,-99.5 453.984,-99.5 "/>
<text text-anchor="start" x="366.219" y="-88.1" font-family="sans-serif" font-size="8.00" fill="#1c2021">name = &#39;Martin Sheen&#39;</text>
</g>
<!-- N0&#45;&gt;N1 -->
<g id="edge1" class="edge"><title>N0&#45;&gt;N1</title>
<path fill="none" stroke="#2e3436" stroke-width="2" d="M345.809,-162.358C357.01,-150.867 371.879,-135.612 384.048,-123.127"/>
<polygon fill="#2e3436" stroke="#2e3436" stroke-width="2" points="389.426,-117.608 386.608,-125.335 387.167,-120.643 384.549,-123.328 384.191,-122.979 383.833,-122.63 386.451,-119.945 381.775,-120.624 389.426,-117.608 389.426,-117.608"/>
<text text-anchor="middle" x="385.588" y="-137.6" font-family="sans-serif" font-size="8.00" fill="#2e3436">FATHER</text>
</g>
<!-- N5 -->
<g id="node3" class="node"><title>N5</title>
<path fill="#ffffff" stroke="#2e3436" stroke-width="1.5" d="M213.377,-0.5C213.377,-0.5 268.826,-0.5 268.826,-0.5 274.826,-0.5 280.826,-6.5 280.826,-12.5 280.826,-12.5 280.826,-24.5 280.826,-24.5 280.826,-30.5 274.826,-36.5 268.826,-36.5 268.826,-36.5 213.377,-36.5 213.377,-36.5 207.377,-36.5 201.377,-30.5 201.377,-24.5 201.377,-24.5 201.377,-12.5 201.377,-12.5 201.377,-6.5 207.377,-0.5 213.377,-0.5"/>
<text text-anchor="middle" x="241.102" y="-25.1" font-family="sans-serif" font-size="8.00" fill="#1c2021">Movie</text>
<polyline fill="none" stroke="#2e3436" stroke-width="1.5" points="201.377,-18.5 280.826,-18.5 "/>
<text text-anchor="start" x="209.377" y="-7.1" font-family="sans-serif" font-size="8.00" fill="#1c2021">title = &#39;Wall Street&#39;</text>
</g>
<!-- N0&#45;&gt;N5 -->
<g id="edge2" class="edge"><title>N0&#45;&gt;N5</title>
<path fill="none" stroke="#4e9a06" stroke-width="2" d="M319.684,-162.377C304.02,-133.897 272.559,-76.6952 254.559,-43.9674"/>
<polygon fill="#4e9a06" stroke="#4e9a06" stroke-width="2" points="250.718,-36.9847 257.29,-41.9299 252.963,-40.0296 254.771,-43.3154 254.333,-43.5564 253.894,-43.7973 252.087,-40.5115 251.375,-45.1829 250.718,-36.9847 250.718,-36.9847"/>
<text text-anchor="middle" x="313.883" y="-97.1" font-family="sans-serif" font-size="8.00" fill="#4e9a06">ACTED_IN</text>
</g>
<!-- N1&#45;&gt;N5 -->
<g id="edge4" class="edge"><title>N1&#45;&gt;N5</title>
<path fill="none" stroke="#4e9a06" stroke-width="2" d="M396.881,-81.3984C391.16,-72.3096 383.011,-61.6676 373.102,-55 348.013,-38.1197 315.197,-29.2485 288.562,-24.5954"/>
<polygon fill="#4e9a06" stroke="#4e9a06" stroke-width="2" points="280.869,-23.3371 288.815,-21.217 284.65,-23.449 288.351,-24.0543 288.27,-24.5478 288.189,-25.0412 284.489,-24.4359 287.725,-27.8785 280.869,-23.3371 280.869,-23.3371"/>
<text text-anchor="middle" x="402.883" y="-56.6" font-family="sans-serif" font-size="8.00" fill="#4e9a06">ACTED_IN</text>
</g>
<!-- N6 -->
<g id="node4" class="node"><title>N6</title>
<path fill="#ffffff" stroke="#2e3436" stroke-width="1.5" d="M429.102,-0.5C429.102,-0.5 531.102,-0.5 531.102,-0.5 537.102,-0.5 543.102,-6.5 543.102,-12.5 543.102,-12.5 543.102,-24.5 543.102,-24.5 543.102,-30.5 537.102,-36.5 531.102,-36.5 531.102,-36.5 429.102,-36.5 429.102,-36.5 423.102,-36.5 417.102,-30.5 417.102,-24.5 417.102,-24.5 417.102,-12.5 417.102,-12.5 417.102,-6.5 423.102,-0.5 429.102,-0.5"/>
<text text-anchor="middle" x="480.102" y="-25.1" font-family="sans-serif" font-size="8.00" fill="#1c2021">Movie</text>
<polyline fill="none" stroke="#2e3436" stroke-width="1.5" points="417.102,-18.5 543.102,-18.5 "/>
<text text-anchor="start" x="425.102" y="-7.1" font-family="sans-serif" font-size="8.00" fill="#1c2021">title = &#39;The American President&#39;</text>
</g>
<!-- N1&#45;&gt;N6 -->
<g id="edge3" class="edge"><title>N1&#45;&gt;N6</title>
<path fill="none" stroke="#4e9a06" stroke-width="2" d="M427.728,-81.2402C434.216,-75.6821 441.178,-69.3198 447.102,-63 452.958,-56.7519 458.791,-49.4962 463.888,-42.7222"/>
<polygon fill="#4e9a06" stroke="#4e9a06" stroke-width="2" points="468.341,-36.6793 466.608,-44.7193 466.519,-39.9948 464.294,-43.0137 463.891,-42.7171 463.489,-42.4205 465.714,-39.4016 461.174,-40.715 468.341,-36.6793 468.341,-36.6793"/>
<text text-anchor="middle" x="472.883" y="-56.6" font-family="sans-serif" font-size="8.00" fill="#4e9a06">ACTED_IN</text>
</g>
<!-- N2 -->
<g id="node5" class="node"><title>N2</title>
<path fill="#ffffff" stroke="#2e3436" stroke-width="1.5" d="M133.439,-81.5C133.439,-81.5 216.764,-81.5 216.764,-81.5 222.764,-81.5 228.764,-87.5 228.764,-93.5 228.764,-93.5 228.764,-105.5 228.764,-105.5 228.764,-111.5 222.764,-117.5 216.764,-117.5 216.764,-117.5 133.439,-117.5 133.439,-117.5 127.439,-117.5 121.439,-111.5 121.439,-105.5 121.439,-105.5 121.439,-93.5 121.439,-93.5 121.439,-87.5 127.439,-81.5 133.439,-81.5"/>
<text text-anchor="middle" x="175.102" y="-106.1" font-family="sans-serif" font-size="8.00" fill="#1c2021">Person</text>
<polyline fill="none" stroke="#2e3436" stroke-width="1.5" points="121.439,-99.5 228.764,-99.5 "/>
<text text-anchor="start" x="129.439" y="-88.1" font-family="sans-serif" font-size="8.00" fill="#1c2021">name = &#39;Michael Douglas&#39;</text>
</g>
<!-- N2&#45;&gt;N5 -->
<g id="edge6" class="edge"><title>N2&#45;&gt;N5</title>
<path fill="none" stroke="#4e9a06" stroke-width="2" d="M189.423,-81.3582C198.936,-69.9706 211.538,-54.8865 221.916,-42.4646"/>
<polygon fill="#4e9a06" stroke="#4e9a06" stroke-width="2" points="226.808,-36.6084 224.59,-44.5279 224.788,-39.8068 222.384,-42.6846 222,-42.3641 221.616,-42.0435 224.02,-39.1657 219.41,-40.2002 226.808,-36.6084 226.808,-36.6084"/>
<text text-anchor="middle" x="229.883" y="-56.6" font-family="sans-serif" font-size="8.00" fill="#4e9a06">ACTED_IN</text>
</g>
<!-- N2&#45;&gt;N6 -->
<g id="edge5" class="edge"><title>N2&#45;&gt;N6</title>
<path fill="none" stroke="#4e9a06" stroke-width="2" d="M228.881,-82.3077C257.736,-73.8081 293.968,-63.4366 326.539,-55 353.421,-48.0371 383.122,-41.0159 409.182,-35.0769"/>
<polygon fill="#4e9a06" stroke="#4e9a06" stroke-width="2" points="416.787,-33.3508 410.22,-38.3022 413.24,-34.6685 409.583,-35.4985 409.473,-35.0109 409.362,-34.5233 413.019,-33.6933 408.726,-31.7196 416.787,-33.3508 416.787,-33.3508"/>
<text text-anchor="middle" x="346.883" y="-56.6" font-family="sans-serif" font-size="8.00" fill="#4e9a06">ACTED_IN</text>
</g>
<!-- N3 -->
<g id="node6" class="node"><title>N3</title>
<path fill="#ffffff" stroke="#2e3436" stroke-width="1.5" d="M12,-81.5C12,-81.5 80.2031,-81.5 80.2031,-81.5 86.2031,-81.5 92.2031,-87.5 92.2031,-93.5 92.2031,-93.5 92.2031,-105.5 92.2031,-105.5 92.2031,-111.5 86.2031,-117.5 80.2031,-117.5 80.2031,-117.5 12,-117.5 12,-117.5 6,-117.5 0,-111.5 0,-105.5 0,-105.5 0,-93.5 0,-93.5 0,-87.5 6,-81.5 12,-81.5"/>
<text text-anchor="middle" x="46.1016" y="-106.1" font-family="sans-serif" font-size="8.00" fill="#1c2021">Person</text>
<polyline fill="none" stroke="#2e3436" stroke-width="1.5" points="0,-99.5 92.2031,-99.5 "/>
<text text-anchor="start" x="8" y="-88.1" font-family="sans-serif" font-size="8.00" fill="#1c2021">name = &#39;Oliver Stone&#39;</text>
</g>
<!-- N3&#45;&gt;N5 -->
<g id="edge7" class="edge"><title>N3&#45;&gt;N5</title>
<path fill="none" stroke="#a40000" stroke-width="2" d="M88.4137,-81.3582C119.551,-68.7436 161.885,-51.5929 194.08,-38.5499"/>
<polygon fill="#a40000" stroke="#a40000" stroke-width="2" points="201.201,-35.6648 195.517,-41.609 197.913,-37.5363 194.438,-38.9444 194.25,-38.481 194.062,-38.0176 197.538,-36.6095 192.983,-35.3529 201.201,-35.6648 201.201,-35.6648"/>
<text text-anchor="middle" x="170.547" y="-56.6" font-family="sans-serif" font-size="8.00" fill="#a40000">DIRECTED</text>
</g>
<!-- N4 -->
<g id="node7" class="node"><title>N4</title>
<path fill="#ffffff" stroke="#2e3436" stroke-width="1.5" d="M521.777,-81.5C521.777,-81.5 586.426,-81.5 586.426,-81.5 592.426,-81.5 598.426,-87.5 598.426,-93.5 598.426,-93.5 598.426,-105.5 598.426,-105.5 598.426,-111.5 592.426,-117.5 586.426,-117.5 586.426,-117.5 521.777,-117.5 521.777,-117.5 515.777,-117.5 509.777,-111.5 509.777,-105.5 509.777,-105.5 509.777,-93.5 509.777,-93.5 509.777,-87.5 515.777,-81.5 521.777,-81.5"/>
<text text-anchor="middle" x="554.102" y="-106.1" font-family="sans-serif" font-size="8.00" fill="#1c2021">Person</text>
<polyline fill="none" stroke="#2e3436" stroke-width="1.5" points="509.777,-99.5 598.426,-99.5 "/>
<text text-anchor="start" x="517.777" y="-88.1" font-family="sans-serif" font-size="8.00" fill="#1c2021">name = &#39;Rob Reiner&#39;</text>
</g>
<!-- N4&#45;&gt;N6 -->
<g id="edge8" class="edge"><title>N4&#45;&gt;N6</title>
<path fill="none" stroke="#a40000" stroke-width="2" d="M538.045,-81.3582C527.281,-69.8671 512.991,-54.6119 501.296,-42.1265"/>
<polygon fill="#a40000" stroke="#a40000" stroke-width="2" points="496.127,-36.6084 503.718,-39.7748 499.056,-39.0034 501.619,-41.7403 501.254,-42.0821 500.889,-42.4239 498.326,-39.687 498.791,-44.3894 496.127,-36.6084 496.127,-36.6084"/>
<text text-anchor="middle" x="539.547" y="-56.6" font-family="sans-serif" font-size="8.00" fill="#a40000">DIRECTED</text>
</g>
</g>
</svg>
