<?xml version="1.0" encoding="UTF-8" standalone="no"?>
<!DOCTYPE svg PUBLIC "-//W3C//DTD SVG 1.1//EN"
 "http://www.w3.org/Graphics/SVG/1.1/DTD/svg11.dtd">
<!-- Generated by graphviz version 2.38.0 (20140413.2041)
 -->
<!-- Title: g Pages: 1 -->
<svg width="68pt" height="207pt"
 viewBox="0.00 0.00 68.35 207.00" xmlns="http://www.w3.org/2000/svg" xmlns:xlink="http://www.w3.org/1999/xlink">
<g id="graph0" class="graph" transform="scale(1 1) rotate(0) translate(4 203)">
<title>g</title>
<polygon fill="white" stroke="none" points="-4,4 -4,-203 64.3535,-203 64.3535,4 -4,4"/>
<!-- N0 -->
<g id="node1" class="node"><title>N0</title>
<path fill="#ffffff" stroke="#2e3436" stroke-width="1.5" d="M12,-162.5C12,-162.5 48.2617,-162.5 48.2617,-162.5 54.2617,-162.5 60.2617,-168.5 60.2617,-174.5 60.2617,-174.5 60.2617,-186.5 60.2617,-186.5 60.2617,-192.5 54.2617,-198.5 48.2617,-198.5 48.2617,-198.5 12,-198.5 12,-198.5 6,-198.5 0,-192.5 0,-186.5 0,-186.5 0,-174.5 0,-174.5 0,-168.5 6,-162.5 12,-162.5"/>
<text text-anchor="start" x="8" y="-186.1" font-family="sans-serif" font-size="8.00" fill="#1c2021">name = &#39;A&#39;</text>
<text text-anchor="start" x="8" y="-178.1" font-family="sans-serif" font-size="8.00" fill="#1c2021">length = 170</text>
<text text-anchor="start" x="8" y="-170.1" font-family="sans-serif" font-size="8.00" fill="#1c2021">age = 34</text>
</g>
<!-- N1 -->
<g id="node2" class="node"><title>N1</title>
<path fill="#ffffff" stroke="#2e3436" stroke-width="1.5" d="M15.1309,-81.5C15.1309,-81.5 45.1309,-81.5 45.1309,-81.5 51.1309,-81.5 57.1309,-87.5 57.1309,-93.5 57.1309,-93.5 57.1309,-105.5 57.1309,-105.5 57.1309,-111.5 51.1309,-117.5 45.1309,-117.5 45.1309,-117.5 15.1309,-117.5 15.1309,-117.5 9.13086,-117.5 3.13086,-111.5 3.13086,-105.5 3.13086,-105.5 3.13086,-93.5 3.13086,-93.5 3.13086,-87.5 9.13086,-81.5 15.1309,-81.5"/>
<text text-anchor="start" x="11.1309" y="-101.1" font-family="sans-serif" font-size="8.00" fill="#1c2021">name = &#39;B&#39;</text>
<text text-anchor="start" x="11.1309" y="-93.1" font-family="sans-serif" font-size="8.00" fill="#1c2021">age = 34</text>
</g>
<!-- N0&#45;&gt;N1 -->
<g id="edge1" class="edge"><title>N0&#45;&gt;N1</title>
<path fill="none" stroke="#2e3436" stroke-width="2" d="M30.1309,-162.358C30.1309,-151.488 30.1309,-137.25 30.1309,-125.174"/>
<polygon fill="#2e3436" stroke="#2e3436" stroke-width="2" points="30.1309,-117.608 33.506,-125.108 30.6309,-121.358 30.631,-125.108 30.131,-125.108 29.631,-125.108 29.6309,-121.358 26.756,-125.108 30.1309,-117.608 30.1309,-117.608"/>
<text text-anchor="middle" x="45.2422" y="-137.6" font-family="sans-serif" font-size="8.00" fill="#2e3436">KNOWS</text>
</g>
<!-- N2 -->
<g id="node3" class="node"><title>N2</title>
<path fill="#ffffff" stroke="#2e3436" stroke-width="1.5" d="M12,-0.5C12,-0.5 48.2617,-0.5 48.2617,-0.5 54.2617,-0.5 60.2617,-6.5 60.2617,-12.5 60.2617,-12.5 60.2617,-24.5 60.2617,-24.5 60.2617,-30.5 54.2617,-36.5 48.2617,-36.5 48.2617,-36.5 12,-36.5 12,-36.5 6,-36.5 0,-30.5 0,-24.5 0,-24.5 0,-12.5 0,-12.5 0,-6.5 6,-0.5 12,-0.5"/>
<text text-anchor="start" x="8" y="-24.1" font-family="sans-serif" font-size="8.00" fill="#1c2021">name = &#39;C&#39;</text>
<text text-anchor="start" x="8" y="-16.1" font-family="sans-serif" font-size="8.00" fill="#1c2021">length = 185</text>
<text text-anchor="start" x="8" y="-8.1" font-family="sans-serif" font-size="8.00" fill="#1c2021">age = 32</text>
</g>
<!-- N1&#45;&gt;N2 -->
<g id="edge2" class="edge"><title>N1&#45;&gt;N2</title>
<path fill="none" stroke="#2e3436" stroke-width="2" d="M30.1309,-81.3582C30.1309,-70.4883 30.1309,-56.2501 30.1309,-44.1744"/>
<polygon fill="#2e3436" stroke="#2e3436" stroke-width="2" points="30.1309,-36.6084 33.506,-44.1083 30.6309,-40.3584 30.631,-44.1084 30.131,-44.1084 29.631,-44.1084 29.6309,-40.3584 26.756,-44.1084 30.1309,-36.6084 30.1309,-36.6084"/>
<text text-anchor="middle" x="45.2422" y="-56.6" font-family="sans-serif" font-size="8.00" fill="#2e3436">KNOWS</text>
</g>
</g>
</svg>
