<?xml version="1.0" encoding="UTF-8" standalone="no"?>
<!DOCTYPE svg PUBLIC "-//W3C//DTD SVG 1.1//EN"
 "http://www.w3.org/Graphics/SVG/1.1/DTD/svg11.dtd">
<!-- Generated by graphviz version 2.38.0 (20140413.2041)
 -->
<!-- Title: g Pages: 1 -->
<svg width="280pt" height="207pt"
 viewBox="0.00 0.00 280.42 207.00" xmlns="http://www.w3.org/2000/svg" xmlns:xlink="http://www.w3.org/1999/xlink">
<g id="graph0" class="graph" transform="scale(1 1) rotate(0) translate(4 203)">
<title>g</title>
<polygon fill="white" stroke="none" points="-4,4 -4,-203 276.416,-203 276.416,4 -4,4"/>
<!-- N0 -->
<g id="node1" class="node"><title>N0</title>
<path fill="#ffffff" stroke="#2e3436" stroke-width="1.5" d="M113.666,-162.5C113.666,-162.5 163.197,-162.5 163.197,-162.5 169.197,-162.5 175.197,-168.5 175.197,-174.5 175.197,-174.5 175.197,-186.5 175.197,-186.5 175.197,-192.5 169.197,-198.5 163.197,-198.5 163.197,-198.5 113.666,-198.5 113.666,-198.5 107.666,-198.5 101.666,-192.5 101.666,-186.5 101.666,-186.5 101.666,-174.5 101.666,-174.5 101.666,-168.5 107.666,-162.5 113.666,-162.5"/>
<text text-anchor="start" x="109.666" y="-178.1" font-family="sans-serif" font-size="8.00" fill="#1c2021">name = &#39;Anders&#39;</text>
</g>
<!-- N3 -->
<g id="node2" class="node"><title>N3</title>
<path fill="#ffffff" stroke="#2e3436" stroke-width="1.5" d="M12,-81.5C12,-81.5 62.8633,-81.5 62.8633,-81.5 68.8633,-81.5 74.8633,-87.5 74.8633,-93.5 74.8633,-93.5 74.8633,-105.5 74.8633,-105.5 74.8633,-111.5 68.8633,-117.5 62.8633,-117.5 62.8633,-117.5 12,-117.5 12,-117.5 6,-117.5 0,-111.5 0,-105.5 0,-105.5 0,-93.5 0,-93.5 0,-87.5 6,-81.5 12,-81.5"/>
<text text-anchor="start" x="8" y="-97.1" font-family="sans-serif" font-size="8.00" fill="#1c2021">name = &#39;Dilshad&#39;</text>
</g>
<!-- N0&#45;&gt;N3 -->
<g id="edge1" class="edge"><title>N0&#45;&gt;N3</title>
<path fill="none" stroke="#2e3436" stroke-width="2" d="M116.516,-162.358C101.56,-150.66 81.6172,-135.061 65.4999,-122.454"/>
<polygon fill="#2e3436" stroke="#2e3436" stroke-width="2" points="59.3044,-117.608 67.2913,-119.571 62.5662,-119.525 65.52,-121.835 65.2119,-122.229 64.9039,-122.623 61.9501,-120.313 63.1326,-124.888 59.3044,-117.608 59.3044,-117.608"/>
<text text-anchor="middle" x="106.543" y="-137.6" font-family="sans-serif" font-size="8.00" fill="#2e3436">KNOWS</text>
</g>
<!-- N2 -->
<g id="node3" class="node"><title>N2</title>
<path fill="#ffffff" stroke="#2e3436" stroke-width="1.5" d="M115.67,-81.5C115.67,-81.5 161.193,-81.5 161.193,-81.5 167.193,-81.5 173.193,-87.5 173.193,-93.5 173.193,-93.5 173.193,-105.5 173.193,-105.5 173.193,-111.5 167.193,-117.5 161.193,-117.5 161.193,-117.5 115.67,-117.5 115.67,-117.5 109.67,-117.5 103.67,-111.5 103.67,-105.5 103.67,-105.5 103.67,-93.5 103.67,-93.5 103.67,-87.5 109.67,-81.5 115.67,-81.5"/>
<text text-anchor="start" x="111.67" y="-97.1" font-family="sans-serif" font-size="8.00" fill="#1c2021">name = &#39;Cesar&#39;</text>
</g>
<!-- N0&#45;&gt;N2 -->
<g id="edge2" class="edge"><title>N0&#45;&gt;N2</title>
<path fill="none" stroke="#2e3436" stroke-width="2" d="M138.432,-162.358C138.432,-151.488 138.432,-137.25 138.432,-125.174"/>
<polygon fill="#2e3436" stroke="#2e3436" stroke-width="2" points="138.432,-117.608 141.807,-125.108 138.932,-121.358 138.932,-125.108 138.432,-125.108 137.932,-125.108 137.932,-121.358 135.057,-125.108 138.432,-117.608 138.432,-117.608"/>
<text text-anchor="middle" x="153.543" y="-137.6" font-family="sans-serif" font-size="8.00" fill="#2e3436">KNOWS</text>
</g>
<!-- N1 -->
<g id="node4" class="node"><title>N1</title>
<path fill="#ffffff" stroke="#2e3436" stroke-width="1.5" d="M214.447,-81.5C214.447,-81.5 260.416,-81.5 260.416,-81.5 266.416,-81.5 272.416,-87.5 272.416,-93.5 272.416,-93.5 272.416,-105.5 272.416,-105.5 272.416,-111.5 266.416,-117.5 260.416,-117.5 260.416,-117.5 214.447,-117.5 214.447,-117.5 208.447,-117.5 202.447,-111.5 202.447,-105.5 202.447,-105.5 202.447,-93.5 202.447,-93.5 202.447,-87.5 208.447,-81.5 214.447,-81.5"/>
<text text-anchor="start" x="210.447" y="-97.1" font-family="sans-serif" font-size="8.00" fill="#1c2021">name = &#39;Becky&#39;</text>
</g>
<!-- N0&#45;&gt;N1 -->
<g id="edge3" class="edge"><title>N0&#45;&gt;N1</title>
<path fill="none" stroke="#2e3436" stroke-width="2" d="M159.913,-162.358C174.573,-150.66 194.121,-135.061 209.919,-122.454"/>
<polygon fill="#2e3436" stroke="#2e3436" stroke-width="2" points="215.992,-117.608 212.235,-124.924 213.373,-120.338 210.442,-122.677 210.13,-122.286 209.818,-121.896 212.749,-119.557 208.025,-119.648 215.992,-117.608 215.992,-117.608"/>
<text text-anchor="middle" x="206.543" y="-137.6" font-family="sans-serif" font-size="8.00" fill="#2e3436">KNOWS</text>
</g>
<!-- N5 -->
<g id="node6" class="node"><title>N5</title>
<path fill="#ffffff" stroke="#2e3436" stroke-width="1.5" d="M15.7812,-0.5C15.7812,-0.5 59.082,-0.5 59.082,-0.5 65.082,-0.5 71.082,-6.5 71.082,-12.5 71.082,-12.5 71.082,-24.5 71.082,-24.5 71.082,-30.5 65.082,-36.5 59.082,-36.5 59.082,-36.5 15.7812,-36.5 15.7812,-36.5 9.78125,-36.5 3.78125,-30.5 3.78125,-24.5 3.78125,-24.5 3.78125,-12.5 3.78125,-12.5 3.78125,-6.5 9.78125,-0.5 15.7812,-0.5"/>
<text text-anchor="start" x="11.7812" y="-16.1" font-family="sans-serif" font-size="8.00" fill="#1c2021">name = &#39;Filipa&#39;</text>
</g>
<!-- N3&#45;&gt;N5 -->
<g id="edge6" class="edge"><title>N3&#45;&gt;N5</title>
<path fill="none" stroke="#2e3436" stroke-width="2" d="M37.4316,-81.3582C37.4316,-70.4883 37.4316,-56.2501 37.4316,-44.1744"/>
<polygon fill="#2e3436" stroke="#2e3436" stroke-width="2" points="37.4316,-36.6084 40.8067,-44.1083 37.9317,-40.3584 37.9317,-44.1084 37.4317,-44.1084 36.9317,-44.1084 36.9317,-40.3584 34.0567,-44.1084 37.4316,-36.6084 37.4316,-36.6084"/>
<text text-anchor="middle" x="52.543" y="-56.6" font-family="sans-serif" font-size="8.00" fill="#2e3436">KNOWS</text>
</g>
<!-- N4 -->
<g id="node5" class="node"><title>N4</title>
<path fill="#ffffff" stroke="#2e3436" stroke-width="1.5" d="M153.998,-0.5C153.998,-0.5 204.865,-0.5 204.865,-0.5 210.865,-0.5 216.865,-6.5 216.865,-12.5 216.865,-12.5 216.865,-24.5 216.865,-24.5 216.865,-30.5 210.865,-36.5 204.865,-36.5 204.865,-36.5 153.998,-36.5 153.998,-36.5 147.998,-36.5 141.998,-30.5 141.998,-24.5 141.998,-24.5 141.998,-12.5 141.998,-12.5 141.998,-6.5 147.998,-0.5 153.998,-0.5"/>
<text text-anchor="start" x="149.998" y="-16.1" font-family="sans-serif" font-size="8.00" fill="#1c2021">name = &#39;George&#39;</text>
</g>
<!-- N2&#45;&gt;N4 -->
<g id="edge5" class="edge"><title>N2&#45;&gt;N4</title>
<path fill="none" stroke="#2e3436" stroke-width="2" d="M147.328,-81.3582C153.077,-70.2812 160.641,-55.7065 166.983,-43.4868"/>
<polygon fill="#2e3436" stroke="#2e3436" stroke-width="2" points="170.553,-36.6084 170.093,-44.82 169.269,-40.1671 167.542,-43.4956 167.098,-43.2653 166.654,-43.0349 168.381,-39.7065 164.102,-41.7106 170.553,-36.6084 170.553,-36.6084"/>
<text text-anchor="middle" x="175.543" y="-56.6" font-family="sans-serif" font-size="8.00" fill="#2e3436">KNOWS</text>
</g>
<!-- N1&#45;&gt;N4 -->
<g id="edge4" class="edge"><title>N1&#45;&gt;N4</title>
<path fill="none" stroke="#2e3436" stroke-width="2" d="M224.847,-81.3582C216.562,-70.0742 205.613,-55.1604 196.541,-42.8041"/>
<polygon fill="#2e3436" stroke="#2e3436" stroke-width="2" points="191.992,-36.6084 199.151,-40.6566 194.615,-39.3353 196.834,-42.3581 196.431,-42.654 196.028,-42.9499 193.808,-39.9271 193.71,-44.6514 191.992,-36.6084 191.992,-36.6084"/>
<text text-anchor="middle" x="225.543" y="-56.6" font-family="sans-serif" font-size="8.00" fill="#2e3436">KNOWS</text>
</g>
</g>
</svg>
