<?xml version="1.0" encoding="UTF-8" standalone="no"?>
<!DOCTYPE svg PUBLIC "-//W3C//DTD SVG 1.1//EN"
 "http://www.w3.org/Graphics/SVG/1.1/DTD/svg11.dtd">
<!-- Generated by graphviz version 2.38.0 (20140413.2041)
 -->
<!-- Title: g Pages: 1 -->
<svg width="504pt" height="215pt"
 viewBox="0.00 0.00 504.00 214.92" xmlns="http://www.w3.org/2000/svg" xmlns:xlink="http://www.w3.org/1999/xlink">
<g id="graph0" class="graph" transform="scale(0.999606 0.999606) rotate(0) translate(4 211)">
<title>g</title>
<polygon fill="white" stroke="none" points="-4,4 -4,-211 500.198,-211 500.198,4 -4,4"/>
<!-- N0 -->
<g id="node1" class="node"><title>N0</title>
<path fill="#ffffff" stroke="#2e3436" stroke-width="1.5" d="M14.5617,-166.5C14.5617,-166.5 61.4211,-166.5 61.4211,-166.5 67.4211,-166.5 73.4211,-172.5 73.4211,-178.5 73.4211,-178.5 73.4211,-194.5 73.4211,-194.5 73.4211,-200.5 67.4211,-206.5 61.4211,-206.5 61.4211,-206.5 14.5617,-206.5 14.5617,-206.5 8.56169,-206.5 2.56169,-200.5 2.56169,-194.5 2.56169,-194.5 2.56169,-178.5 2.56169,-178.5 2.56169,-172.5 8.56169,-166.5 14.5617,-166.5"/>
<text text-anchor="middle" x="37.9914" y="-196.1" font-family="sans-serif" font-size="8.00" fill="#1c2021">Scientist</text>
<polyline fill="none" stroke="#2e3436" stroke-width="1.5" points="2.56169,-190.5 73.4211,-190.5 "/>
<text text-anchor="start" x="10.5617" y="-180.1" font-family="sans-serif" font-size="8.00" fill="#1c2021">name = &#39;Liskov&#39;</text>
<text text-anchor="start" x="10.5617" y="-172.1" font-family="sans-serif" font-size="8.00" fill="#1c2021">born = 1939</text>
</g>
<!-- N2 -->
<g id="node2" class="node"><title>N2</title>
<path fill="#ffffff" stroke="#2e3436" stroke-width="1.5" d="M69.9953,-0.5C69.9953,-0.5 159.987,-0.5 159.987,-0.5 165.987,-0.5 171.987,-6.5 171.987,-12.5 171.987,-12.5 171.987,-24.5 171.987,-24.5 171.987,-30.5 165.987,-36.5 159.987,-36.5 159.987,-36.5 69.9953,-36.5 69.9953,-36.5 63.9953,-36.5 57.9953,-30.5 57.9953,-24.5 57.9953,-24.5 57.9953,-12.5 57.9953,-12.5 57.9953,-6.5 63.9953,-0.5 69.9953,-0.5"/>
<text text-anchor="middle" x="114.991" y="-25.1" font-family="sans-serif" font-size="8.00" fill="#1c2021">Science</text>
<polyline fill="none" stroke="#2e3436" stroke-width="1.5" points="57.9953,-18.5 171.987,-18.5 "/>
<text text-anchor="start" x="65.9953" y="-7.1" font-family="sans-serif" font-size="8.00" fill="#1c2021">name = &#39;Computer Science&#39;</text>
</g>
<!-- N0&#45;&gt;N2 -->
<g id="edge1" class="edge"><title>N0&#45;&gt;N2</title>
<path fill="none" stroke="#2e3436" stroke-width="2" d="M23.4197,-166.306C8.77685,-144.483 -9.51215,-108.345 6.42497,-81 17.1114,-62.6645 35.5184,-49.3559 54.1717,-39.9119"/>
<polygon fill="#2e3436" stroke="#2e3436" stroke-width="2" points="61.0413,-36.6052 55.7473,-42.8992 57.8793,-38.6822 54.5003,-40.3087 54.2835,-39.8581 54.0666,-39.4076 57.4455,-37.7811 52.8196,-36.8171 61.0413,-36.6052 61.0413,-36.6052"/>
<text text-anchor="middle" x="34.7746" y="-99.1" font-family="sans-serif" font-size="8.00" fill="#2e3436">RESEARCHED</text>
</g>
<!-- N1 -->
<g id="node3" class="node"><title>N1</title>
<path fill="#ffffff" stroke="#2e3436" stroke-width="1.5" d="M194.786,-81.5C194.786,-81.5 237.196,-81.5 237.196,-81.5 243.196,-81.5 249.196,-87.5 249.196,-93.5 249.196,-93.5 249.196,-109.5 249.196,-109.5 249.196,-115.5 243.196,-121.5 237.196,-121.5 237.196,-121.5 194.786,-121.5 194.786,-121.5 188.786,-121.5 182.786,-115.5 182.786,-109.5 182.786,-109.5 182.786,-93.5 182.786,-93.5 182.786,-87.5 188.786,-81.5 194.786,-81.5"/>
<text text-anchor="middle" x="215.991" y="-111.1" font-family="sans-serif" font-size="8.00" fill="#1c2021">Scientist</text>
<polyline fill="none" stroke="#2e3436" stroke-width="1.5" points="182.786,-105.5 249.196,-105.5 "/>
<text text-anchor="start" x="190.786" y="-95.1" font-family="sans-serif" font-size="8.00" fill="#1c2021">name = &#39;Wing&#39;</text>
<text text-anchor="start" x="190.786" y="-87.1" font-family="sans-serif" font-size="8.00" fill="#1c2021">born = 1956</text>
</g>
<!-- N0&#45;&gt;N1 -->
<g id="edge2" class="edge"><title>N0&#45;&gt;N1</title>
<path fill="none" stroke="#4e9a06" stroke-width="2" d="M53.426,-166.06C61.761,-156.825 72.788,-146.426 84.7687,-140 118.118,-122.114 131.832,-133.163 167.991,-122 170.398,-121.257 172.852,-120.443 175.315,-119.583"/>
<polygon fill="#4e9a06" stroke="#4e9a06" stroke-width="2" points="182.69,-116.888 176.804,-122.633 179.339,-118.645 175.817,-119.932 175.645,-119.463 175.474,-118.993 178.996,-117.706 174.487,-116.293 182.69,-116.888 182.69,-116.888"/>
<text text-anchor="middle" x="100.103" y="-141.6" font-family="sans-serif" font-size="8.00" fill="#4e9a06">KNOWS</text>
</g>
<!-- N1&#45;&gt;N2 -->
<g id="edge4" class="edge"><title>N1&#45;&gt;N2</title>
<path fill="none" stroke="#2e3436" stroke-width="2" d="M199.39,-81.2995C191.526,-72.7569 181.735,-62.873 171.991,-55 165.87,-50.0544 159.015,-45.2488 152.237,-40.8531"/>
<polygon fill="#2e3436" stroke="#2e3436" stroke-width="2" points="145.515,-36.6041 153.658,-37.7589 148.952,-38.1853 152.122,-40.189 151.855,-40.6117 151.588,-41.0343 148.418,-39.0305 150.051,-43.4645 145.515,-36.6041 145.515,-36.6041"/>
<text text-anchor="middle" x="209.775" y="-56.6" font-family="sans-serif" font-size="8.00" fill="#2e3436">RESEARCHED</text>
</g>
<!-- N4 -->
<g id="node4" class="node"><title>N4</title>
<path fill="#ffffff" stroke="#2e3436" stroke-width="1.5" d="M261.55,-0.5C261.55,-0.5 328.433,-0.5 328.433,-0.5 334.433,-0.5 340.433,-6.5 340.433,-12.5 340.433,-12.5 340.433,-24.5 340.433,-24.5 340.433,-30.5 334.433,-36.5 328.433,-36.5 328.433,-36.5 261.55,-36.5 261.55,-36.5 255.55,-36.5 249.55,-30.5 249.55,-24.5 249.55,-24.5 249.55,-12.5 249.55,-12.5 249.55,-6.5 255.55,-0.5 261.55,-0.5"/>
<text text-anchor="middle" x="294.991" y="-25.1" font-family="sans-serif" font-size="8.00" fill="#1c2021">Science</text>
<polyline fill="none" stroke="#2e3436" stroke-width="1.5" points="249.55,-18.5 340.433,-18.5 "/>
<text text-anchor="start" x="257.55" y="-7.1" font-family="sans-serif" font-size="8.00" fill="#1c2021">name = &#39;Engineering&#39;</text>
</g>
<!-- N1&#45;&gt;N4 -->
<g id="edge3" class="edge"><title>N1&#45;&gt;N4</title>
<path fill="none" stroke="#2e3436" stroke-width="2" d="M241.762,-81.2854C248.625,-75.6979 255.836,-69.3743 261.991,-63 267.94,-56.8395 273.8,-49.6095 278.893,-42.8322"/>
<polygon fill="#2e3436" stroke="#2e3436" stroke-width="2" points="283.335,-36.779 281.619,-44.8224 281.52,-40.0981 279.301,-43.1214 278.898,-42.8256 278.495,-42.5298 280.714,-39.5065 276.177,-40.8288 283.335,-36.779 283.335,-36.779"/>
<text text-anchor="middle" x="296.775" y="-56.6" font-family="sans-serif" font-size="8.00" fill="#2e3436">RESEARCHED</text>
</g>
<!-- N3 -->
<g id="node5" class="node"><title>N3</title>
<path fill="#ffffff" stroke="#2e3436" stroke-width="1.5" d="M88.4484,-81.5C88.4484,-81.5 141.534,-81.5 141.534,-81.5 147.534,-81.5 153.534,-87.5 153.534,-93.5 153.534,-93.5 153.534,-109.5 153.534,-109.5 153.534,-115.5 147.534,-121.5 141.534,-121.5 141.534,-121.5 88.4484,-121.5 88.4484,-121.5 82.4484,-121.5 76.4484,-115.5 76.4484,-109.5 76.4484,-109.5 76.4484,-93.5 76.4484,-93.5 76.4484,-87.5 82.4484,-81.5 88.4484,-81.5"/>
<text text-anchor="middle" x="114.991" y="-111.1" font-family="sans-serif" font-size="8.00" fill="#1c2021">Scientist</text>
<polyline fill="none" stroke="#2e3436" stroke-width="1.5" points="76.4484,-105.5 153.534,-105.5 "/>
<text text-anchor="start" x="84.4484" y="-95.1" font-family="sans-serif" font-size="8.00" fill="#1c2021">name = &#39;Conway&#39;</text>
<text text-anchor="start" x="84.4484" y="-87.1" font-family="sans-serif" font-size="8.00" fill="#1c2021">born = 1938</text>
</g>
<!-- N3&#45;&gt;N2 -->
<g id="edge5" class="edge"><title>N3&#45;&gt;N2</title>
<path fill="none" stroke="#2e3436" stroke-width="2" d="M113.857,-81.4645C113.496,-73.3153 113.233,-63.6923 113.425,-55 113.5,-51.5769 113.617,-47.9696 113.753,-44.4187"/>
<polygon fill="#2e3436" stroke="#2e3436" stroke-width="2" points="114.074,-36.8289 117.129,-44.4648 114.415,-40.5967 114.256,-44.3434 113.757,-44.3222 113.257,-44.3011 113.416,-40.5545 110.385,-44.1797 114.074,-36.8289 114.074,-36.8289"/>
<text text-anchor="middle" x="141.775" y="-56.6" font-family="sans-serif" font-size="8.00" fill="#2e3436">RESEARCHED</text>
</g>
<!-- N5 -->
<g id="node6" class="node"><title>N5</title>
<path fill="#ffffff" stroke="#2e3436" stroke-width="1.5" d="M309.898,-83.5C309.898,-83.5 370.085,-83.5 370.085,-83.5 376.085,-83.5 382.085,-89.5 382.085,-95.5 382.085,-95.5 382.085,-107.5 382.085,-107.5 382.085,-113.5 376.085,-119.5 370.085,-119.5 370.085,-119.5 309.898,-119.5 309.898,-119.5 303.898,-119.5 297.898,-113.5 297.898,-107.5 297.898,-107.5 297.898,-95.5 297.898,-95.5 297.898,-89.5 303.898,-83.5 309.898,-83.5"/>
<text text-anchor="middle" x="339.991" y="-108.1" font-family="sans-serif" font-size="8.00" fill="#1c2021">Science</text>
<polyline fill="none" stroke="#2e3436" stroke-width="1.5" points="297.898,-101.5 382.085,-101.5 "/>
<text text-anchor="start" x="305.898" y="-90.1" font-family="sans-serif" font-size="8.00" fill="#1c2021">name = &#39;Chemistry&#39;</text>
</g>
<!-- N6 -->
<g id="node7" class="node"><title>N6</title>
<path fill="#ffffff" stroke="#2e3436" stroke-width="1.5" d="M129.341,-166.5C129.341,-166.5 172.642,-166.5 172.642,-166.5 178.642,-166.5 184.642,-172.5 184.642,-178.5 184.642,-178.5 184.642,-194.5 184.642,-194.5 184.642,-200.5 178.642,-206.5 172.642,-206.5 172.642,-206.5 129.341,-206.5 129.341,-206.5 123.341,-206.5 117.341,-200.5 117.341,-194.5 117.341,-194.5 117.341,-178.5 117.341,-178.5 117.341,-172.5 123.341,-166.5 129.341,-166.5"/>
<text text-anchor="middle" x="150.991" y="-196.1" font-family="sans-serif" font-size="8.00" fill="#1c2021">Scientist</text>
<polyline fill="none" stroke="#2e3436" stroke-width="1.5" points="117.341,-190.5 184.642,-190.5 "/>
<text text-anchor="start" x="125.341" y="-180.1" font-family="sans-serif" font-size="8.00" fill="#1c2021">name = &#39;Curie&#39;</text>
<text text-anchor="start" x="125.341" y="-172.1" font-family="sans-serif" font-size="8.00" fill="#1c2021">born = 1867</text>
</g>
<!-- N6&#45;&gt;N5 -->
<g id="edge6" class="edge"><title>N6&#45;&gt;N5</title>
<path fill="none" stroke="#2e3436" stroke-width="2" d="M172.793,-166.399C184.016,-157.362 198.285,-147.036 212.425,-140 226.286,-133.103 260.642,-123.139 290.212,-115.215"/>
<polygon fill="#2e3436" stroke="#2e3436" stroke-width="2" points="297.611,-113.247 291.23,-118.436 294.115,-114.694 290.491,-115.658 290.363,-115.175 290.234,-114.692 293.859,-113.728 289.496,-111.913 297.611,-113.247 297.611,-113.247"/>
<text text-anchor="middle" x="240.775" y="-141.6" font-family="sans-serif" font-size="8.00" fill="#2e3436">RESEARCHED</text>
</g>
<!-- N7 -->
<g id="node8" class="node"><title>N7</title>
<path fill="#ffffff" stroke="#2e3436" stroke-width="1.5" d="M225.226,-168.5C225.226,-168.5 270.757,-168.5 270.757,-168.5 276.757,-168.5 282.757,-174.5 282.757,-180.5 282.757,-180.5 282.757,-192.5 282.757,-192.5 282.757,-198.5 276.757,-204.5 270.757,-204.5 270.757,-204.5 225.226,-204.5 225.226,-204.5 219.226,-204.5 213.226,-198.5 213.226,-192.5 213.226,-192.5 213.226,-180.5 213.226,-180.5 213.226,-174.5 219.226,-168.5 225.226,-168.5"/>
<text text-anchor="middle" x="247.991" y="-193.1" font-family="sans-serif" font-size="8.00" fill="#1c2021">Scientist</text>
<polyline fill="none" stroke="#2e3436" stroke-width="1.5" points="213.226,-186.5 282.757,-186.5 "/>
<text text-anchor="start" x="221.226" y="-175.1" font-family="sans-serif" font-size="8.00" fill="#1c2021">name = &#39;Arden&#39;</text>
</g>
<!-- N7&#45;&gt;N5 -->
<g id="edge7" class="edge"><title>N7&#45;&gt;N5</title>
<path fill="none" stroke="#2e3436" stroke-width="2" d="M258.847,-168.364C265.079,-159.312 273.438,-148.375 282.425,-140 288.638,-134.21 295.848,-128.74 303.02,-123.859"/>
<polygon fill="#2e3436" stroke="#2e3436" stroke-width="2" points="309.567,-119.551 305.157,-126.493 306.709,-122.03 303.577,-124.092 303.302,-123.674 303.027,-123.257 306.159,-121.195 301.446,-120.855 309.567,-119.551 309.567,-119.551"/>
<text text-anchor="middle" x="310.775" y="-141.6" font-family="sans-serif" font-size="8.00" fill="#2e3436">RESEARCHED</text>
</g>
<!-- N8 -->
<g id="node9" class="node"><title>N8</title>
<path fill="#ffffff" stroke="#2e3436" stroke-width="1.5" d="M323.673,-168.5C323.673,-168.5 376.31,-168.5 376.31,-168.5 382.31,-168.5 388.31,-174.5 388.31,-180.5 388.31,-180.5 388.31,-192.5 388.31,-192.5 388.31,-198.5 382.31,-204.5 376.31,-204.5 376.31,-204.5 323.673,-204.5 323.673,-204.5 317.673,-204.5 311.673,-198.5 311.673,-192.5 311.673,-192.5 311.673,-180.5 311.673,-180.5 311.673,-174.5 317.673,-168.5 323.673,-168.5"/>
<text text-anchor="middle" x="349.991" y="-193.1" font-family="sans-serif" font-size="8.00" fill="#1c2021">Scientist</text>
<polyline fill="none" stroke="#2e3436" stroke-width="1.5" points="311.673,-186.5 388.31,-186.5 "/>
<text text-anchor="start" x="319.673" y="-175.1" font-family="sans-serif" font-size="8.00" fill="#1c2021">name = &#39;Franklin&#39;</text>
</g>
<!-- N8&#45;&gt;N5 -->
<g id="edge8" class="edge"><title>N8&#45;&gt;N5</title>
<path fill="none" stroke="#2e3436" stroke-width="2" d="M347.919,-168.302C346.498,-156.506 344.589,-140.664 343.001,-127.481"/>
<polygon fill="#2e3436" stroke="#2e3436" stroke-width="2" points="342.061,-119.676 346.309,-126.718 343.006,-123.339 343.454,-127.062 342.958,-127.122 342.462,-127.182 342.013,-123.459 339.607,-127.526 342.061,-119.676 342.061,-119.676"/>
<text text-anchor="middle" x="373.775" y="-141.6" font-family="sans-serif" font-size="8.00" fill="#2e3436">RESEARCHED</text>
</g>
<!-- N9 -->
<g id="node10" class="node"><title>N9</title>
<path fill="#ffffff" stroke="#2e3436" stroke-width="1.5" d="M429.784,-168.5C429.784,-168.5 484.198,-168.5 484.198,-168.5 490.198,-168.5 496.198,-174.5 496.198,-180.5 496.198,-180.5 496.198,-192.5 496.198,-192.5 496.198,-198.5 490.198,-204.5 484.198,-204.5 484.198,-204.5 429.784,-204.5 429.784,-204.5 423.784,-204.5 417.784,-198.5 417.784,-192.5 417.784,-192.5 417.784,-180.5 417.784,-180.5 417.784,-174.5 423.784,-168.5 429.784,-168.5"/>
<text text-anchor="middle" x="456.991" y="-193.1" font-family="sans-serif" font-size="8.00" fill="#1c2021">Scientist</text>
<polyline fill="none" stroke="#2e3436" stroke-width="1.5" points="417.784,-186.5 496.198,-186.5 "/>
<text text-anchor="start" x="425.784" y="-175.1" font-family="sans-serif" font-size="8.00" fill="#1c2021">name = &#39;Harrison&#39;</text>
</g>
<!-- N9&#45;&gt;N5 -->
<g id="edge9" class="edge"><title>N9&#45;&gt;N5</title>
<path fill="none" stroke="#2e3436" stroke-width="2" d="M441.055,-168.358C432.133,-159.305 420.511,-148.368 408.991,-140 400.817,-134.062 391.592,-128.419 382.611,-123.398"/>
<polygon fill="#2e3436" stroke="#2e3436" stroke-width="2" points="375.812,-119.685 384.012,-120.318 379.343,-121.044 382.634,-122.841 382.395,-123.28 382.155,-123.719 378.864,-121.921 380.777,-126.242 375.812,-119.685 375.812,-119.685"/>
<text text-anchor="middle" x="446.775" y="-141.6" font-family="sans-serif" font-size="8.00" fill="#2e3436">RESEARCHED</text>
</g>
</g>
</svg>
