<?xml version="1.0" encoding="UTF-8" standalone="no"?>
<!DOCTYPE svg PUBLIC "-//W3C//DTD SVG 1.1//EN"
 "http://www.w3.org/Graphics/SVG/1.1/DTD/svg11.dtd">
<!-- Generated by graphviz version 2.38.0 (20140413.2041)
 -->
<!-- Title: g Pages: 1 -->
<svg width="228pt" height="211pt"
 viewBox="0.00 0.00 227.70 211.00" xmlns="http://www.w3.org/2000/svg" xmlns:xlink="http://www.w3.org/1999/xlink">
<g id="graph0" class="graph" transform="scale(1 1) rotate(0) translate(4 207)">
<title>g</title>
<polygon fill="white" stroke="none" points="-4,4 -4,-207 223.701,-207 223.701,4 -4,4"/>
<!-- N0 -->
<g id="node1" class="node"><title>N0</title>
<path fill="#ffffff" stroke="#2e3436" stroke-width="1.5" d="M63.334,-166.5C63.334,-166.5 106.193,-166.5 106.193,-166.5 112.193,-166.5 118.193,-172.5 118.193,-178.5 118.193,-178.5 118.193,-190.5 118.193,-190.5 118.193,-196.5 112.193,-202.5 106.193,-202.5 106.193,-202.5 63.334,-202.5 63.334,-202.5 57.334,-202.5 51.334,-196.5 51.334,-190.5 51.334,-190.5 51.334,-178.5 51.334,-178.5 51.334,-172.5 57.334,-166.5 63.334,-166.5"/>
<text text-anchor="start" x="59.334" y="-190.1" font-family="sans-serif" font-size="8.00" fill="#1c2021">name = &#39;Alice&#39;</text>
<text text-anchor="start" x="59.334" y="-182.1" font-family="sans-serif" font-size="8.00" fill="#1c2021">eyes = &#39;brown&#39;</text>
<text text-anchor="start" x="59.334" y="-174.1" font-family="sans-serif" font-size="8.00" fill="#1c2021">age = 38</text>
</g>
<!-- N2 -->
<g id="node2" class="node"><title>N2</title>
<path fill="#ffffff" stroke="#2e3436" stroke-width="1.5" d="M12,-85.5C12,-85.5 61.5273,-85.5 61.5273,-85.5 67.5273,-85.5 73.5273,-91.5 73.5273,-97.5 73.5273,-97.5 73.5273,-109.5 73.5273,-109.5 73.5273,-115.5 67.5273,-121.5 61.5273,-121.5 61.5273,-121.5 12,-121.5 12,-121.5 6,-121.5 0,-115.5 0,-109.5 0,-109.5 0,-97.5 0,-97.5 0,-91.5 6,-85.5 12,-85.5"/>
<text text-anchor="start" x="8" y="-109.1" font-family="sans-serif" font-size="8.00" fill="#1c2021">name = &#39;Charlie&#39;</text>
<text text-anchor="start" x="8" y="-101.1" font-family="sans-serif" font-size="8.00" fill="#1c2021">eyes = &#39;green&#39;</text>
<text text-anchor="start" x="8" y="-93.1" font-family="sans-serif" font-size="8.00" fill="#1c2021">age = 53</text>
</g>
<!-- N0&#45;&gt;N2 -->
<g id="edge1" class="edge"><title>N0&#45;&gt;N2</title>
<path fill="none" stroke="#2e3436" stroke-width="2" d="M71.0752,-166.22C66.8426,-160.557 62.3068,-154.14 58.541,-148 54.7794,-141.867 51.1098,-134.999 47.8875,-128.564"/>
<polygon fill="#2e3436" stroke="#2e3436" stroke-width="2" points="44.5833,-121.807 50.9099,-127.062 46.6798,-124.956 48.3271,-128.325 47.878,-128.544 47.4288,-128.764 45.7815,-125.395 44.846,-130.027 44.5833,-121.807 44.5833,-121.807"/>
<text text-anchor="middle" x="73.875" y="-141.6" font-family="sans-serif" font-size="8.00" fill="#2e3436">KNOWS</text>
</g>
<!-- N1 -->
<g id="node3" class="node"><title>N1</title>
<path fill="#ffffff" stroke="#2e3436" stroke-width="1.5" d="M114.555,-85.5C114.555,-85.5 152.973,-85.5 152.973,-85.5 158.973,-85.5 164.973,-91.5 164.973,-97.5 164.973,-97.5 164.973,-109.5 164.973,-109.5 164.973,-115.5 158.973,-121.5 152.973,-121.5 152.973,-121.5 114.555,-121.5 114.555,-121.5 108.555,-121.5 102.555,-115.5 102.555,-109.5 102.555,-109.5 102.555,-97.5 102.555,-97.5 102.555,-91.5 108.555,-85.5 114.555,-85.5"/>
<text text-anchor="start" x="110.555" y="-109.1" font-family="sans-serif" font-size="8.00" fill="#1c2021">name = &#39;Bob&#39;</text>
<text text-anchor="start" x="110.555" y="-101.1" font-family="sans-serif" font-size="8.00" fill="#1c2021">eyes = &#39;blue&#39;</text>
<text text-anchor="start" x="110.555" y="-93.1" font-family="sans-serif" font-size="8.00" fill="#1c2021">age = 25</text>
</g>
<!-- N0&#45;&gt;N1 -->
<g id="edge2" class="edge"><title>N0&#45;&gt;N1</title>
<path fill="none" stroke="#2e3436" stroke-width="2" d="M95.3959,-166.358C102.331,-155.178 111.476,-140.434 119.098,-128.145"/>
<polygon fill="#2e3436" stroke="#2e3436" stroke-width="2" points="123.152,-121.608 122.067,-129.761 121.6,-125.059 119.624,-128.245 119.199,-127.982 118.774,-127.718 120.751,-124.532 116.331,-126.203 123.152,-121.608 123.152,-121.608"/>
<text text-anchor="middle" x="125.875" y="-141.6" font-family="sans-serif" font-size="8.00" fill="#2e3436">KNOWS</text>
</g>
<!-- N3 -->
<g id="node5" class="node"><title>N3</title>
<path fill="#ffffff" stroke="#2e3436" stroke-width="1.5" d="M18.332,-2.5C18.332,-2.5 65.1953,-2.5 65.1953,-2.5 71.1953,-2.5 77.1953,-8.5 77.1953,-14.5 77.1953,-14.5 77.1953,-26.5 77.1953,-26.5 77.1953,-32.5 71.1953,-38.5 65.1953,-38.5 65.1953,-38.5 18.332,-38.5 18.332,-38.5 12.332,-38.5 6.33203,-32.5 6.33203,-26.5 6.33203,-26.5 6.33203,-14.5 6.33203,-14.5 6.33203,-8.5 12.332,-2.5 18.332,-2.5"/>
<text text-anchor="start" x="14.332" y="-26.1" font-family="sans-serif" font-size="8.00" fill="#1c2021">name = &#39;Daniel&#39;</text>
<text text-anchor="start" x="14.332" y="-18.1" font-family="sans-serif" font-size="8.00" fill="#1c2021">eyes = &#39;brown&#39;</text>
<text text-anchor="start" x="14.332" y="-10.1" font-family="sans-serif" font-size="8.00" fill="#1c2021">age = 54</text>
</g>
<!-- N2&#45;&gt;N3 -->
<g id="edge5" class="edge"><title>N2&#45;&gt;N3</title>
<path fill="none" stroke="#2e3436" stroke-width="2" d="M35.4614,-85.1762C35.0852,-79.3989 34.7263,-72.9254 34.541,-67 34.4299,-63.4462 34.2033,-62.5395 34.541,-59 34.9425,-54.7924 35.592,-50.355 36.3409,-46.063"/>
<polygon fill="#2e3436" stroke="#2e3436" stroke-width="2" points="37.7646,-38.5757 39.6791,-46.5742 37.5553,-42.3531 36.8547,-46.0371 36.3635,-45.9437 35.8723,-45.8503 36.5729,-42.1663 33.0479,-45.3133 37.7646,-38.5757 37.7646,-38.5757"/>
<text text-anchor="middle" x="49.875" y="-60.6" font-family="sans-serif" font-size="8.00" fill="#2e3436">KNOWS</text>
</g>
<!-- N4 -->
<g id="node4" class="node"><title>N4</title>
<path fill="#ffffff" stroke="#2e3436" stroke-width="1.5" d="M121.826,-0.5C121.826,-0.5 207.701,-0.5 207.701,-0.5 213.701,-0.5 219.701,-6.5 219.701,-12.5 219.701,-12.5 219.701,-28.5 219.701,-28.5 219.701,-34.5 213.701,-40.5 207.701,-40.5 207.701,-40.5 121.826,-40.5 121.826,-40.5 115.826,-40.5 109.826,-34.5 109.826,-28.5 109.826,-28.5 109.826,-12.5 109.826,-12.5 109.826,-6.5 115.826,-0.5 121.826,-0.5"/>
<text text-anchor="start" x="117.826" y="-30.1" font-family="sans-serif" font-size="8.00" fill="#1c2021">array = [&#39;one&#39;, &#39;two&#39;, &#39;three&#39;]</text>
<text text-anchor="start" x="117.826" y="-22.1" font-family="sans-serif" font-size="8.00" fill="#1c2021">name = &#39;Eskil&#39;</text>
<text text-anchor="start" x="117.826" y="-14.1" font-family="sans-serif" font-size="8.00" fill="#1c2021">eyes = &#39;blue&#39;</text>
<text text-anchor="start" x="117.826" y="-6.1" font-family="sans-serif" font-size="8.00" fill="#1c2021">age = 41</text>
</g>
<!-- N1&#45;&gt;N4 -->
<g id="edge3" class="edge"><title>N1&#45;&gt;N4</title>
<path fill="none" stroke="#4e9a06" stroke-width="2" d="M140.338,-85.322C144.489,-74.477 149.934,-60.2475 154.63,-47.9772"/>
<polygon fill="#4e9a06" stroke="#4e9a06" stroke-width="2" points="157.439,-40.6382 157.91,-48.8491 156.566,-44.3191 155.225,-47.8214 154.758,-47.6427 154.291,-47.464 155.632,-43.9617 151.606,-46.4363 157.439,-40.6382 157.439,-40.6382"/>
<text text-anchor="middle" x="169.209" y="-60.6" font-family="sans-serif" font-size="8.00" fill="#4e9a06">MARRIED</text>
</g>
<!-- N1&#45;&gt;N3 -->
<g id="edge4" class="edge"><title>N1&#45;&gt;N3</title>
<path fill="none" stroke="#2e3436" stroke-width="2" d="M114.253,-85.322C100.47,-73.1869 81.8735,-56.8141 66.9675,-43.6903"/>
<polygon fill="#2e3436" stroke="#2e3436" stroke-width="2" points="61.2464,-38.6533 69.1058,-41.0763 64.3914,-40.756 67.206,-43.2341 66.8755,-43.6094 66.5451,-43.9847 63.7306,-41.5066 64.6453,-46.1425 61.2464,-38.6533 61.2464,-38.6533"/>
<text text-anchor="middle" x="108.875" y="-60.6" font-family="sans-serif" font-size="8.00" fill="#2e3436">KNOWS</text>
</g>
<!-- N5 -->
<g id="node6" class="node"><title>N5</title>
<path fill="#ffffff" stroke="#2e3436" stroke-width="1.5" d="M159.334,-166.5C159.334,-166.5 202.193,-166.5 202.193,-166.5 208.193,-166.5 214.193,-172.5 214.193,-178.5 214.193,-178.5 214.193,-190.5 214.193,-190.5 214.193,-196.5 208.193,-202.5 202.193,-202.5 202.193,-202.5 159.334,-202.5 159.334,-202.5 153.334,-202.5 147.334,-196.5 147.334,-190.5 147.334,-190.5 147.334,-178.5 147.334,-178.5 147.334,-172.5 153.334,-166.5 159.334,-166.5"/>
<text text-anchor="start" x="155.334" y="-186.1" font-family="sans-serif" font-size="8.00" fill="#1c2021">eyes = &#39;brown&#39;</text>
<text text-anchor="start" x="155.334" y="-178.1" font-family="sans-serif" font-size="8.00" fill="#1c2021">age = 61</text>
</g>
</g>
</svg>
