<?xml version="1.0" encoding="UTF-8" standalone="no"?>
<!DOCTYPE svg PUBLIC "-//W3C//DTD SVG 1.1//EN"
 "http://www.w3.org/Graphics/SVG/1.1/DTD/svg11.dtd">
<!-- Generated by graphviz version 2.38.0 (20140413.2041)
 -->
<!-- Title: g Pages: 1 -->
<svg width="193pt" height="134pt"
 viewBox="0.00 0.00 192.96 134.00" xmlns="http://www.w3.org/2000/svg" xmlns:xlink="http://www.w3.org/1999/xlink">
<g id="graph0" class="graph" transform="scale(1 1) rotate(0) translate(4 130)">
<title>g</title>
<polygon fill="white" stroke="none" points="-4,4 -4,-130 188.961,-130 188.961,4 -4,4"/>
<!-- N0 -->
<g id="node1" class="node"><title>N0</title>
<path fill="#ffffff" stroke="#2e3436" stroke-width="1.5" d="M71.582,-85.5C71.582,-85.5 114,-85.5 114,-85.5 120,-85.5 126,-91.5 126,-97.5 126,-97.5 126,-113.5 126,-113.5 126,-119.5 120,-125.5 114,-125.5 114,-125.5 71.582,-125.5 71.582,-125.5 65.582,-125.5 59.582,-119.5 59.582,-113.5 59.582,-113.5 59.582,-97.5 59.582,-97.5 59.582,-91.5 65.582,-85.5 71.582,-85.5"/>
<text text-anchor="middle" x="92.791" y="-115.1" font-family="sans-serif" font-size="8.00" fill="#1c2021">Swedish</text>
<polyline fill="none" stroke="#2e3436" stroke-width="1.5" points="59.582,-109.5 126,-109.5 "/>
<text text-anchor="start" x="67.582" y="-99.1" font-family="sans-serif" font-size="8.00" fill="#1c2021">name = &#39;Andy&#39;</text>
<text text-anchor="start" x="67.582" y="-91.1" font-family="sans-serif" font-size="8.00" fill="#1c2021">age = 36</text>
</g>
<!-- N2 -->
<g id="node2" class="node"><title>N2</title>
<path fill="#ffffff" stroke="#2e3436" stroke-width="1.5" d="M12,-0.5C12,-0.5 67.582,-0.5 67.582,-0.5 73.582,-0.5 79.582,-6.5 79.582,-12.5 79.582,-12.5 79.582,-28.5 79.582,-28.5 79.582,-34.5 73.582,-40.5 67.582,-40.5 67.582,-40.5 12,-40.5 12,-40.5 6,-40.5 0,-34.5 0,-28.5 0,-28.5 0,-12.5 0,-12.5 0,-6.5 6,-0.5 12,-0.5"/>
<text text-anchor="middle" x="39.791" y="-30.1" font-family="sans-serif" font-size="8.00" fill="#1c2021">Swedish, German</text>
<polyline fill="none" stroke="#2e3436" stroke-width="1.5" points="0,-24.5 79.582,-24.5 "/>
<text text-anchor="start" x="8" y="-14.1" font-family="sans-serif" font-size="8.00" fill="#1c2021">name = &#39;Peter&#39;</text>
<text text-anchor="start" x="8" y="-6.1" font-family="sans-serif" font-size="8.00" fill="#1c2021">age = 34</text>
</g>
<!-- N0&#45;&gt;N2 -->
<g id="edge1" class="edge"><title>N0&#45;&gt;N2</title>
<path fill="none" stroke="#2e3436" stroke-width="2" d="M80.4985,-85.2495C73.2741,-73.9358 64.0496,-59.4898 56.2089,-47.211"/>
<polygon fill="#2e3436" stroke="#2e3436" stroke-width="2" points="52.0168,-40.6461 58.8978,-45.1509 54.4565,-43.5376 56.4747,-46.6982 56.0533,-46.9673 55.6319,-47.2364 53.6137,-44.0758 53.2088,-48.7837 52.0168,-40.6461 52.0168,-40.6461"/>
<text text-anchor="middle" x="83.9023" y="-60.6" font-family="sans-serif" font-size="8.00" fill="#2e3436">KNOWS</text>
</g>
<!-- N1 -->
<g id="node3" class="node"><title>N1</title>
<path fill="#ffffff" stroke="#2e3436" stroke-width="1.5" d="M120.621,-0.5C120.621,-0.5 172.961,-0.5 172.961,-0.5 178.961,-0.5 184.961,-6.5 184.961,-12.5 184.961,-12.5 184.961,-28.5 184.961,-28.5 184.961,-34.5 178.961,-40.5 172.961,-40.5 172.961,-40.5 120.621,-40.5 120.621,-40.5 114.621,-40.5 108.621,-34.5 108.621,-28.5 108.621,-28.5 108.621,-12.5 108.621,-12.5 108.621,-6.5 114.621,-0.5 120.621,-0.5"/>
<text text-anchor="middle" x="146.791" y="-30.1" font-family="sans-serif" font-size="8.00" fill="#1c2021">Swedish</text>
<polyline fill="none" stroke="#2e3436" stroke-width="1.5" points="108.621,-24.5 184.961,-24.5 "/>
<text text-anchor="start" x="116.621" y="-14.1" font-family="sans-serif" font-size="8.00" fill="#1c2021">name = &#39;Timothy&#39;</text>
<text text-anchor="start" x="116.621" y="-6.1" font-family="sans-serif" font-size="8.00" fill="#1c2021">age = 25</text>
</g>
<!-- N0&#45;&gt;N1 -->
<g id="edge2" class="edge"><title>N0&#45;&gt;N1</title>
<path fill="none" stroke="#2e3436" stroke-width="2" d="M105.315,-85.2495C112.676,-73.9358 122.075,-59.4898 130.063,-47.211"/>
<polygon fill="#2e3436" stroke="#2e3436" stroke-width="2" points="134.335,-40.6461 133.073,-48.7733 132.709,-44.0621 130.664,-47.2054 130.244,-46.9327 129.825,-46.66 131.87,-43.5167 127.415,-45.0922 134.335,-40.6461 134.335,-40.6461"/>
<text text-anchor="middle" x="136.902" y="-60.6" font-family="sans-serif" font-size="8.00" fill="#2e3436">KNOWS</text>
</g>
</g>
</svg>
