<?xml version="1.0" encoding="UTF-8" standalone="no"?>
<!DOCTYPE svg PUBLIC "-//W3C//DTD SVG 1.1//EN"
 "http://www.w3.org/Graphics/SVG/1.1/DTD/svg11.dtd">
<!-- Generated by graphviz version 2.38.0 (20140413.2041)
 -->
<!-- Title: g Pages: 1 -->
<svg width="78pt" height="126pt"
 viewBox="0.00 0.00 77.74 126.00" xmlns="http://www.w3.org/2000/svg" xmlns:xlink="http://www.w3.org/1999/xlink">
<g id="graph0" class="graph" transform="scale(1 1) rotate(0) translate(4 122)">
<title>g</title>
<polygon fill="white" stroke="none" points="-4,4 -4,-122 73.7366,-122 73.7366,4 -4,4"/>
<!-- N0 -->
<g id="node1" class="node"><title>N0</title>
<path fill="#ffffff" stroke="#2e3436" stroke-width="1.5" d="M16.4944,-81.5C16.4944,-81.5 57.7366,-81.5 57.7366,-81.5 63.7366,-81.5 69.7366,-87.5 69.7366,-93.5 69.7366,-93.5 69.7366,-105.5 69.7366,-105.5 69.7366,-111.5 63.7366,-117.5 57.7366,-117.5 57.7366,-117.5 16.4944,-117.5 16.4944,-117.5 10.4944,-117.5 4.49436,-111.5 4.49436,-105.5 4.49436,-105.5 4.49436,-93.5 4.49436,-93.5 4.49436,-87.5 10.4944,-81.5 16.4944,-81.5"/>
<text text-anchor="start" x="12.4944" y="-105.1" font-family="sans-serif" font-size="8.00" fill="#1c2021">happy = &#39;Yes!&#39;</text>
<text text-anchor="start" x="12.4944" y="-97.1" font-family="sans-serif" font-size="8.00" fill="#1c2021">name = &#39;A&#39;</text>
<text text-anchor="start" x="12.4944" y="-89.1" font-family="sans-serif" font-size="8.00" fill="#1c2021">age = 55</text>
</g>
<!-- N1 -->
<g id="node2" class="node"><title>N1</title>
<path fill="#ffffff" stroke="#2e3436" stroke-width="1.5" d="M22.1155,-0.5C22.1155,-0.5 52.1155,-0.5 52.1155,-0.5 58.1155,-0.5 64.1155,-6.5 64.1155,-12.5 64.1155,-12.5 64.1155,-24.5 64.1155,-24.5 64.1155,-30.5 58.1155,-36.5 52.1155,-36.5 52.1155,-36.5 22.1155,-36.5 22.1155,-36.5 16.1155,-36.5 10.1155,-30.5 10.1155,-24.5 10.1155,-24.5 10.1155,-12.5 10.1155,-12.5 10.1155,-6.5 16.1155,-0.5 22.1155,-0.5"/>
<text text-anchor="start" x="18.1155" y="-16.1" font-family="sans-serif" font-size="8.00" fill="#1c2021">name = &#39;B&#39;</text>
</g>
<!-- N0&#45;&gt;N1 -->
<g id="edge1" class="edge"><title>N0&#45;&gt;N1</title>
<path fill="none" stroke="#2e3436" stroke-width="2" d="M14.7642,-81.4845C9.46457,-76.1995 4.52312,-69.9219 1.65843,-63 -1.42233,-55.556 1.18623,-48.3826 6.13022,-42.0815"/>
<polygon fill="#2e3436" stroke="#2e3436" stroke-width="2" points="11.231,-36.5573 8.62267,-44.3572 9.05437,-39.6517 6.51039,-42.4068 6.14304,-42.0676 5.77568,-41.7284 8.31966,-38.9733 3.6634,-39.778 11.231,-36.5573 11.231,-36.5573"/>
<text text-anchor="middle" x="18.344" y="-56.6" font-family="sans-serif" font-size="8.00" fill="#2e3436">BLOCKS</text>
</g>
<!-- N0&#45;&gt;N1 -->
<g id="edge2" class="edge"><title>N0&#45;&gt;N1</title>
<path fill="none" stroke="#4e9a06" stroke-width="2" d="M37.1155,-81.3582C37.1155,-70.4883 37.1155,-56.2501 37.1155,-44.1744"/>
<polygon fill="#4e9a06" stroke="#4e9a06" stroke-width="2" points="37.1155,-36.6084 40.4906,-44.1083 37.6155,-40.3584 37.6156,-44.1084 37.1156,-44.1084 36.6156,-44.1084 36.6155,-40.3584 33.7406,-44.1084 37.1155,-36.6084 37.1155,-36.6084"/>
<text text-anchor="middle" x="52.2268" y="-56.6" font-family="sans-serif" font-size="8.00" fill="#4e9a06">KNOWS</text>
</g>
</g>
</svg>
