<?xml version="1.0" encoding="UTF-8" standalone="no"?>
<!DOCTYPE svg PUBLIC "-//W3C//DTD SVG 1.1//EN"
 "http://www.w3.org/Graphics/SVG/1.1/DTD/svg11.dtd">
<!-- Generated by graphviz version 2.38.0 (20140413.2041)
 -->
<!-- Title: g Pages: 1 -->
<svg width="181pt" height="219pt"
 viewBox="0.00 0.00 181.09 219.00" xmlns="http://www.w3.org/2000/svg" xmlns:xlink="http://www.w3.org/1999/xlink">
<g id="graph0" class="graph" transform="scale(1 1) rotate(0) translate(4 215)">
<title>g</title>
<polygon fill="white" stroke="none" points="-4,4 -4,-215 177.09,-215 177.09,4 -4,4"/>
<!-- N0 -->
<g id="node1" class="node"><title>N0</title>
<path fill="#ffffff" stroke="#2e3436" stroke-width="1.5" d="M116.225,-81.5C116.225,-81.5 158.643,-81.5 158.643,-81.5 164.643,-81.5 170.643,-87.5 170.643,-93.5 170.643,-93.5 170.643,-117.5 170.643,-117.5 170.643,-123.5 164.643,-129.5 158.643,-129.5 158.643,-129.5 116.225,-129.5 116.225,-129.5 110.225,-129.5 104.225,-123.5 104.225,-117.5 104.225,-117.5 104.225,-93.5 104.225,-93.5 104.225,-87.5 110.225,-81.5 116.225,-81.5"/>
<text text-anchor="middle" x="137.434" y="-119.1" font-family="sans-serif" font-size="8.00" fill="#1c2021">Swedish</text>
<polyline fill="none" stroke="#2e3436" stroke-width="1.5" points="104.225,-113.5 170.643,-113.5 "/>
<text text-anchor="start" x="112.225" y="-103.1" font-family="sans-serif" font-size="8.00" fill="#1c2021">hungry = true</text>
<text text-anchor="start" x="112.225" y="-95.1" font-family="sans-serif" font-size="8.00" fill="#1c2021">name = &#39;Andy&#39;</text>
<text text-anchor="start" x="112.225" y="-87.1" font-family="sans-serif" font-size="8.00" fill="#1c2021">age = 36</text>
</g>
<!-- N2 -->
<g id="node2" class="node"><title>N2</title>
<path fill="#ffffff" stroke="#2e3436" stroke-width="1.5" d="M56.7812,-0.5C56.7812,-0.5 100.086,-0.5 100.086,-0.5 106.086,-0.5 112.086,-6.5 112.086,-12.5 112.086,-12.5 112.086,-24.5 112.086,-24.5 112.086,-30.5 106.086,-36.5 100.086,-36.5 100.086,-36.5 56.7812,-36.5 56.7812,-36.5 50.7812,-36.5 44.7812,-30.5 44.7812,-24.5 44.7812,-24.5 44.7812,-12.5 44.7812,-12.5 44.7812,-6.5 50.7812,-0.5 56.7812,-0.5"/>
<text text-anchor="start" x="52.7812" y="-20.1" font-family="sans-serif" font-size="8.00" fill="#1c2021">name = &#39;Peter&#39;</text>
<text text-anchor="start" x="52.7812" y="-12.1" font-family="sans-serif" font-size="8.00" fill="#1c2021">age = 34</text>
</g>
<!-- N0&#45;&gt;N2 -->
<g id="edge1" class="edge"><title>N0&#45;&gt;N2</title>
<path fill="none" stroke="#2e3436" stroke-width="2" d="M121.312,-81.2734C113.078,-69.4119 103.081,-55.0092 94.8118,-43.0957"/>
<polygon fill="#2e3436" stroke="#2e3436" stroke-width="2" points="90.4176,-36.765 97.4668,-41.0018 92.9666,-39.5605 95.105,-42.6412 94.6942,-42.9263 94.2835,-43.2114 92.1451,-40.1308 91.9217,-44.8508 90.4176,-36.765 90.4176,-36.765"/>
<text text-anchor="middle" x="122.545" y="-56.6" font-family="sans-serif" font-size="8.00" fill="#2e3436">KNOWS</text>
</g>
<!-- N1 -->
<g id="node3" class="node"><title>N1</title>
<path fill="#ffffff" stroke="#2e3436" stroke-width="1.5" d="M113.777,-174.5C113.777,-174.5 161.09,-174.5 161.09,-174.5 167.09,-174.5 173.09,-180.5 173.09,-186.5 173.09,-186.5 173.09,-198.5 173.09,-198.5 173.09,-204.5 167.09,-210.5 161.09,-210.5 161.09,-210.5 113.777,-210.5 113.777,-210.5 107.777,-210.5 101.777,-204.5 101.777,-198.5 101.777,-198.5 101.777,-186.5 101.777,-186.5 101.777,-180.5 107.777,-174.5 113.777,-174.5"/>
<text text-anchor="start" x="109.777" y="-190.1" font-family="sans-serif" font-size="8.00" fill="#1c2021">name = &#39;Stefan&#39;</text>
</g>
<!-- N1&#45;&gt;N0 -->
<g id="edge2" class="edge"><title>N1&#45;&gt;N0</title>
<path fill="none" stroke="#2e3436" stroke-width="2" d="M137.434,-174.299C137.434,-163.693 137.434,-149.783 137.434,-137.324"/>
<polygon fill="#2e3436" stroke="#2e3436" stroke-width="2" points="137.434,-129.797 140.809,-137.297 137.934,-133.547 137.934,-137.297 137.434,-137.297 136.934,-137.297 136.934,-133.547 134.059,-137.297 137.434,-129.797 137.434,-129.797"/>
<text text-anchor="middle" x="152.545" y="-149.6" font-family="sans-serif" font-size="8.00" fill="#2e3436">KNOWS</text>
</g>
<!-- N3 -->
<g id="node4" class="node"><title>N3</title>
<path fill="#ffffff" stroke="#2e3436" stroke-width="1.5" d="M12,-87.5C12,-87.5 62.8672,-87.5 62.8672,-87.5 68.8672,-87.5 74.8672,-93.5 74.8672,-99.5 74.8672,-99.5 74.8672,-111.5 74.8672,-111.5 74.8672,-117.5 68.8672,-123.5 62.8672,-123.5 62.8672,-123.5 12,-123.5 12,-123.5 6,-123.5 0,-117.5 0,-111.5 0,-111.5 0,-99.5 0,-99.5 0,-93.5 6,-87.5 12,-87.5"/>
<text text-anchor="start" x="8" y="-103.1" font-family="sans-serif" font-size="8.00" fill="#1c2021">name = &#39;George&#39;</text>
</g>
<!-- N3&#45;&gt;N2 -->
<g id="edge3" class="edge"><title>N3&#45;&gt;N2</title>
<path fill="none" stroke="#2e3436" stroke-width="2" d="M41.4538,-87.4967C44.1086,-77.704 48.0529,-65.329 53.2109,-55 55.245,-50.9268 57.7177,-46.8056 60.3102,-42.8843"/>
<polygon fill="#2e3436" stroke="#2e3436" stroke-width="2" points="64.73,-36.5176 63.2255,-44.6032 63.0022,-39.8832 60.8637,-42.9637 60.453,-42.6786 60.0423,-42.3935 62.1808,-39.313 57.6806,-40.7539 64.73,-36.5176 64.73,-36.5176"/>
<text text-anchor="middle" x="68.5449" y="-56.6" font-family="sans-serif" font-size="8.00" fill="#2e3436">KNOWS</text>
</g>
</g>
</svg>
