<?xml version="1.0" encoding="UTF-8" standalone="no"?>
<!DOCTYPE svg PUBLIC "-//W3C//DTD SVG 1.1//EN"
 "http://www.w3.org/Graphics/SVG/1.1/DTD/svg11.dtd">
<!-- Generated by graphviz version 2.38.0 (20140413.2041)
 -->
<!-- Title: g Pages: 1 -->
<svg width="311pt" height="126pt"
 viewBox="0.00 0.00 311.00 126.00" xmlns="http://www.w3.org/2000/svg" xmlns:xlink="http://www.w3.org/1999/xlink">
<g id="graph0" class="graph" transform="scale(1 1) rotate(0) translate(4 122)">
<title>g</title>
<polygon fill="white" stroke="none" points="-4,4 -4,-122 307,-122 307,4 -4,4"/>
<!-- N0 -->
<g id="node1" class="node"><title>N0</title>
<path fill="#ffffff" stroke="#2e3436" stroke-width="1.5" d="M136,-81.5C136,-81.5 166,-81.5 166,-81.5 172,-81.5 178,-87.5 178,-93.5 178,-93.5 178,-105.5 178,-105.5 178,-111.5 172,-117.5 166,-117.5 166,-117.5 136,-117.5 136,-117.5 130,-117.5 124,-111.5 124,-105.5 124,-105.5 124,-93.5 124,-93.5 124,-87.5 130,-81.5 136,-81.5"/>
<text text-anchor="start" x="132" y="-97.1" font-family="sans-serif" font-size="8.00" fill="#1c2021">name = &#39;A&#39;</text>
</g>
<!-- N4 -->
<g id="node2" class="node"><title>N4</title>
<path fill="#ffffff" stroke="#2e3436" stroke-width="1.5" d="M12,-0.5C12,-0.5 42,-0.5 42,-0.5 48,-0.5 54,-6.5 54,-12.5 54,-12.5 54,-24.5 54,-24.5 54,-30.5 48,-36.5 42,-36.5 42,-36.5 12,-36.5 12,-36.5 6,-36.5 0,-30.5 0,-24.5 0,-24.5 0,-12.5 0,-12.5 0,-6.5 6,-0.5 12,-0.5"/>
<text text-anchor="start" x="8" y="-16.1" font-family="sans-serif" font-size="8.00" fill="#1c2021">name = &#39;E&#39;</text>
</g>
<!-- N0&#45;&gt;N4 -->
<g id="edge1" class="edge"><title>N0&#45;&gt;N4</title>
<path fill="none" stroke="#2e3436" stroke-width="2" d="M123.861,-84.8097C111.957,-78.5304 97.9508,-70.7648 85.7773,-63 75.3293,-56.3357 64.3029,-48.4288 54.6584,-41.196"/>
<polygon fill="#2e3436" stroke="#2e3436" stroke-width="2" points="48.5401,-36.5601 56.5562,-38.3996 51.831,-38.4263 54.8199,-40.6911 54.5179,-41.0896 54.216,-41.4881 51.227,-39.2234 52.4797,-43.7796 48.5401,-36.5601 48.5401,-36.5601"/>
<text text-anchor="middle" x="100.111" y="-56.6" font-family="sans-serif" font-size="8.00" fill="#2e3436">KNOWS</text>
</g>
<!-- N3 -->
<g id="node3" class="node"><title>N3</title>
<path fill="#ffffff" stroke="#2e3436" stroke-width="1.5" d="M95,-0.5C95,-0.5 125,-0.5 125,-0.5 131,-0.5 137,-6.5 137,-12.5 137,-12.5 137,-24.5 137,-24.5 137,-30.5 131,-36.5 125,-36.5 125,-36.5 95,-36.5 95,-36.5 89,-36.5 83,-30.5 83,-24.5 83,-24.5 83,-12.5 83,-12.5 83,-6.5 89,-0.5 95,-0.5"/>
<text text-anchor="start" x="91" y="-16.1" font-family="sans-serif" font-size="8.00" fill="#1c2021">name = &#39;D&#39;</text>
</g>
<!-- N0&#45;&gt;N3 -->
<g id="edge2" class="edge"><title>N0&#45;&gt;N3</title>
<path fill="none" stroke="#2e3436" stroke-width="2" d="M138.093,-81.3042C134.169,-75.6456 130.037,-69.2098 126.777,-63 123.64,-57.0247 120.767,-50.3275 118.319,-44.0124"/>
<polygon fill="#2e3436" stroke="#2e3436" stroke-width="2" points="115.649,-36.8407 121.429,-42.6921 117.426,-40.1807 118.734,-43.6951 118.266,-43.8695 117.797,-44.044 116.489,-40.5295 115.103,-45.047 115.649,-36.8407 115.649,-36.8407"/>
<text text-anchor="middle" x="141.111" y="-56.6" font-family="sans-serif" font-size="8.00" fill="#2e3436">KNOWS</text>
</g>
<!-- N2 -->
<g id="node4" class="node"><title>N2</title>
<path fill="#ffffff" stroke="#2e3436" stroke-width="1.5" d="M178,-0.5C178,-0.5 208,-0.5 208,-0.5 214,-0.5 220,-6.5 220,-12.5 220,-12.5 220,-24.5 220,-24.5 220,-30.5 214,-36.5 208,-36.5 208,-36.5 178,-36.5 178,-36.5 172,-36.5 166,-30.5 166,-24.5 166,-24.5 166,-12.5 166,-12.5 166,-6.5 172,-0.5 178,-0.5"/>
<text text-anchor="start" x="174" y="-16.1" font-family="sans-serif" font-size="8.00" fill="#1c2021">name = &#39;C&#39;</text>
</g>
<!-- N0&#45;&gt;N2 -->
<g id="edge3" class="edge"><title>N0&#45;&gt;N2</title>
<path fill="none" stroke="#2e3436" stroke-width="2" d="M160.113,-81.3582C166.002,-70.2812 173.751,-55.7065 180.248,-43.4868"/>
<polygon fill="#2e3436" stroke="#2e3436" stroke-width="2" points="183.904,-36.6084 183.364,-44.815 182.586,-40.1542 180.825,-43.4654 180.384,-43.2307 179.942,-42.9959 181.703,-39.6848 177.404,-41.6463 183.904,-36.6084 183.904,-36.6084"/>
<text text-anchor="middle" x="188.111" y="-56.6" font-family="sans-serif" font-size="8.00" fill="#2e3436">KNOWS</text>
</g>
<!-- N1 -->
<g id="node5" class="node"><title>N1</title>
<path fill="#ffffff" stroke="#2e3436" stroke-width="1.5" d="M261,-0.5C261,-0.5 291,-0.5 291,-0.5 297,-0.5 303,-6.5 303,-12.5 303,-12.5 303,-24.5 303,-24.5 303,-30.5 297,-36.5 291,-36.5 291,-36.5 261,-36.5 261,-36.5 255,-36.5 249,-30.5 249,-24.5 249,-24.5 249,-12.5 249,-12.5 249,-6.5 255,-0.5 261,-0.5"/>
<text text-anchor="start" x="257" y="-16.1" font-family="sans-serif" font-size="8.00" fill="#1c2021">name = &#39;B&#39;</text>
</g>
<!-- N0&#45;&gt;N1 -->
<g id="edge4" class="edge"><title>N0&#45;&gt;N1</title>
<path fill="none" stroke="#2e3436" stroke-width="2" d="M178.165,-82.4725C188.221,-76.4557 199.683,-69.4997 210,-63 221.154,-55.9729 233.23,-48.0943 243.966,-40.9929"/>
<polygon fill="#2e3436" stroke="#2e3436" stroke-width="2" points="250.457,-36.6862 246.074,-43.6449 247.609,-39.1761 244.484,-41.2493 244.208,-40.8326 243.931,-40.416 247.056,-38.3428 242.342,-38.0203 250.457,-36.6862 250.457,-36.6862"/>
<text text-anchor="middle" x="235.111" y="-56.6" font-family="sans-serif" font-size="8.00" fill="#2e3436">KNOWS</text>
</g>
</g>
</svg>
