<?xml version="1.0" encoding="UTF-8" standalone="no"?>
<!DOCTYPE svg PUBLIC "-//W3C//DTD SVG 1.1//EN"
 "http://www.w3.org/Graphics/SVG/1.1/DTD/svg11.dtd">
<!-- Generated by graphviz version 2.38.0 (20140413.2041)
 -->
<!-- Title: g Pages: 1 -->
<svg width="119pt" height="150pt"
 viewBox="0.00 0.00 118.68 150.00" xmlns="http://www.w3.org/2000/svg" xmlns:xlink="http://www.w3.org/1999/xlink">
<g id="graph0" class="graph" transform="scale(1 1) rotate(0) translate(4 146)">
<title>g</title>
<polygon fill="white" stroke="none" points="-4,4 -4,-146 114.684,-146 114.684,4 -4,4"/>
<!-- N0 -->
<g id="node1" class="node"><title>N0</title>
<path fill="#ffffff" stroke="#2e3436" stroke-width="1.5" d="M14.2246,-93.5C14.2246,-93.5 81.1816,-93.5 81.1816,-93.5 87.1816,-93.5 93.1816,-99.5 93.1816,-105.5 93.1816,-105.5 93.1816,-129.5 93.1816,-129.5 93.1816,-135.5 87.1816,-141.5 81.1816,-141.5 81.1816,-141.5 14.2246,-141.5 14.2246,-141.5 8.22461,-141.5 2.22461,-135.5 2.22461,-129.5 2.22461,-129.5 2.22461,-105.5 2.22461,-105.5 2.22461,-99.5 8.22461,-93.5 14.2246,-93.5"/>
<text text-anchor="middle" x="47.7031" y="-131.1" font-family="sans-serif" font-size="8.00" fill="#1c2021">TrainStation</text>
<polyline fill="none" stroke="#2e3436" stroke-width="1.5" points="2.22461,-125.5 93.1816,-125.5 "/>
<text text-anchor="start" x="10.2246" y="-115.1" font-family="sans-serif" font-size="8.00" fill="#1c2021">longitude = 12.56459</text>
<text text-anchor="start" x="10.2246" y="-107.1" font-family="sans-serif" font-size="8.00" fill="#1c2021">city = &#39;Copenhagen&#39;</text>
<text text-anchor="start" x="10.2246" y="-99.1" font-family="sans-serif" font-size="8.00" fill="#1c2021">latitude = 55.672874</text>
</g>
<!-- N1 -->
<g id="node2" class="node"><title>N1</title>
<path fill="#ffffff" stroke="#2e3436" stroke-width="1.5" d="M12,-0.5C12,-0.5 83.4062,-0.5 83.4062,-0.5 89.4062,-0.5 95.4062,-6.5 95.4062,-12.5 95.4062,-12.5 95.4062,-36.5 95.4062,-36.5 95.4062,-42.5 89.4062,-48.5 83.4062,-48.5 83.4062,-48.5 12,-48.5 12,-48.5 6,-48.5 0,-42.5 0,-36.5 0,-36.5 0,-12.5 0,-12.5 0,-6.5 6,-0.5 12,-0.5"/>
<text text-anchor="middle" x="47.7031" y="-38.1" font-family="sans-serif" font-size="8.00" fill="#1c2021">Office</text>
<polyline fill="none" stroke="#2e3436" stroke-width="1.5" points="0,-32.5 95.4062,-32.5 "/>
<text text-anchor="start" x="8" y="-22.1" font-family="sans-serif" font-size="8.00" fill="#1c2021">longitude = 12.994341</text>
<text text-anchor="start" x="8" y="-14.1" font-family="sans-serif" font-size="8.00" fill="#1c2021">city = &#39;Malmo&#39;</text>
<text text-anchor="start" x="8" y="-6.1" font-family="sans-serif" font-size="8.00" fill="#1c2021">latitude = 55.611784</text>
</g>
<!-- N0&#45;&gt;N1 -->
<g id="edge1" class="edge"><title>N0&#45;&gt;N1</title>
<path fill="none" stroke="#2e3436" stroke-width="2" d="M47.7031,-93.0652C47.7031,-81.8335 47.7031,-68.235 47.7031,-56.1904"/>
<polygon fill="#2e3436" stroke="#2e3436" stroke-width="2" points="47.7031,-48.5403 51.0782,-56.0403 48.2032,-52.2903 48.2032,-56.0403 47.7032,-56.0403 47.2032,-56.0403 47.2032,-52.2903 44.3282,-56.0404 47.7031,-48.5403 47.7031,-48.5403"/>
<text text-anchor="middle" x="79.1934" y="-68.6" font-family="sans-serif" font-size="8.00" fill="#2e3436">TRAVEL_ROUTE</text>
</g>
</g>
</svg>
