<?xml version="1.0" encoding="UTF-8" standalone="no"?>
<!DOCTYPE svg PUBLIC "-//W3C//DTD SVG 1.1//EN"
 "http://www.w3.org/Graphics/SVG/1.1/DTD/svg11.dtd">
<!-- Generated by graphviz version 2.38.0 (20140413.2041)
 -->
<!-- Title: g Pages: 1 -->
<svg width="229pt" height="207pt"
 viewBox="0.00 0.00 228.76 207.00" xmlns="http://www.w3.org/2000/svg" xmlns:xlink="http://www.w3.org/1999/xlink">
<g id="graph0" class="graph" transform="scale(1 1) rotate(0) translate(4 203)">
<title>g</title>
<polygon fill="white" stroke="none" points="-4,4 -4,-203 224.762,-203 224.762,4 -4,4"/>
<!-- N0 -->
<g id="node1" class="node"><title>N0</title>
<path fill="#ffffff" stroke="#2e3436" stroke-width="1.5" d="M12,-162.5C12,-162.5 96.6641,-162.5 96.6641,-162.5 102.664,-162.5 108.664,-168.5 108.664,-174.5 108.664,-174.5 108.664,-186.5 108.664,-186.5 108.664,-192.5 102.664,-198.5 96.6641,-198.5 96.6641,-198.5 12,-198.5 12,-198.5 6,-198.5 0,-192.5 0,-186.5 0,-186.5 0,-174.5 0,-174.5 0,-168.5 6,-162.5 12,-162.5"/>
<text text-anchor="middle" x="54.332" y="-187.1" font-family="sans-serif" font-size="8.00" fill="#1c2021">Actor</text>
<polyline fill="none" stroke="#2e3436" stroke-width="1.5" points="0,-180.5 108.664,-180.5 "/>
<text text-anchor="start" x="8" y="-169.1" font-family="sans-serif" font-size="8.00" fill="#1c2021">name = &#39;Anthony Hopkins&#39;</text>
</g>
<!-- N3 -->
<g id="node2" class="node"><title>N3</title>
<path fill="#ffffff" stroke="#2e3436" stroke-width="1.5" d="M28.6836,-0.5C28.6836,-0.5 79.9805,-0.5 79.9805,-0.5 85.9805,-0.5 91.9805,-6.5 91.9805,-12.5 91.9805,-12.5 91.9805,-24.5 91.9805,-24.5 91.9805,-30.5 85.9805,-36.5 79.9805,-36.5 79.9805,-36.5 28.6836,-36.5 28.6836,-36.5 22.6836,-36.5 16.6836,-30.5 16.6836,-24.5 16.6836,-24.5 16.6836,-12.5 16.6836,-12.5 16.6836,-6.5 22.6836,-0.5 28.6836,-0.5"/>
<text text-anchor="middle" x="54.332" y="-25.1" font-family="sans-serif" font-size="8.00" fill="#1c2021">Movie</text>
<polyline fill="none" stroke="#2e3436" stroke-width="1.5" points="16.6836,-18.5 91.9805,-18.5 "/>
<text text-anchor="start" x="24.6836" y="-7.1" font-family="sans-serif" font-size="8.00" fill="#1c2021">title = &#39;Hitchcock&#39;</text>
</g>
<!-- N0&#45;&gt;N3 -->
<g id="edge1" class="edge"><title>N0&#45;&gt;N3</title>
<path fill="none" stroke="#2e3436" stroke-width="2" d="M45.6777,-162.245C40.1306,-150.188 33.4453,-133.53 30.5469,-118 27.5298,-101.835 27.5298,-97.1653 30.5469,-81 32.9245,-68.2607 37.8503,-54.7623 42.6058,-43.6672"/>
<polygon fill="#2e3436" stroke="#2e3436" stroke-width="2" points="45.6777,-36.7553 45.7158,-44.9796 44.6116,-40.3852 43.0886,-43.812 42.6317,-43.6089 42.1748,-43.4058 43.6978,-39.979 39.5475,-42.2382 45.6777,-36.7553 45.6777,-36.7553"/>
<text text-anchor="middle" x="48.2246" y="-97.1" font-family="sans-serif" font-size="8.00" fill="#2e3436">ACTS_IN</text>
</g>
<!-- N1 -->
<g id="node3" class="node"><title>N1</title>
<path fill="#ffffff" stroke="#2e3436" stroke-width="1.5" d="M90.3438,-81.5C90.3438,-81.5 160.32,-81.5 160.32,-81.5 166.32,-81.5 172.32,-87.5 172.32,-93.5 172.32,-93.5 172.32,-105.5 172.32,-105.5 172.32,-111.5 166.32,-117.5 160.32,-117.5 160.32,-117.5 90.3438,-117.5 90.3438,-117.5 84.3438,-117.5 78.3438,-111.5 78.3438,-105.5 78.3438,-105.5 78.3438,-93.5 78.3438,-93.5 78.3438,-87.5 84.3438,-81.5 90.3438,-81.5"/>
<text text-anchor="middle" x="125.332" y="-106.1" font-family="sans-serif" font-size="8.00" fill="#1c2021">Actor</text>
<polyline fill="none" stroke="#2e3436" stroke-width="1.5" points="78.3438,-99.5 172.32,-99.5 "/>
<text text-anchor="start" x="86.3438" y="-88.1" font-family="sans-serif" font-size="8.00" fill="#1c2021">name = &#39;Helen Mirren&#39;</text>
</g>
<!-- N0&#45;&gt;N1 -->
<g id="edge2" class="edge"><title>N0&#45;&gt;N1</title>
<path fill="none" stroke="#4e9a06" stroke-width="2" d="M69.738,-162.358C79.9723,-150.971 93.529,-135.886 104.693,-123.465"/>
<polygon fill="#4e9a06" stroke="#4e9a06" stroke-width="2" points="109.956,-117.608 107.453,-125.443 107.821,-120.732 105.315,-123.521 104.943,-123.187 104.571,-122.852 107.078,-120.063 102.433,-120.931 109.956,-117.608 109.956,-117.608"/>
<text text-anchor="middle" x="107.443" y="-137.6" font-family="sans-serif" font-size="8.00" fill="#4e9a06">KNOWS</text>
</g>
<!-- N1&#45;&gt;N3 -->
<g id="edge3" class="edge"><title>N1&#45;&gt;N3</title>
<path fill="none" stroke="#2e3436" stroke-width="2" d="M109.926,-81.3582C99.6917,-69.9706 86.1351,-54.8865 74.9711,-42.4646"/>
<polygon fill="#2e3436" stroke="#2e3436" stroke-width="2" points="69.7079,-36.6084 77.2315,-39.9306 72.5865,-39.0633 75.0932,-41.8524 74.7213,-42.1866 74.3494,-42.5208 71.8427,-39.7317 72.2111,-44.4426 69.7079,-36.6084 69.7079,-36.6084"/>
<text text-anchor="middle" x="109.225" y="-56.6" font-family="sans-serif" font-size="8.00" fill="#2e3436">ACTS_IN</text>
</g>
<!-- N2 -->
<g id="node4" class="node"><title>N2</title>
<path fill="#ffffff" stroke="#2e3436" stroke-width="1.5" d="M149.902,-162.5C149.902,-162.5 208.762,-162.5 208.762,-162.5 214.762,-162.5 220.762,-168.5 220.762,-174.5 220.762,-174.5 220.762,-186.5 220.762,-186.5 220.762,-192.5 214.762,-198.5 208.762,-198.5 208.762,-198.5 149.902,-198.5 149.902,-198.5 143.902,-198.5 137.902,-192.5 137.902,-186.5 137.902,-186.5 137.902,-174.5 137.902,-174.5 137.902,-168.5 143.902,-162.5 149.902,-162.5"/>
<text text-anchor="middle" x="179.332" y="-187.1" font-family="sans-serif" font-size="8.00" fill="#1c2021">Actor</text>
<polyline fill="none" stroke="#2e3436" stroke-width="1.5" points="137.902,-180.5 220.762,-180.5 "/>
<text text-anchor="start" x="145.902" y="-169.1" font-family="sans-serif" font-size="8.00" fill="#1c2021">name = &#39;Hitchcock&#39;</text>
</g>
</g>
</svg>
