<?xml version="1.0" encoding="UTF-8" standalone="no"?>
<!DOCTYPE svg PUBLIC "-//W3C//DTD SVG 1.1//EN"
 "http://www.w3.org/Graphics/SVG/1.1/DTD/svg11.dtd">
<!-- Generated by graphviz version 2.38.0 (20140413.2041)
 -->
<!-- Title: g Pages: 1 -->
<svg width="279pt" height="146pt"
 viewBox="0.00 0.00 278.94 146.00" xmlns="http://www.w3.org/2000/svg" xmlns:xlink="http://www.w3.org/1999/xlink">
<g id="graph0" class="graph" transform="scale(1 1) rotate(0) translate(4 142)">
<title>g</title>
<polygon fill="white" stroke="none" points="-4,4 -4,-142 274.943,-142 274.943,4 -4,4"/>
<!-- N0 -->
<g id="node1" class="node"><title>N0</title>
<path fill="#ffffff" stroke="#2e3436" stroke-width="1.5" d="M118.85,-89.5C118.85,-89.5 161.268,-89.5 161.268,-89.5 167.268,-89.5 173.268,-95.5 173.268,-101.5 173.268,-101.5 173.268,-125.5 173.268,-125.5 173.268,-131.5 167.268,-137.5 161.268,-137.5 161.268,-137.5 118.85,-137.5 118.85,-137.5 112.85,-137.5 106.85,-131.5 106.85,-125.5 106.85,-125.5 106.85,-101.5 106.85,-101.5 106.85,-95.5 112.85,-89.5 118.85,-89.5"/>
<text text-anchor="middle" x="140.059" y="-127.1" font-family="sans-serif" font-size="8.00" fill="#1c2021">Swedish</text>
<polyline fill="none" stroke="#2e3436" stroke-width="1.5" points="106.85,-121.5 173.268,-121.5 "/>
<text text-anchor="start" x="114.85" y="-111.1" font-family="sans-serif" font-size="8.00" fill="#1c2021">belt = &#39;white&#39;</text>
<text text-anchor="start" x="114.85" y="-103.1" font-family="sans-serif" font-size="8.00" fill="#1c2021">name = &#39;Andy&#39;</text>
<text text-anchor="start" x="114.85" y="-95.1" font-family="sans-serif" font-size="8.00" fill="#1c2021">age = 36</text>
</g>
<!-- N2 -->
<g id="node2" class="node"><title>N2</title>
<path fill="#ffffff" stroke="#2e3436" stroke-width="1.5" d="M12,-0.5C12,-0.5 118.117,-0.5 118.117,-0.5 124.117,-0.5 130.117,-6.5 130.117,-12.5 130.117,-12.5 130.117,-24.5 130.117,-24.5 130.117,-30.5 124.117,-36.5 118.117,-36.5 118.117,-36.5 12,-36.5 12,-36.5 6,-36.5 0,-30.5 0,-24.5 0,-24.5 0,-12.5 0,-12.5 0,-6.5 6,-0.5 12,-0.5"/>
<text text-anchor="start" x="8" y="-24.1" font-family="sans-serif" font-size="8.00" fill="#1c2021">email = &#39;peter_n@example.com&#39;</text>
<text text-anchor="start" x="8" y="-16.1" font-family="sans-serif" font-size="8.00" fill="#1c2021">name = &#39;Peter&#39;</text>
<text text-anchor="start" x="8" y="-8.1" font-family="sans-serif" font-size="8.00" fill="#1c2021">age = 35</text>
</g>
<!-- N0&#45;&gt;N2 -->
<g id="edge1" class="edge"><title>N0&#45;&gt;N2</title>
<path fill="none" stroke="#2e3436" stroke-width="2" d="M121.133,-89.0322C109.693,-74.8466 95.1676,-56.8352 83.767,-42.6985"/>
<polygon fill="#2e3436" stroke="#2e3436" stroke-width="2" points="78.7711,-36.5035 86.1065,-40.223 81.5144,-39.1087 83.8685,-42.0278 83.4793,-42.3417 83.0901,-42.6555 80.736,-39.7365 80.8521,-44.4603 78.7711,-36.5035 78.7711,-36.5035"/>
<text text-anchor="middle" x="127.854" y="-64.6" font-family="sans-serif" font-size="8.00" fill="#2e3436">KNOWS</text>
<text text-anchor="start" x="105.059" y="-56.6" font-family="sans-serif" font-size="8.00" fill="#2e3436">since = 1999</text>
</g>
<!-- N1 -->
<g id="node3" class="node"><title>N1</title>
<path fill="#ffffff" stroke="#2e3436" stroke-width="1.5" d="M171.174,-0.5C171.174,-0.5 258.943,-0.5 258.943,-0.5 264.943,-0.5 270.943,-6.5 270.943,-12.5 270.943,-12.5 270.943,-24.5 270.943,-24.5 270.943,-30.5 264.943,-36.5 258.943,-36.5 258.943,-36.5 171.174,-36.5 171.174,-36.5 165.174,-36.5 159.174,-30.5 159.174,-24.5 159.174,-24.5 159.174,-12.5 159.174,-12.5 159.174,-6.5 165.174,-0.5 171.174,-0.5"/>
<text text-anchor="start" x="167.174" y="-24.1" font-family="sans-serif" font-size="8.00" fill="#1c2021">address = &#39;Sweden/Malmo&#39;</text>
<text text-anchor="start" x="167.174" y="-16.1" font-family="sans-serif" font-size="8.00" fill="#1c2021">name = &#39;Timothy&#39;</text>
<text text-anchor="start" x="167.174" y="-8.1" font-family="sans-serif" font-size="8.00" fill="#1c2021">age = 25</text>
</g>
<!-- N0&#45;&gt;N1 -->
<g id="edge2" class="edge"><title>N0&#45;&gt;N1</title>
<path fill="none" stroke="#2e3436" stroke-width="2" d="M158.984,-89.0322C170.424,-74.8466 184.95,-56.8352 196.35,-42.6985"/>
<polygon fill="#2e3436" stroke="#2e3436" stroke-width="2" points="201.346,-36.5035 199.265,-44.4603 199.381,-39.7365 197.027,-42.6555 196.638,-42.3417 196.249,-42.0278 198.603,-39.1087 194.011,-40.223 201.346,-36.5035 201.346,-36.5035"/>
<text text-anchor="middle" x="207.854" y="-64.6" font-family="sans-serif" font-size="8.00" fill="#2e3436">KNOWS</text>
<text text-anchor="start" x="185.059" y="-56.6" font-family="sans-serif" font-size="8.00" fill="#2e3436">since = 2012</text>
</g>
</g>
</svg>
