<?xml version="1.0" encoding="UTF-8" standalone="no"?>
<!DOCTYPE svg PUBLIC "-//W3C//DTD SVG 1.1//EN"
 "http://www.w3.org/Graphics/SVG/1.1/DTD/svg11.dtd">
<!-- Generated by graphviz version 2.38.0 (20140413.2041)
 -->
<!-- Title: g Pages: 1 -->
<svg width="257pt" height="207pt"
 viewBox="0.00 0.00 257.30 207.00" xmlns="http://www.w3.org/2000/svg" xmlns:xlink="http://www.w3.org/1999/xlink">
<g id="graph0" class="graph" transform="scale(1 1) rotate(0) translate(4 203)">
<title>g</title>
<polygon fill="white" stroke="none" points="-4,4 -4,-203 253.305,-203 253.305,4 -4,4"/>
<!-- N0 -->
<g id="node1" class="node"><title>N0</title>
<path fill="#ffffff" stroke="#2e3436" stroke-width="1.5" d="M119.221,-162.5C119.221,-162.5 168.752,-162.5 168.752,-162.5 174.752,-162.5 180.752,-168.5 180.752,-174.5 180.752,-174.5 180.752,-186.5 180.752,-186.5 180.752,-192.5 174.752,-198.5 168.752,-198.5 168.752,-198.5 119.221,-198.5 119.221,-198.5 113.221,-198.5 107.221,-192.5 107.221,-186.5 107.221,-186.5 107.221,-174.5 107.221,-174.5 107.221,-168.5 113.221,-162.5 119.221,-162.5"/>
<text text-anchor="start" x="115.221" y="-178.1" font-family="sans-serif" font-size="8.00" fill="#1c2021">name = &#39;Anders&#39;</text>
</g>
<!-- N2 -->
<g id="node2" class="node"><title>N2</title>
<path fill="#ffffff" stroke="#2e3436" stroke-width="1.5" d="M12,-81.5C12,-81.5 61.9727,-81.5 61.9727,-81.5 67.9727,-81.5 73.9727,-87.5 73.9727,-93.5 73.9727,-93.5 73.9727,-105.5 73.9727,-105.5 73.9727,-111.5 67.9727,-117.5 61.9727,-117.5 61.9727,-117.5 12,-117.5 12,-117.5 6,-117.5 0,-111.5 0,-105.5 0,-105.5 0,-93.5 0,-93.5 0,-87.5 6,-81.5 12,-81.5"/>
<text text-anchor="start" x="8" y="-97.1" font-family="sans-serif" font-size="8.00" fill="#1c2021">name = &#39;Ceasar&#39;</text>
</g>
<!-- N0&#45;&gt;N2 -->
<g id="edge1" class="edge"><title>N0&#45;&gt;N2</title>
<path fill="none" stroke="#2e3436" stroke-width="2" d="M120.769,-162.358C104.784,-150.557 83.4224,-134.785 66.2697,-122.12"/>
<polygon fill="#2e3436" stroke="#2e3436" stroke-width="2" points="60.1584,-117.608 68.1968,-119.348 63.4723,-119.434 66.4891,-121.661 66.1921,-122.063 65.8951,-122.465 62.8783,-120.238 64.1874,-124.778 60.1584,-117.608 60.1584,-117.608"/>
<text text-anchor="middle" x="110.215" y="-137.6" font-family="sans-serif" font-size="8.00" fill="#2e3436">BLOCKS</text>
</g>
<!-- N1 -->
<g id="node3" class="node"><title>N1</title>
<path fill="#ffffff" stroke="#2e3436" stroke-width="1.5" d="M115.221,-81.5C115.221,-81.5 172.752,-81.5 172.752,-81.5 178.752,-81.5 184.752,-87.5 184.752,-93.5 184.752,-93.5 184.752,-105.5 184.752,-105.5 184.752,-111.5 178.752,-117.5 172.752,-117.5 172.752,-117.5 115.221,-117.5 115.221,-117.5 109.221,-117.5 103.221,-111.5 103.221,-105.5 103.221,-105.5 103.221,-93.5 103.221,-93.5 103.221,-87.5 109.221,-81.5 115.221,-81.5"/>
<text text-anchor="start" x="111.221" y="-97.1" font-family="sans-serif" font-size="8.00" fill="#1c2021">name = &#39;Bossman&#39;</text>
</g>
<!-- N0&#45;&gt;N1 -->
<g id="edge2" class="edge"><title>N0&#45;&gt;N1</title>
<path fill="none" stroke="#4e9a06" stroke-width="2" d="M143.986,-162.358C143.986,-151.488 143.986,-137.25 143.986,-125.174"/>
<polygon fill="#4e9a06" stroke="#4e9a06" stroke-width="2" points="143.986,-117.608 147.361,-125.108 144.486,-121.358 144.486,-125.108 143.986,-125.108 143.486,-125.108 143.486,-121.358 140.611,-125.108 143.986,-117.608 143.986,-117.608"/>
<text text-anchor="middle" x="159.098" y="-137.6" font-family="sans-serif" font-size="8.00" fill="#4e9a06">KNOWS</text>
</g>
<!-- N4 -->
<g id="node5" class="node"><title>N4</title>
<path fill="#ffffff" stroke="#2e3436" stroke-width="1.5" d="M65.5527,-0.5C65.5527,-0.5 116.42,-0.5 116.42,-0.5 122.42,-0.5 128.42,-6.5 128.42,-12.5 128.42,-12.5 128.42,-24.5 128.42,-24.5 128.42,-30.5 122.42,-36.5 116.42,-36.5 116.42,-36.5 65.5527,-36.5 65.5527,-36.5 59.5527,-36.5 53.5527,-30.5 53.5527,-24.5 53.5527,-24.5 53.5527,-12.5 53.5527,-12.5 53.5527,-6.5 59.5527,-0.5 65.5527,-0.5"/>
<text text-anchor="start" x="61.5527" y="-16.1" font-family="sans-serif" font-size="8.00" fill="#1c2021">name = &#39;George&#39;</text>
</g>
<!-- N2&#45;&gt;N4 -->
<g id="edge5" class="edge"><title>N2&#45;&gt;N4</title>
<path fill="none" stroke="#4e9a06" stroke-width="2" d="M48.7035,-81.3582C56.4166,-70.0742 66.6108,-55.1604 75.057,-42.8041"/>
<polygon fill="#4e9a06" stroke="#4e9a06" stroke-width="2" points="79.292,-36.6084 77.8459,-44.7047 77.5886,-39.9864 75.4724,-43.0823 75.0596,-42.8001 74.6469,-42.518 76.763,-39.4221 72.2734,-40.8955 79.292,-36.6084 79.292,-36.6084"/>
<text text-anchor="middle" x="81.0977" y="-56.6" font-family="sans-serif" font-size="8.00" fill="#4e9a06">KNOWS</text>
</g>
<!-- N3 -->
<g id="node4" class="node"><title>N3</title>
<path fill="#ffffff" stroke="#2e3436" stroke-width="1.5" d="M192.668,-0.5C192.668,-0.5 237.305,-0.5 237.305,-0.5 243.305,-0.5 249.305,-6.5 249.305,-12.5 249.305,-12.5 249.305,-24.5 249.305,-24.5 249.305,-30.5 243.305,-36.5 237.305,-36.5 237.305,-36.5 192.668,-36.5 192.668,-36.5 186.668,-36.5 180.668,-30.5 180.668,-24.5 180.668,-24.5 180.668,-12.5 180.668,-12.5 180.668,-6.5 186.668,-0.5 192.668,-0.5"/>
<text text-anchor="start" x="188.668" y="-16.1" font-family="sans-serif" font-size="8.00" fill="#1c2021">name = &#39;David&#39;</text>
</g>
<!-- N1&#45;&gt;N3 -->
<g id="edge3" class="edge"><title>N1&#45;&gt;N3</title>
<path fill="none" stroke="#2e3436" stroke-width="2" d="M159.392,-81.3582C169.627,-69.9706 183.183,-54.8865 194.347,-42.4646"/>
<polygon fill="#2e3436" stroke="#2e3436" stroke-width="2" points="199.61,-36.6084 197.107,-44.4426 197.476,-39.7317 194.969,-42.5208 194.597,-42.1866 194.225,-41.8524 196.732,-39.0633 192.087,-39.9306 199.61,-36.6084 199.61,-36.6084"/>
<text text-anchor="middle" x="198.215" y="-56.6" font-family="sans-serif" font-size="8.00" fill="#2e3436">BLOCKS</text>
</g>
<!-- N1&#45;&gt;N4 -->
<g id="edge4" class="edge"><title>N1&#45;&gt;N4</title>
<path fill="none" stroke="#4e9a06" stroke-width="2" d="M132.486,-81.3582C124.985,-70.1777 115.094,-55.4338 106.849,-43.1448"/>
<polygon fill="#4e9a06" stroke="#4e9a06" stroke-width="2" points="102.464,-36.6084 109.445,-40.9563 104.969,-39.4439 107.058,-42.558 106.643,-42.8366 106.227,-43.1152 104.138,-40.0011 103.84,-44.7169 102.464,-36.6084 102.464,-36.6084"/>
<text text-anchor="middle" x="135.098" y="-56.6" font-family="sans-serif" font-size="8.00" fill="#4e9a06">KNOWS</text>
</g>
<!-- N3&#45;&gt;N0 -->
<g id="edge6" class="edge"><title>N3&#45;&gt;N0</title>
<path fill="none" stroke="#4e9a06" stroke-width="2" d="M219.907,-36.5084C221.584,-44.5706 222.659,-54.3162 220.986,-63 213.394,-102.426 207.03,-113.442 180.986,-144 177.17,-148.478 172.858,-153.01 168.56,-157.27"/>
<polygon fill="#4e9a06" stroke="#4e9a06" stroke-width="2" points="163.163,-162.495 166.204,-154.854 165.51,-159.527 168.204,-156.919 168.552,-157.278 168.899,-157.637 166.205,-160.246 170.899,-159.703 163.163,-162.495 163.163,-162.495"/>
<text text-anchor="middle" x="232.098" y="-97.1" font-family="sans-serif" font-size="8.00" fill="#4e9a06">KNOWS</text>
</g>
</g>
</svg>
